<svg width="16" height="16" viewBox="0 0 16 16" fill="none" xmlns="http://www.w3.org/2000/svg">
<path d="M7.982 2.5C4.956 2.5 2.5 4.956 2.5 7.982C2.5 11.044 4.956 13.5 7.982 13.5C11.044 13.5 13.5 11.044 13.5 7.982C13.5 4.956 11.044 2.5 7.982 2.5ZM7.982 1.5C9.72738 1.5 11.3656 2.17389 12.5948 3.39755C13.8234 4.62061 14.5 6.24874 14.5 7.982C14.5 9.73003 13.8239 11.3688 12.5964 12.5964C11.3688 13.8239 9.73003 14.5 7.982 14.5C6.24874 14.5 4.62061 13.8234 3.39755 12.5948C2.17389 11.3656 1.5 9.72738 1.5 7.982C1.5 4.40781 4.40781 1.5 7.982 1.5Z" fill="#949CA3"/>
<path d="M9.88291 5.65C9.3607 5.26252 8.72768 5.05332 8.07741 5.05332C7.42714 5.05332 6.79413 5.26252 6.27191 5.65L2.65991 8.485C2.68561 8.98169 2.80433 9.46913 3.00991 9.922L5.06791 7.67C5.00037 8.16329 5.06145 8.66567 5.24525 9.1284C5.42904 9.59112 5.72931 9.99849 6.11691 10.311C6.45406 10.5859 6.85083 10.7782 7.27553 10.8725C7.70023 10.9668 8.1411 10.9605 8.56291 10.854L6.27191 13.068C6.75943 13.2366 7.2702 13.3284 7.78591 13.34L10.4269 9.573C10.8424 8.96925 11.017 8.23188 10.9163 7.50591C10.8157 6.77994 10.447 6.11791 9.88291 5.65V5.65ZM9.45591 9.15C9.30621 9.353 9.11721 9.52382 8.90016 9.6523C8.6831 9.78078 8.44242 9.86429 8.19244 9.89787C7.94245 9.93144 7.68827 9.9144 7.445 9.84776C7.20174 9.78111 6.97436 9.66621 6.7764 9.50991C6.57844 9.35361 6.41393 9.15909 6.29267 8.93792C6.17141 8.71675 6.09587 8.47345 6.07054 8.2225C6.04521 7.97154 6.07062 7.71806 6.14524 7.47712C6.21986 7.23618 6.34218 7.01271 6.50491 6.82C6.82937 6.42825 7.29042 6.17423 7.79493 6.10927C8.29943 6.0443 8.80979 6.17323 9.22291 6.47C9.41731 6.62808 9.57796 6.8236 9.69532 7.04498C9.81267 7.26635 9.88435 7.50905 9.90608 7.75866C9.92782 8.00827 9.89917 8.25971 9.82183 8.49803C9.7445 8.73636 9.62007 8.95671 9.45591 9.146V9.15Z" fill="#62ABF3"/>
</svg>
