<svg width="16" height="16" viewBox="0 0 16 16" fill="none" xmlns="http://www.w3.org/2000/svg">
<path d="M7.982 2.447C4.956 2.447 2.5 4.903 2.5 7.929C2.5 10.991 4.956 13.447 7.982 13.447C11.044 13.447 13.5 10.991 13.5 7.929C13.5 4.903 11.044 2.447 7.982 2.447ZM7.982 1.447C9.72738 1.447 11.3656 2.12089 12.5948 3.34455C13.8234 4.56761 14.5 6.19574 14.5 7.929C14.5 9.67702 13.8239 11.3158 12.5964 12.5434C11.3688 13.7709 9.73003 14.447 7.982 14.447C6.24874 14.447 4.62061 13.7704 3.39755 12.5418C2.17389 11.3126 1.5 9.67438 1.5 7.929C1.5 4.3548 4.40781 1.447 7.982 1.447Z" fill="#4F575E"/>
<path d="M9.88291 5.597C9.3607 5.20952 8.72768 5.00032 8.07741 5.00032C7.42714 5.00032 6.79413 5.20952 6.27191 5.597L2.65991 8.432C2.68561 8.92868 2.80433 9.41612 3.00991 9.869L5.06791 7.617C5.00037 8.11029 5.06145 8.61267 5.24525 9.07539C5.42904 9.53812 5.72931 9.94549 6.11691 10.258C6.45406 10.5329 6.85083 10.7252 7.27553 10.8195C7.70023 10.9138 8.1411 10.9075 8.56291 10.801L6.27191 13.015C6.75943 13.1836 7.2702 13.2754 7.78591 13.287L10.4269 9.52C10.8424 8.91625 11.017 8.17888 10.9163 7.45291C10.8157 6.72694 10.447 6.0649 9.88291 5.597ZM9.45591 9.097C9.30621 9.3 9.11721 9.47082 8.90016 9.5993C8.6831 9.72777 8.44242 9.81129 8.19244 9.84486C7.94245 9.87844 7.68827 9.8614 7.445 9.79475C7.20174 9.72811 6.97436 9.61321 6.7764 9.45691C6.57844 9.30061 6.41393 9.10609 6.29267 8.88492C6.17141 8.66375 6.09587 8.42045 6.07054 8.16949C6.04521 7.91854 6.07062 7.66506 6.14524 7.42412C6.21986 7.18318 6.34218 6.95971 6.50491 6.767C6.82937 6.37524 7.29042 6.12123 7.79493 6.05627C8.29943 5.9913 8.80979 6.12022 9.22291 6.417C9.41731 6.57508 9.57796 6.7706 9.69532 6.99197C9.81267 7.21335 9.88435 7.45605 9.90608 7.70566C9.92782 7.95527 9.89917 8.20671 9.82183 8.44503C9.7445 8.68335 9.62007 8.90371 9.45591 9.093V9.097Z" fill="#1862AB"/>
</svg>
