<svg id="图层_1" data-name="图层 1" xmlns="http://www.w3.org/2000/svg" viewBox="0 0 16 15.95"><defs><style>.cls-1{fill:#51575e;}.cls-2{fill:#3b5bdb;}</style></defs><title>appveyor-light</title><g id="_编组_" data-name="&lt;编组&gt;"><path class="cls-1" d="M8,2.45A5.5,5.5,0,1,1,2.5,7.93,5.49,5.49,0,0,1,8,2.45m0-1A6.5,6.5,0,1,0,14.5,7.93,6.49,6.49,0,0,0,8,1.45Z"/></g><path class="cls-2" d="M9.88,5.6a3,3,0,0,0-3.61,0L2.66,8.43A4,4,0,0,0,3,9.87L5.07,7.62a2.89,2.89,0,0,0,1,2.64,2.79,2.79,0,0,0,2.45.54L6.27,13a5,5,0,0,0,1.51.27l2.64-3.77A2.94,2.94,0,0,0,9.88,5.6Zm-.43,3.5a1.88,1.88,0,1,1-3-2.33,2,2,0,0,1,2.72-.35A1.87,1.87,0,0,1,9.46,9.09Z"/></svg>