<svg id="图层_1" data-name="图层 1" xmlns="http://www.w3.org/2000/svg" viewBox="0 0 16 16"><defs><style>.cls-1{fill:#7e868d;}.cls-2{fill:#5c7cfa;}</style></defs><title>appveyor-dark</title><g id="_编组_" data-name="&lt;编组&gt;"><path class="cls-1" d="M8,2.5A5.5,5.5,0,1,1,2.5,8,5.49,5.49,0,0,1,8,2.5m0-1A6.5,6.5,0,1,0,14.5,8,6.49,6.49,0,0,0,8,1.5Z"/></g><path class="cls-2" d="M9.88,5.65a3,3,0,0,0-3.61,0L2.66,8.49A4,4,0,0,0,3,9.92L5.07,7.67a2.89,2.89,0,0,0,1,2.64,2.79,2.79,0,0,0,2.45.54L6.27,13.07a5,5,0,0,0,1.51.27l2.64-3.77A2.94,2.94,0,0,0,9.88,5.65Zm-.43,3.5a1.88,1.88,0,1,1-3-2.33,2,2,0,0,1,2.72-.35A1.87,1.87,0,0,1,9.46,9.15Z"/></svg>