<svg xmlns="http://www.w3.org/2000/svg" viewBox="0 0 16 15.95"><defs><style>.a{fill:#4f575e;}.b{fill:#3b5bdb;}</style></defs><title>appveyor-light</title><path class="a" d="M8,2.45A5.5,5.5,0,1,1,2.5,7.93,5.49,5.49,0,0,1,8,2.45m0-1A6.5,6.5,0,1,0,14.5,7.93,6.48,6.48,0,0,0,8,1.45Z"/><path class="b" d="M9.88,5.6a3,3,0,0,0-3.61,0L2.66,8.43A4.08,4.08,0,0,0,3,9.87L5.07,7.62a2.87,2.87,0,0,0,1,2.64,2.77,2.77,0,0,0,2.44.54L6.27,13a4.87,4.87,0,0,0,1.52.28l2.64-3.77A2.93,2.93,0,0,0,9.88,5.6ZM9.46,9.09a1.88,1.88,0,1,1-3-2.33,2,2,0,0,1,2.72-.35A1.87,1.87,0,0,1,9.46,9.09Z"/></svg>