<svg xmlns="http://www.w3.org/2000/svg" viewBox="0 0 16 16"><defs><style>.a{fill:#7c868d;}.b{fill:#5c7cfa;}</style></defs><title>appveyor-dark</title><path class="a" d="M8,2.5A5.5,5.5,0,1,1,2.5,8,5.5,5.5,0,0,1,8,2.5m0-1A6.5,6.5,0,1,0,14.5,8,6.49,6.49,0,0,0,8,1.5Z"/><path class="b" d="M9.88,5.65a3,3,0,0,0-3.61,0L2.66,8.49A4,4,0,0,0,3,9.92L5.07,7.67a2.87,2.87,0,0,0,1,2.64,2.77,2.77,0,0,0,2.44.54L6.27,13.07a5.16,5.16,0,0,0,1.52.27l2.64-3.77A2.93,2.93,0,0,0,9.88,5.65Zm-.42,3.5a1.88,1.88,0,1,1-3-2.33,2,2,0,0,1,2.72-.35A1.87,1.87,0,0,1,9.46,9.15Z"/></svg>