<svg width="16" height="16" viewBox="0 0 16 16" fill="none" xmlns="http://www.w3.org/2000/svg">
<path d="M14.4979 2H7.00793L6.00793 4H2.50293C2.37032 4 2.24314 4.05268 2.14938 4.14645C2.05561 4.24021 2.00293 4.36739 2.00293 4.5V12.5C2.00293 12.6326 2.05561 12.7598 2.14938 12.8536C2.24314 12.9473 2.37032 13 2.50293 13H14.4979C14.6305 13 14.7577 12.9473 14.8515 12.8536C14.9453 12.7598 14.9979 12.6326 14.9979 12.5V2.5C14.9979 2.36739 14.9453 2.24021 14.8515 2.14645C14.7577 2.05268 14.6305 2 14.4979 2ZM7.57893 12H6.58993L9.08993 5H10.0789L7.57893 12ZM14.0029 4H7.50793L8.00793 3H14.0029V4Z" fill="#7C868D"/>
</svg>
