<svg width="16" height="16" viewBox="0 0 16 16" fill="none" xmlns="http://www.w3.org/2000/svg">
<path d="M14.5 2H7.008L6.008 4H2.5C2.36739 4 2.24021 4.05268 2.14645 4.14645C2.05268 4.24021 2 4.36739 2 4.5V12.5C2 12.6326 2.05268 12.7598 2.14645 12.8536C2.24021 12.9473 2.36739 13 2.5 13H14.5C14.6326 13 14.7598 12.9473 14.8536 12.8536C14.9473 12.7598 15 12.6326 15 12.5V2.5C15 2.36739 14.9473 2.24021 14.8536 2.14645C14.7598 2.05268 14.6326 2 14.5 2ZM7.746 12H6.757L9.257 5H10.246L7.746 12ZM14 4H7.5L8 3H14V4Z" fill="#4F575E"/>
</svg>
