<svg width="16" height="16" viewBox="0 0 16 16" fill="none" xmlns="http://www.w3.org/2000/svg">
<path fill-rule="evenodd" clip-rule="evenodd" d="M8.77573 4.5117H1V8.2107L7.72 14.9532H11.4067V7.15475C9.97962 7.09493 8.8336 5.94397 8.77573 4.5117Z" fill="#4F575E"/>
<path fill-rule="evenodd" clip-rule="evenodd" d="M8.77573 4.5117H1V8.2107L7.72 14.9532H11.4067V7.15475C9.97962 7.09493 8.8336 5.94397 8.77573 4.5117Z" fill="black" fill-opacity="0.1"/>
<path fill-rule="evenodd" clip-rule="evenodd" d="M15 1H8.65332L3.23999 9.00669L6.92666 12.8462L15 7.36789V1ZM11.52 6.65505C12.7627 6.65505 13.77 5.64432 13.77 4.39753C13.77 3.15073 12.7627 2.14 11.52 2.14C10.2774 2.14 9.27002 3.15073 9.27002 4.39753C9.27002 5.64432 10.2774 6.65505 11.52 6.65505Z" fill="#4F575E"/>
<path fill-rule="evenodd" clip-rule="evenodd" d="M15 1H8.65332L3.23999 9.00669L6.92666 12.8462L15 7.36789V1ZM11.52 6.65505C12.7627 6.65505 13.77 5.64432 13.77 4.39753C13.77 3.15073 12.7627 2.14 11.52 2.14C10.2774 2.14 9.27002 3.15073 9.27002 4.39753C9.27002 5.64432 10.2774 6.65505 11.52 6.65505Z" fill="white" fill-opacity="0.1"/>
<path d="M9.30668 7.64883L8.37335 6.71237L3.84668 11.2542L4.78001 12.1906L9.30668 7.64883Z" fill="#4F575E"/>
<path d="M9.30668 7.64883L8.37335 6.71237L3.84668 11.2542L4.78001 12.1906L9.30668 7.64883Z" fill="white" fill-opacity="0.3"/>
<path d="M2.02667 11.4883H1V15H4.45333V13.9699H2.02667V11.4883Z" fill="#4F575E"/>
<ellipse cx="11.5468" cy="4.41806" rx="1.77333" ry="1.77926" fill="#3B5BDB"/>
</svg>
