<svg width="16" height="16" viewBox="0 0 16 16" fill="none" xmlns="http://www.w3.org/2000/svg">
<path fill-rule="evenodd" clip-rule="evenodd" d="M8.65332 1H15V7.36789L11.4067 9.80619V14.9532H7.72L4.87334 12.097L4.78001 12.1906L3.84668 11.2542L3.94001 11.1605L1 8.2107V4.5117H6.27906L8.65332 1ZM13.77 4.39753C13.77 5.64432 12.7627 6.65505 11.52 6.65505C10.2774 6.65505 9.27002 5.64432 9.27002 4.39753C9.27002 3.15073 10.2774 2.14 11.52 2.14C12.7627 2.14 13.77 3.15073 13.77 4.39753ZM1 11.4883H2.02667V13.9699H4.45333V15H1V11.4883Z" fill="#4F575E"/>
<path d="M9.30668 7.64883L8.37335 6.71237L3.84668 11.2542L4.78001 12.1906L9.30668 7.64883Z" fill="white" fill-opacity="0.2"/>
<path fill-rule="evenodd" clip-rule="evenodd" d="M3.23999 9.00669L6.27906 4.5117H1V8.2107L3.94001 11.1605L4.63681 10.4614L3.23999 9.00669ZM5.55275 11.4153L4.87334 12.097L7.72 14.9532H11.4067V9.80619L6.92666 12.8462L5.55275 11.4153Z" fill="black" fill-opacity="0.1"/>
<ellipse cx="11.5468" cy="4.41806" rx="1.77333" ry="1.77926" fill="#1862AB"/>
</svg>
