<svg width="16" height="16" viewBox="0 0 16 16" fill="none" xmlns="http://www.w3.org/2000/svg">
<path d="M8.00458 1.5C4.96466 1.5 2.41903 3.57605 1.7023 6.39354C1.7023 6.41825 1.68994 6.43061 1.68994 6.45532C1.68994 6.62833 1.82587 6.76426 1.99888 6.76426H4.61865C4.74222 6.76426 4.85344 6.69011 4.90287 6.5789C5.4466 5.40494 6.62055 4.58935 8.00458 4.58935C9.88291 4.58935 11.4152 6.12167 11.4152 8C11.4152 9.87833 9.88291 11.4106 8.00458 11.4106C6.63291 11.4106 5.4466 10.5951 4.90287 9.4211C4.85344 9.30989 4.74222 9.23574 4.61865 9.23574H1.99888C1.82587 9.23574 1.68994 9.37167 1.68994 9.54468C1.68994 9.56939 1.68994 9.58175 1.7023 9.60646C2.41903 12.424 4.96466 14.5 8.00458 14.5C11.6006 14.5 14.5169 11.5836 14.5169 7.98764C14.5169 4.40399 11.6006 1.5 8.00458 1.5Z" fill="#4F575E"/>
<path d="M8.00464 6.45532C7.15198 6.45532 6.45996 7.14734 6.45996 8C6.45996 8.85266 7.15198 9.55703 8.00464 9.54468C8.8573 9.54468 9.54931 8.85266 9.54931 8C9.54931 7.14734 8.8573 6.45532 8.00464 6.45532Z" fill="#9F4700"/>
</svg>
