<svg width="16" height="16" viewBox="0 0 16 16" fill="none" xmlns="http://www.w3.org/2000/svg">
<path d="M7.99032 1C4.71656 1 1.97511 3.23574 1.20325 6.26996C1.20325 6.29658 1.18994 6.30989 1.18994 6.3365C1.18994 6.52281 1.33633 6.6692 1.52264 6.6692H4.34393C4.47701 6.6692 4.59679 6.58935 4.65002 6.46958C5.23557 5.20532 6.49983 4.327 7.99032 4.327C10.0131 4.327 11.6633 5.97719 11.6633 8C11.6633 10.0228 10.0131 11.673 7.99032 11.673C6.51314 11.673 5.23557 10.7947 4.65002 9.53042C4.59679 9.41065 4.47701 9.3308 4.34393 9.3308H1.52264C1.33633 9.3308 1.18994 9.47719 1.18994 9.6635C1.18994 9.69011 1.18994 9.70342 1.20325 9.73004C1.97511 12.7643 4.71656 15 7.99032 15C11.8629 15 15.0036 11.8593 15.0036 7.98669C15.0036 4.12738 11.8629 1 7.99032 1Z" fill="#4F575E"/>
<path d="M7.9904 6.3365C7.07215 6.3365 6.3269 7.08175 6.3269 8C6.3269 8.91825 7.07215 9.67681 7.9904 9.6635C8.90865 9.6635 9.6539 8.91825 9.6539 8C9.6539 7.08175 8.90865 6.3365 7.9904 6.3365Z" fill="#AC4D00"/>
</svg>
