<svg id="图层_1" data-name="图层 1" xmlns="http://www.w3.org/2000/svg" viewBox="0 0 16 15.95"><defs><style>.cls-1{fill:#4c4190;}.cls-2{fill:#51575e;}</style></defs><title>config-light</title><circle class="cls-1" cx="10" cy="10.45" r="1.15"/><rect class="cls-1" x="13" y="9.95" width="0.5" height="1"/><path class="cls-1" d="M13,9.95v1h-.45a2.58,2.58,0,0,1-.39,1l.67.67-.71.71-.33-.33H12V7.74l.12-.12.71.71L12.16,9a2.58,2.58,0,0,1,.39,1Z"/><path class="cls-2" d="M13,4.95V7.44l-.35-.35-.53-.53L12,6.68V5.95H9v-3H4v10H6.49l.15.15.71.71.14.14H4a1,1,0,0,1-1-1v-10a1,1,0,0,1,1-1H9.64Z"/><path class="cls-1" d="M12,7.74v5.21h-.21l-.34-.34a2.71,2.71,0,0,1-.73.34H9.28a2.71,2.71,0,0,1-.73-.34l-.34.34H7.55l-.38-.38.67-.67a2.58,2.58,0,0,1-.39-1h-1v-1h1a2.58,2.58,0,0,1,.39-1l-.67-.67.71-.71.67.67A2.58,2.58,0,0,1,9.5,7.9v-1h1v1a2.58,2.58,0,0,1,.95.39Zm-.1,2.71a1.9,1.9,0,1,0-1.9,1.9A1.9,1.9,0,0,0,11.9,10.45Z"/><path class="cls-1" d="M10.72,12.95,10.5,13v.95h-1V13l-.22-.05Z"/><polygon class="cls-1" points="8.21 12.95 7.88 13.28 7.55 12.95 8.21 12.95"/></svg>