<svg xmlns="http://www.w3.org/2000/svg" viewBox="0 0 16 16"><defs><style>.a{fill:#da7300;}.b{fill:#7c868d;}</style></defs><title>config-js-dark</title><rect class="a" x="13" y="10" width="0.5" height="1"/><path class="a" d="M13,10v1h-.45a2.58,2.58,0,0,1-.39.95l.67.67-.71.71L11.79,13H12V7.79l.12-.12.71.71-.67.67a2.58,2.58,0,0,1,.39.95Z"/><path class="b" d="M13,5V7.49l-.35-.35-.53-.53L12,6.73V6H9V3H4V13H6.49l.15.15.71.71.14.14H4a1,1,0,0,1-1-1V3A1,1,0,0,1,4,2H9.64Z"/><path class="a" d="M12,7.79V13h-.21l-.34-.34a2.71,2.71,0,0,1-.73.34H9.28a2.71,2.71,0,0,1-.73-.34L8.21,13H7.55l-.38-.38L7.84,12A2.58,2.58,0,0,1,7.45,11h-1V10h1a2.58,2.58,0,0,1,.39-.95l-.67-.67.71-.71.67.67A2.58,2.58,0,0,1,9.5,8V7h1V8a2.58,2.58,0,0,1,.95.39Zm-.1,2.71A1.9,1.9,0,1,0,10,12.4,1.9,1.9,0,0,0,11.9,10.5Z"/><path class="a" d="M10.72,13l-.22.05V14h-1v-.95L9.28,13Z"/><circle class="a" cx="10" cy="10.5" r="1.15"/><polygon class="a" points="8.21 13 7.88 13.33 7.55 13 8.21 13"/></svg>