<svg xmlns="http://www.w3.org/2000/svg" viewBox="0 0 16 15.95"><defs><style>.a{fill:#ac4d00;}.b{fill:#4f575e;}</style></defs><title>config-js-light</title><rect class="a" x="13" y="9.95" width="0.5" height="1"/><path class="a" d="M13,10v1h-.45a2.58,2.58,0,0,1-.39,1l.67.67-.71.71L11.79,13H12V7.74l.12-.12.71.71L12.16,9a2.58,2.58,0,0,1,.39.95Z"/><path class="b" d="M13,5V7.44l-.35-.35-.53-.53L12,6.68V6H9V3H4V13H6.49l.15.15.71.71.14.14H4a1,1,0,0,1-1-1V3A1,1,0,0,1,4,2H9.64Z"/><path class="a" d="M12,7.74V13h-.21l-.34-.34a2.71,2.71,0,0,1-.73.34H9.28a2.71,2.71,0,0,1-.73-.34L8.21,13H7.55l-.38-.38.67-.67a2.58,2.58,0,0,1-.39-1h-1V10h1A2.58,2.58,0,0,1,7.84,9l-.67-.67.71-.71.67.67A2.58,2.58,0,0,1,9.5,7.9V7h1v1a2.58,2.58,0,0,1,.95.39Zm-.1,2.71a1.9,1.9,0,1,0-1.9,1.9A1.9,1.9,0,0,0,11.9,10.45Z"/><path class="a" d="M10.72,13,10.5,13V14h-1V13L9.28,13Z"/><circle class="a" cx="10" cy="10.45" r="1.15"/><polygon class="a" points="8.21 12.95 7.88 13.28 7.55 12.95 8.21 12.95"/></svg>