<svg width="16" height="16" viewBox="0 0 16 16" fill="none" xmlns="http://www.w3.org/2000/svg">
<path d="M12.9999 5V7.48999L12.6499 7.14L12.1199 6.61L11.9999 6.73V6H8.99994V3H3.99994V13H6.48994L6.63994 13.15L7.34994 13.86L7.48994 14H3.95994C3.83015 14.0011 3.7015 13.9757 3.58188 13.9253C3.46226 13.8749 3.35418 13.8006 3.2643 13.707C3.17441 13.6134 3.1046 13.5024 3.05914 13.3808C3.01368 13.2592 2.99353 13.1296 2.99994 13V3C2.99353 2.87036 3.01368 2.74078 3.05914 2.6192C3.1046 2.49762 3.17441 2.38661 3.2643 2.29298C3.35418 2.19935 3.46226 2.12506 3.58188 2.07468C3.7015 2.0243 3.83015 1.99889 3.95994 2H9.63994L12.9999 5Z" fill="#949CA3"/>
<path fill-rule="evenodd" clip-rule="evenodd" d="M12 7.79V13H12V7.79L12.12 7.67L12.83 8.38L12.16 9.05C12.3524 9.33734 12.485 9.6604 12.55 10H13H13H13.5V11H13H13H12.55C12.485 11.3396 12.3524 11.6627 12.16 11.95L12.83 12.62L12.12 13.33L11.79 13H11.79L11.45 12.66C11.225 12.8091 10.9789 12.9237 10.72 13H10.72C10.6479 13.0214 10.5744 13.0381 10.5 13.05V14H9.50003V13.05C9.42569 13.0381 9.35221 13.0214 9.28003 13H9.28C9.02107 12.9237 8.77502 12.8091 8.55 12.66L8.21 13H8.21004L7.88004 13.33L7.55005 13H7.55L7.17 12.62L7.84 11.95C7.64765 11.6627 7.51502 11.3396 7.45 11H6.5V10H7.45C7.51502 9.6604 7.64765 9.33734 7.84 9.05L7.17 8.38L7.88 7.67L8.55 8.34C8.83734 8.14765 9.1604 8.01502 9.5 7.95V7H10.5V7.95C10.8396 8.01502 11.1627 8.14765 11.45 8.34L12 7.79ZM11.9 10.5C11.9 10.1242 11.7886 9.75687 11.5798 9.44442C11.371 9.13197 11.0743 8.88844 10.7271 8.74463C10.3799 8.60082 9.99789 8.56319 9.62933 8.63651C9.26076 8.70982 8.92221 8.89077 8.65649 9.15649C8.39077 9.42221 8.20982 9.76076 8.13651 10.1293C8.06319 10.4979 8.10082 10.8799 8.24463 11.2271C8.38844 11.5743 8.63197 11.871 8.94442 12.0798C9.25687 12.2886 9.62422 12.4 10 12.4C10.5039 12.4 10.9872 12.1998 11.3435 11.8435C11.6998 11.4872 11.9 11.0039 11.9 10.5ZM10.0001 11.65C10.6352 11.65 11.1501 11.1351 11.1501 10.5C11.1501 9.86487 10.6352 9.35 10.0001 9.35C9.36497 9.35 8.8501 9.86487 8.8501 10.5C8.8501 11.1351 9.36497 11.65 10.0001 11.65Z" fill="#7F76DA"/>
</svg>
