<svg xmlns="http://www.w3.org/2000/svg" viewBox="0 0 16 16"><defs><style>.a{fill:#37954a;}</style></defs><title>cs-dark</title><path class="a" d="M8.21,9.06A3.28,3.28,0,0,1,8,10a2.26,2.26,0,0,1-.55.78,2.43,2.43,0,0,1-.85.52,3.51,3.51,0,0,1-1.17.18,3.36,3.36,0,0,1-1.31-.24,2.74,2.74,0,0,1-1-.71,3.25,3.25,0,0,1-.6-1.12A5.19,5.19,0,0,1,2.3,8a4.64,4.64,0,0,1,.22-1.5,3.35,3.35,0,0,1,.63-1.13,2.84,2.84,0,0,1,1-.7A3.22,3.22,0,0,1,5.39,4.4a3.31,3.31,0,0,1,1.1.16A2.29,2.29,0,0,1,7.28,5a2.22,2.22,0,0,1,.52.72,3.75,3.75,0,0,1,.29.93L7,6.83a3.13,3.13,0,0,0-.19-.61,1.37,1.37,0,0,0-.3-.45A1.15,1.15,0,0,0,6,5.49a1.7,1.7,0,0,0-.63-.1,1.73,1.73,0,0,0-.81.18A1.62,1.62,0,0,0,4,6.09a2.16,2.16,0,0,0-.37.81A4.29,4.29,0,0,0,3.5,8,4,4,0,0,0,3.63,9,2.32,2.32,0,0,0,4,9.85a1.79,1.79,0,0,0,.59.51,1.74,1.74,0,0,0,.8.18,2,2,0,0,0,.68-.11,1.49,1.49,0,0,0,.47-.29,1.66,1.66,0,0,0,.3-.46A2.68,2.68,0,0,0,7,9.06Z"/><path class="a" d="M8.75,9.77V9h1L10,7.3H9.06V6.5h1.06l.25-1.59h.94L11.05,6.5h1.26l.26-1.59h.93L13.24,6.5H14v.8h-.87L12.84,9h.82v.8h-1l-.25,1.58h-.94l.26-1.58H10.51l-.26,1.58H9.32l.26-1.58ZM12.19,7.3H10.93L10.64,9H11.9Z"/></svg>