<svg width="16" height="16" viewBox="0 0 16 16" fill="none" xmlns="http://www.w3.org/2000/svg">
<path d="M4.78448 12.138C3.76482 12.138 3.00582 11.7777 2.50748 11.057C2.01682 10.3363 1.77148 9.31283 1.77148 7.9865C1.77148 6.66017 2.01682 5.63667 2.50748 4.916C3.00582 4.19533 3.76482 3.835 4.78448 3.835C5.17548 3.835 5.51282 3.88867 5.79648 3.996C6.08782 4.09567 6.33698 4.2375 6.54398 4.4215C6.75098 4.59783 6.92348 4.80867 7.06148 5.054C7.20715 5.29167 7.32598 5.5485 7.41798 5.8245L6.25648 6.2155C6.19515 6.0315 6.12615 5.859 6.04948 5.698C5.97282 5.537 5.87698 5.399 5.76198 5.284C5.64698 5.169 5.50898 5.077 5.34798 5.008C5.19465 4.939 5.00298 4.9045 4.77298 4.9045C4.20565 4.9045 3.79165 5.123 3.53098 5.56C3.27032 5.98933 3.13998 6.572 3.13998 7.308V8.665C3.13998 9.401 3.27032 9.9875 3.53098 10.4245C3.79165 10.8538 4.20565 11.0685 4.77298 11.0685C5.00298 11.0685 5.19465 11.034 5.34798 10.965C5.50898 10.896 5.64698 10.804 5.76198 10.689C5.87698 10.574 5.97282 10.436 6.04948 10.275C6.12615 10.114 6.19515 9.9415 6.25648 9.7575L7.41798 10.1485C7.32598 10.4245 7.20715 10.6852 7.06148 10.9305C6.92348 11.1682 6.75098 11.379 6.54398 11.563C6.33698 11.7393 6.08782 11.8812 5.79648 11.9885C5.51282 12.0882 5.17548 12.138 4.78448 12.138Z" fill="#216F30"/>
<path d="M9.55249 9.6195H8.14949V8.6535H9.72499L9.95499 7.3195H8.57499V6.3535H10.1275L10.553 3.973H11.5995L11.18 6.3535L11.0098 7.3195L10.7747 8.6535L10.6045 9.6195L10.185 12H9.13849L9.55249 9.6195ZM12.715 3.973H13.7615L13.3475 6.3535H14.7505V7.3195H13.175L12.945 8.6535H14.325V9.6195H12.7725L12.347 12H11.3005L11.72 9.6195L11.8902 8.6535L12.1253 7.3195L12.2955 6.3535L12.715 3.973Z" fill="#216F30"/>
<path d="M11.18 6.3535L11.0098 7.3195H12.1253L12.2955 6.3535H11.18Z" fill="#216F30"/>
<path d="M11.8902 8.6535H10.7747L10.6045 9.6195H11.72L11.8902 8.6535Z" fill="#216F30"/>
</svg>
