<svg xmlns="http://www.w3.org/2000/svg" viewBox="0 0 16 16"><defs><style>.a{fill:#007c2a;}</style></defs><title>cs-light</title><path class="a" d="M8.21,9.06A3.22,3.22,0,0,1,8,10a2.42,2.42,0,0,1-.55.78,2.46,2.46,0,0,1-.86.52,3.36,3.36,0,0,1-1.17.19,3.29,3.29,0,0,1-1.31-.25,2.62,2.62,0,0,1-1-.71,3.11,3.11,0,0,1-.6-1.12A5,5,0,0,1,2.3,8a4.71,4.71,0,0,1,.22-1.5,3.22,3.22,0,0,1,.63-1.13,2.7,2.7,0,0,1,1-.7A3.18,3.18,0,0,1,5.39,4.4a3.38,3.38,0,0,1,1.1.16A2.27,2.27,0,0,1,7.28,5a2.23,2.23,0,0,1,.52.72,3.86,3.86,0,0,1,.29.93L7,6.83a3.43,3.43,0,0,0-.19-.61,1.41,1.41,0,0,0-.3-.45A1.23,1.23,0,0,0,6,5.49a1.82,1.82,0,0,0-.64-.1,1.74,1.74,0,0,0-.81.18A1.66,1.66,0,0,0,4,6.09a2.4,2.4,0,0,0-.37.81A4.25,4.25,0,0,0,3.5,8,4.11,4.11,0,0,0,3.63,9,2.42,2.42,0,0,0,4,9.85a1.67,1.67,0,0,0,.59.51,1.73,1.73,0,0,0,.79.18,1.93,1.93,0,0,0,.68-.1,1.3,1.3,0,0,0,.47-.29,1.38,1.38,0,0,0,.3-.46A2.59,2.59,0,0,0,7,9.06Z"/><path class="a" d="M8.75,9.77V9h1L10,7.3H9.06V6.5h1.05l.26-1.59h.94L11,6.5h1.26l.26-1.59h.93L13.24,6.5H14v.8h-.87L12.84,9h.82v.8h-1l-.26,1.59h-.93l.26-1.59H10.51l-.26,1.59H9.32l.26-1.59ZM12.19,7.3H10.93L10.64,9H11.9Z"/></svg>