<svg width="16" height="16" viewBox="0 0 16 16" fill="none" xmlns="http://www.w3.org/2000/svg">
<path d="M8.22809 6.84695H7.06474C6.97028 6.35227 6.73786 5.97319 6.36748 5.70969C5.99958 5.44371 5.57202 5.31072 5.08481 5.31072C4.64731 5.31072 4.25455 5.42134 3.90654 5.64258C3.55853 5.86381 3.28385 6.18821 3.0825 6.61577C2.88363 7.04084 2.7842 7.56285 2.7842 8.18182C2.7842 8.80327 2.88488 9.32777 3.08623 9.75533C3.28758 10.1829 3.56101 10.506 3.90654 10.7248C4.25455 10.9435 4.64606 11.0529 5.08108 11.0529C5.56332 11.0529 5.98964 10.9224 6.36002 10.6614C6.7304 10.4004 6.96531 10.0263 7.06474 9.53906L8.22809 9.54279C8.14606 10.0449 7.96211 10.4886 7.67625 10.8739C7.39038 11.2592 7.02497 11.5613 6.58001 11.78C6.13505 11.9963 5.63292 12.1044 5.07362 12.1044C4.4124 12.1044 3.82326 11.9478 3.30622 11.6346C2.78917 11.3189 2.3815 10.8677 2.08321 10.2811C1.7874 9.69442 1.63949 8.99467 1.63949 8.18182C1.63949 7.36648 1.78864 6.66673 2.08694 6.08256C2.38523 5.49592 2.7929 5.04599 3.30995 4.73278C3.82699 4.41708 4.41488 4.25923 5.07362 4.25923C5.61304 4.25923 6.10398 4.36115 6.54645 4.56499C6.99141 4.76882 7.36055 5.06463 7.65388 5.45241C7.94969 5.83771 8.14109 6.30256 8.22809 6.84695ZM12.3809 12L12.7165 9.95668H10.9267L10.5912 12H9.69627L10.0318 9.95668H8.92443L9.06985 9.06179H10.1773L10.4681 7.30185H9.36814L9.51356 6.40696H10.6135L10.9491 4.36364H11.844L11.5084 6.40696H13.2982L13.6338 4.36364H14.5287L14.1931 6.40696H15.3005L15.1551 7.30185H14.0477L13.7568 9.06179H14.8568L14.7114 9.95668H13.6114L13.2758 12H12.3809ZM11.0722 9.06179H12.8619L13.1528 7.30185H11.363L11.0722 9.06179Z" fill="#007C2B"/>
</svg>
