<svg xmlns="http://www.w3.org/2000/svg" viewBox="0 0 16 16"><defs><style>.a{fill:#51575e;}.b{fill:#ab2f2f;}</style></defs><title>css-light</title><path class="a" d="M2.34,5.22a1.64,1.64,0,0,1,.11-.65.89.89,0,0,1,.32-.39A1.28,1.28,0,0,1,3.27,4a3.56,3.56,0,0,1,.65-.05h.42v.9H3.89A.43.43,0,0,0,3.47,5a1,1,0,0,0-.1.47V7a1.66,1.66,0,0,1-.11.63A.72.72,0,0,1,2.79,8a.73.73,0,0,1,.45.35,1.14,1.14,0,0,1,.13.55v1.63a1,1,0,0,0,.1.46.43.43,0,0,0,.42.19h.44v.9H3.91A3.65,3.65,0,0,1,3.27,12a1.28,1.28,0,0,1-.49-.2.89.89,0,0,1-.32-.39,1.64,1.64,0,0,1-.11-.65V9.2a.93.93,0,0,0-.14-.55.56.56,0,0,0-.48-.19H1.67V7.54h.06a.56.56,0,0,0,.47-.19.8.8,0,0,0,.14-.5Z"/><path class="a" d="M13.66,6.86a.79.79,0,0,0,.14.5.56.56,0,0,0,.47.19h.06v.91h-.06a.56.56,0,0,0-.48.19.93.93,0,0,0-.14.55v1.59a1.66,1.66,0,0,1-.11.65.89.89,0,0,1-.32.39,1.29,1.29,0,0,1-.5.2,3.68,3.68,0,0,1-.64.05h-.42v-.9h.44a.43.43,0,0,0,.42-.19,1,1,0,0,0,.1-.46V8.89a1.15,1.15,0,0,1,.13-.55A.74.74,0,0,1,13.21,8a.72.72,0,0,1-.47-.39A1.64,1.64,0,0,1,12.63,7V5.48a1,1,0,0,0-.1-.47.43.43,0,0,0-.42-.19h-.44v-.9h.42a3.59,3.59,0,0,1,.64.05,1.29,1.29,0,0,1,.5.19.9.9,0,0,1,.32.39,1.66,1.66,0,0,1,.11.65Z"/><circle class="b" cx="8" cy="8" r="3"/></svg>