<svg width="16" height="16" viewBox="0 0 16 16" fill="none" xmlns="http://www.w3.org/2000/svg">
<path d="M1.66402 5.35547V4.36364H7.574V5.35547H5.19136V12H4.04292V5.35547H1.66402ZM13.0449 6.36967C13.0051 6.01669 12.8411 5.74325 12.5527 5.54936C12.2644 5.35298 11.9015 5.25479 11.464 5.25479C10.9941 5.25479 10.6213 5.36168 10.3453 5.57546C10.0694 5.78924 9.93146 6.05895 9.93146 6.38459C9.93146 6.6282 10.0048 6.82706 10.1515 6.98118C10.3006 7.13281 10.4821 7.25213 10.6958 7.33913C10.9121 7.42614 11.1197 7.49574 11.3185 7.54794L12.0643 7.74183C12.3079 7.80149 12.5577 7.88352 12.8137 7.98793C13.0698 8.08984 13.3072 8.22408 13.5259 8.39062C13.7447 8.55469 13.9212 8.75977 14.0554 9.00586C14.1921 9.25195 14.2605 9.54652 14.2605 9.88956C14.2605 10.3196 14.1486 10.7037 13.9249 11.0417C13.7037 11.3798 13.383 11.6458 12.9629 11.8397C12.5428 12.0311 12.0332 12.1268 11.4341 12.1268C10.579 12.1268 9.8979 11.9267 9.3908 11.5265C8.88619 11.1262 8.61523 10.5806 8.57795 9.88956H9.73384C9.76864 10.3047 9.94886 10.6129 10.2745 10.8143C10.6001 11.0156 10.9842 11.1163 11.4267 11.1163C11.9164 11.1163 12.3203 11.0032 12.6385 10.777C12.9592 10.5508 13.1195 10.2512 13.1195 9.87837C13.1195 9.65217 13.0549 9.46697 12.9256 9.3228C12.7988 9.17614 12.6261 9.05682 12.4073 8.96484C12.1911 8.87038 11.9462 8.78711 11.6728 8.71502L10.7704 8.46893C10.1564 8.30238 9.6717 8.05753 9.31623 7.73438C8.96076 7.41122 8.78303 6.98366 8.78303 6.4517C8.78303 6.01172 8.90234 5.62766 9.14098 5.29954C9.37962 4.97141 9.70277 4.71662 10.1104 4.53516C10.5206 4.35121 10.9805 4.25923 11.4901 4.25923C12.0071 4.25923 12.4632 4.34996 12.8585 4.53143C13.2562 4.71289 13.5694 4.96271 13.7981 5.28089C14.0268 5.59908 14.1461 5.962 14.1561 6.36967H13.0449Z" fill="#007C2B"/>
</svg>
