<svg width="16" height="16" viewBox="0 0 16 16" fill="none" xmlns="http://www.w3.org/2000/svg">
<path d="M10.363 6.181C10.2666 6.181 10.1741 6.1427 10.106 6.07453C10.0378 6.00636 9.99951 5.9139 9.99951 5.8175C9.99951 5.72109 10.0378 5.62863 10.106 5.56046C10.1741 5.49229 10.2666 5.454 10.363 5.454H10.728C10.8244 5.454 10.9169 5.49229 10.985 5.56046C11.0532 5.62863 11.0915 5.72109 11.0915 5.8175C11.0915 5.9139 11.0532 6.00636 10.985 6.07453C10.9169 6.1427 10.8244 6.181 10.728 6.181H10.363Z" fill="#56B3B4"/>
<path d="M4.90895 12C4.85961 12.0026 4.81026 11.9951 4.76391 11.978C4.71755 11.9609 4.67517 11.9345 4.63933 11.9005C4.60349 11.8665 4.57495 11.8256 4.55544 11.7802C4.53594 11.7348 4.52588 11.6859 4.52588 11.6365C4.52588 11.5871 4.53594 11.5382 4.55544 11.4928C4.57495 11.4474 4.60349 11.4065 4.63933 11.3724C4.67517 11.3384 4.71755 11.3121 4.76391 11.295C4.81026 11.2779 4.85961 11.2704 4.90895 11.273H6.72795C6.82106 11.2779 6.90875 11.3183 6.97292 11.3859C7.0371 11.4536 7.07288 11.5433 7.07288 11.6365C7.07288 11.7297 7.0371 11.8194 6.97292 11.8871C6.90875 11.9547 6.82106 11.9951 6.72795 12H4.90895Z" fill="#EA5E5E"/>
<path d="M9.27193 9.091C9.17883 9.08611 9.09114 9.04569 9.02696 8.97805C8.96278 8.91042 8.927 8.82073 8.927 8.72749C8.927 8.63425 8.96278 8.54457 9.02696 8.47694C9.09114 8.40931 9.17883 8.36888 9.27193 8.364H10.3629C10.4123 8.36141 10.4616 8.36888 10.508 8.38598C10.5543 8.40308 10.5967 8.42944 10.6326 8.46345C10.6684 8.49746 10.6969 8.5384 10.7164 8.5838C10.7359 8.62919 10.746 8.67808 10.746 8.72749C10.746 8.7769 10.7359 8.82579 10.7164 8.87118C10.6969 8.91658 10.6684 8.95753 10.6326 8.99154C10.5967 9.02555 10.5543 9.0519 10.508 9.069C10.4616 9.0861 10.4123 9.09359 10.3629 9.091H9.27193Z" fill="#BF85BF"/>
<path d="M7.09103 9.091C6.99792 9.08611 6.91023 9.04569 6.84605 8.97805C6.78188 8.91042 6.74609 8.82073 6.74609 8.72749C6.74609 8.63425 6.78188 8.54457 6.84605 8.47694C6.91023 8.40931 6.99792 8.36888 7.09103 8.364H8.54502C8.59436 8.36141 8.64371 8.36888 8.69006 8.38598C8.73642 8.40308 8.77881 8.42944 8.81465 8.46345C8.85049 8.49746 8.87903 8.5384 8.89854 8.5838C8.91804 8.62919 8.92809 8.67808 8.92809 8.72749C8.92809 8.7769 8.91804 8.82579 8.89854 8.87118C8.87903 8.91658 8.85049 8.95753 8.81465 8.99154C8.77881 9.02555 8.73642 9.0519 8.69006 9.069C8.64371 9.0861 8.59436 9.09359 8.54502 9.091H7.09103Z" fill="#EA5E5E"/>
<path d="M4.90895 9.091C4.85961 9.09359 4.81026 9.0861 4.76391 9.069C4.71755 9.0519 4.67517 9.02555 4.63933 8.99154C4.60349 8.95753 4.57495 8.91658 4.55544 8.87118C4.53594 8.82579 4.52588 8.7769 4.52588 8.72749C4.52588 8.67808 4.53594 8.62919 4.55544 8.5838C4.57495 8.5384 4.60349 8.49746 4.63933 8.46345C4.67517 8.42944 4.71755 8.40308 4.76391 8.38598C4.81026 8.36888 4.85961 8.36141 4.90895 8.364H6.36295C6.41229 8.36141 6.46164 8.36888 6.508 8.38598C6.55435 8.40308 6.59674 8.42944 6.63258 8.46345C6.66842 8.49746 6.69696 8.5384 6.71646 8.5838C6.73597 8.62919 6.74603 8.67808 6.74603 8.72749C6.74603 8.7769 6.73597 8.82579 6.71646 8.87118C6.69696 8.91658 6.66842 8.95753 6.63258 8.99154C6.59674 9.02555 6.55435 9.0519 6.508 9.069C6.46164 9.0861 6.41229 9.09359 6.36295 9.091H4.90895Z" fill="#56B3B4"/>
<path d="M4.90895 10.546C4.85961 10.5486 4.81026 10.5411 4.76391 10.524C4.71755 10.5069 4.67517 10.4806 4.63933 10.4465C4.60349 10.4125 4.57495 10.3716 4.55544 10.3262C4.53594 10.2808 4.52588 10.2319 4.52588 10.1825C4.52588 10.1331 4.53594 10.0842 4.55544 10.0388C4.57495 9.99341 4.60349 9.95246 4.63933 9.91845C4.67517 9.88445 4.71755 9.85808 4.76391 9.84098C4.81026 9.82389 4.85961 9.81641 4.90895 9.819H6.72795C6.82106 9.82388 6.90875 9.86431 6.97292 9.93194C7.0371 9.99958 7.07288 10.0893 7.07288 10.1825C7.07288 10.2757 7.0371 10.3654 6.97292 10.4331C6.90875 10.5007 6.82106 10.5411 6.72795 10.546H4.90895Z" fill="#BF85BF"/>
<path d="M4.90895 7.636C4.85961 7.63859 4.81026 7.6311 4.76391 7.614C4.71755 7.5969 4.67517 7.57055 4.63933 7.53654C4.60349 7.50253 4.57495 7.46158 4.55544 7.41619C4.53594 7.37079 4.52588 7.3219 4.52588 7.2725C4.52588 7.22309 4.53594 7.1742 4.55544 7.1288C4.57495 7.08341 4.60349 7.04246 4.63933 7.00845C4.67517 6.97444 4.71755 6.94809 4.76391 6.93099C4.81026 6.91389 4.85961 6.9064 4.90895 6.90899H6.72795C6.82106 6.91388 6.90875 6.95431 6.97292 7.02195C7.0371 7.08958 7.07288 7.17926 7.07288 7.2725C7.07288 7.36573 7.0371 7.45542 6.97292 7.52305C6.90875 7.59069 6.82106 7.63111 6.72795 7.636H4.90895Z" fill="#BF85BF"/>
<path d="M6.72804 5.454C6.6787 5.45659 6.62935 5.4491 6.583 5.432C6.53665 5.4149 6.49426 5.38855 6.45842 5.35454C6.42258 5.32053 6.39404 5.27958 6.37453 5.23419C6.35503 5.18879 6.34497 5.1399 6.34497 5.0905C6.34497 5.04109 6.35503 4.9922 6.37453 4.9468C6.39404 4.90141 6.42258 4.86046 6.45842 4.82645C6.49426 4.79244 6.53665 4.76609 6.583 4.74899C6.62935 4.73189 6.6787 4.7244 6.72804 4.72699H10.363C10.4124 4.7244 10.4617 4.73189 10.5081 4.74899C10.5544 4.76609 10.5968 4.79244 10.6327 4.82645C10.6685 4.86046 10.697 4.90141 10.7166 4.9468C10.7361 4.9922 10.7461 5.04109 10.7461 5.0905C10.7461 5.1399 10.7361 5.18879 10.7166 5.23419C10.697 5.27958 10.6685 5.32053 10.6327 5.35454C10.5968 5.38855 10.5544 5.4149 10.5081 5.432C10.4617 5.4491 10.4124 5.45659 10.363 5.454H6.72804Z" fill="#F7BA3E"/>
<path d="M4.90895 5.454C4.85961 5.45659 4.81026 5.4491 4.76391 5.432C4.71755 5.4149 4.67517 5.38855 4.63933 5.35454C4.60349 5.32053 4.57495 5.27958 4.55544 5.23419C4.53594 5.18879 4.52588 5.1399 4.52588 5.0905C4.52588 5.04109 4.53594 4.9922 4.55544 4.9468C4.57495 4.90141 4.60349 4.86046 4.63933 4.82645C4.67517 4.79244 4.71755 4.76609 4.76391 4.74899C4.81026 4.73189 4.85961 4.7244 4.90895 4.72699H5.99995C6.09306 4.73188 6.18075 4.77231 6.24493 4.83995C6.3091 4.90758 6.34488 4.99726 6.34488 5.0905C6.34488 5.18373 6.3091 5.27342 6.24493 5.34105C6.18075 5.40869 6.09306 5.44911 5.99995 5.454H4.90895Z" fill="#EA5E5E"/>
<path d="M6.36301 11.273C6.26661 11.273 6.17415 11.2347 6.10598 11.1665C6.03781 11.0984 5.99951 11.0059 5.99951 10.9095C5.99951 10.8131 6.03781 10.7206 6.10598 10.6525C6.17415 10.5843 6.26661 10.546 6.36301 10.546H6.72801C6.82442 10.546 6.91688 10.5843 6.98505 10.6525C7.05322 10.7206 7.09151 10.8131 7.09151 10.9095C7.09151 11.0059 7.05322 11.0984 6.98505 11.1665C6.91688 11.2347 6.82442 11.273 6.72801 11.273H6.36301Z" fill="#F7BA3E"/>
<path d="M6.36301 6.909C6.26661 6.909 6.17415 6.87071 6.10598 6.80254C6.03781 6.73437 5.99951 6.64191 5.99951 6.5455C5.99951 6.4491 6.03781 6.35664 6.10598 6.28847C6.17415 6.2203 6.26661 6.182 6.36301 6.182H6.72801C6.82442 6.182 6.91688 6.2203 6.98505 6.28847C7.05322 6.35664 7.09151 6.4491 7.09151 6.5455C7.09151 6.64191 7.05322 6.73437 6.98505 6.80254C6.91688 6.87071 6.82442 6.909 6.72801 6.909H6.36301Z" fill="#56B3B4"/>
<path d="M4.90891 11.273C4.8125 11.273 4.72005 11.2347 4.65188 11.1665C4.58371 11.0984 4.54541 11.0059 4.54541 10.9095C4.54541 10.8131 4.58371 10.7206 4.65188 10.6525C4.72005 10.5843 4.8125 10.546 4.90891 10.546H5.63591C5.73232 10.546 5.82477 10.5843 5.89294 10.6525C5.96111 10.7206 5.9994 10.8131 5.9994 10.9095C5.9994 11.0059 5.96111 11.0984 5.89294 11.1665C5.82477 11.2347 5.73232 11.273 5.63591 11.273H4.90891Z" fill="#56B3B4"/>
<path d="M4.90891 6.909C4.8125 6.909 4.72005 6.87071 4.65188 6.80254C4.58371 6.73437 4.54541 6.64191 4.54541 6.5455C4.54541 6.4491 4.58371 6.35664 4.65188 6.28847C4.72005 6.2203 4.8125 6.182 4.90891 6.182H5.63591C5.73232 6.182 5.82477 6.2203 5.89294 6.28847C5.96111 6.35664 5.9994 6.4491 5.9994 6.5455C5.9994 6.64191 5.96111 6.73437 5.89294 6.80254C5.82477 6.87071 5.73232 6.909 5.63591 6.909H4.90891Z" fill="#F7BA3E"/>
<path d="M7.81786 8.364C7.72132 8.364 7.62873 8.32565 7.56047 8.25739C7.49221 8.18912 7.45386 8.09654 7.45386 8C7.45386 7.90346 7.49221 7.81088 7.56047 7.74261C7.62873 7.67435 7.72132 7.636 7.81786 7.636H10.7279C10.8244 7.636 10.917 7.67435 10.9852 7.74261C11.0535 7.81088 11.0919 7.90346 11.0919 8C11.0919 8.09654 11.0535 8.18912 10.9852 8.25739C10.917 8.32565 10.8244 8.364 10.7279 8.364H7.81786Z" fill="#56B3B4"/>
<path d="M5.99998 8.364C5.90345 8.364 5.81086 8.32565 5.7426 8.25739C5.67434 8.18912 5.63599 8.09654 5.63599 8C5.63599 7.90346 5.67434 7.81088 5.7426 7.74261C5.81086 7.67435 5.90345 7.636 5.99998 7.636H7.09099C7.18753 7.636 7.28011 7.67435 7.34837 7.74261C7.41664 7.81088 7.45499 7.90346 7.45499 8C7.45499 8.09654 7.41664 8.18912 7.34837 8.25739C7.28011 8.32565 7.18753 8.364 7.09099 8.364H5.99998Z" fill="#F7BA3E"/>
<path d="M4.90892 8.364C4.81238 8.364 4.7198 8.32565 4.65154 8.25739C4.58327 8.18912 4.54492 8.09654 4.54492 8C4.54492 7.90346 4.58327 7.81088 4.65154 7.74261C4.7198 7.67435 4.81238 7.636 4.90892 7.636H5.27193C5.36847 7.636 5.46105 7.67435 5.52931 7.74261C5.59758 7.81088 5.63593 7.90346 5.63593 8C5.63593 8.09654 5.59758 8.18912 5.52931 8.25739C5.46105 8.32565 5.36847 8.364 5.27193 8.364H4.90892Z" fill="#EA5E5E"/>
<path d="M8.18186 6.181C8.08546 6.181 7.993 6.1427 7.92483 6.07453C7.85666 6.00636 7.81836 5.9139 7.81836 5.8175C7.81836 5.72109 7.85666 5.62863 7.92483 5.56046C7.993 5.49229 8.08546 5.454 8.18186 5.454H9.63586C9.73227 5.454 9.82473 5.49229 9.8929 5.56046C9.96107 5.62863 9.99936 5.72109 9.99936 5.8175C9.99936 5.9139 9.96107 6.00636 9.8929 6.07453C9.82473 6.1427 9.73227 6.181 9.63586 6.181H8.18186Z" fill="#BF85BF"/>
<path d="M4.90891 6.181C4.8125 6.181 4.72005 6.1427 4.65188 6.07453C4.58371 6.00636 4.54541 5.9139 4.54541 5.8175C4.54541 5.72109 4.58371 5.62863 4.65188 5.56046C4.72005 5.49229 4.8125 5.454 4.90891 5.454H7.45491C7.55132 5.454 7.64377 5.49229 7.71194 5.56046C7.78011 5.62863 7.81841 5.72109 7.81841 5.8175C7.81841 5.9139 7.78011 6.00636 7.71194 6.07453C7.64377 6.1427 7.55132 6.181 7.45491 6.181H4.90891Z" fill="#56B3B4"/>
<path d="M5.99998 9.81799C5.90357 9.81799 5.81111 9.7797 5.74294 9.71153C5.67477 9.64336 5.63647 9.5509 5.63647 9.4545C5.63647 9.35809 5.67477 9.26563 5.74294 9.19746C5.81111 9.12929 5.90357 9.091 5.99998 9.091H9.27198C9.36839 9.091 9.46084 9.12929 9.52901 9.19746C9.59718 9.26563 9.63548 9.35809 9.63548 9.4545C9.63548 9.5509 9.59718 9.64336 9.52901 9.71153C9.46084 9.7797 9.36839 9.81799 9.27198 9.81799H5.99998Z" fill="#F7BA3E"/>
<path d="M4.90891 9.81799C4.8125 9.81799 4.72005 9.7797 4.65188 9.71153C4.58371 9.64336 4.54541 9.5509 4.54541 9.4545C4.54541 9.35809 4.58371 9.26563 4.65188 9.19746C4.72005 9.12929 4.8125 9.091 4.90891 9.091H5.27191C5.36832 9.091 5.46077 9.12929 5.52894 9.19746C5.59711 9.26563 5.63541 9.35809 5.63541 9.4545C5.63541 9.5509 5.59711 9.64336 5.52894 9.71153C5.46077 9.7797 5.36832 9.81799 5.27191 9.81799H4.90891Z" fill="#BF85BF"/>
<path d="M9.27195 6.909C9.17554 6.909 9.08308 6.87071 9.01492 6.80254C8.94675 6.73437 8.90845 6.64191 8.90845 6.5455C8.90845 6.4491 8.94675 6.35664 9.01492 6.28847C9.08308 6.2203 9.17554 6.182 9.27195 6.182H11.091C11.1874 6.182 11.2798 6.2203 11.348 6.28847C11.4161 6.35664 11.4544 6.4491 11.4544 6.5455C11.4544 6.64191 11.4161 6.73437 11.348 6.80254C11.2798 6.87071 11.1874 6.909 11.091 6.909H9.27195Z" fill="#EA5E5E"/>
<path d="M9.27193 7.636C9.17883 7.63111 9.09114 7.59069 9.02696 7.52305C8.96278 7.45542 8.927 7.36573 8.927 7.2725C8.927 7.17926 8.96278 7.08958 9.02696 7.02195C9.09114 6.95431 9.17883 6.91388 9.27193 6.90899H11.0909C11.1403 6.9064 11.1896 6.91389 11.236 6.93099C11.2823 6.94809 11.3247 6.97444 11.3606 7.00845C11.3964 7.04246 11.4249 7.08341 11.4444 7.1288C11.4639 7.1742 11.474 7.22309 11.474 7.2725C11.474 7.3219 11.4639 7.37079 11.4444 7.41619C11.4249 7.46158 11.3964 7.50253 11.3606 7.53654C11.3247 7.57055 11.2823 7.5969 11.236 7.614C11.1896 7.6311 11.1403 7.63859 11.0909 7.636H9.27193Z" fill="#F7BA3E"/>
<path d="M4.90891 4.727C4.8125 4.727 4.72005 4.68871 4.65188 4.62054C4.58371 4.55237 4.54541 4.45991 4.54541 4.3635C4.54541 4.2671 4.58371 4.17464 4.65188 4.10647C4.72005 4.0383 4.8125 4 4.90891 4H9.27191C9.36832 4 9.46077 4.0383 9.52894 4.10647C9.59711 4.17464 9.63541 4.2671 9.63541 4.3635C9.63541 4.45991 9.59711 4.55237 9.52894 4.62054C9.46077 4.68871 9.36832 4.727 9.27191 4.727H4.90891Z" fill="#56B3B4"/>
<path d="M9.64104 2H3.96404C3.83403 1.99877 3.70514 2.02407 3.58525 2.07436C3.46536 2.12465 3.35699 2.19886 3.26675 2.29246C3.17652 2.38606 3.10633 2.49709 3.06047 2.61874C3.01461 2.74039 2.99405 2.87012 3.00004 3V13C2.99405 13.1299 3.01461 13.2596 3.06047 13.3813C3.10633 13.5029 3.17652 13.6139 3.26675 13.7075C3.35699 13.8011 3.46536 13.8753 3.58525 13.9256C3.70514 13.9759 3.83403 14.0012 3.96404 14H11.964C12.2338 14.004 12.4942 13.9011 12.6883 13.7137C12.8825 13.5263 12.9945 13.2697 13 13V5L9.64104 2ZM12 13H4.00004V3H9.00004V6H12V13Z" fill="#4F575E"/>
</svg>
