<svg width="16" height="16" viewBox="0 0 16 16" fill="none" xmlns="http://www.w3.org/2000/svg">
<path d="M10.363 6.181C10.2699 6.17611 10.1822 6.13569 10.118 6.06805C10.0538 6.00042 10.0181 5.91074 10.0181 5.8175C10.0181 5.72427 10.0538 5.63457 10.118 5.56694C10.1822 5.49931 10.2699 5.45888 10.363 5.45399H10.728C10.8211 5.45888 10.9088 5.49931 10.973 5.56694C11.0371 5.63457 11.0729 5.72427 11.0729 5.8175C11.0729 5.91074 11.0371 6.00042 10.973 6.06805C10.9088 6.13569 10.8211 6.17611 10.728 6.181H10.363Z" fill="#56B3B4"/>
<path d="M4.90895 12C4.85961 12.0026 4.81026 11.9951 4.76391 11.978C4.71755 11.9609 4.67517 11.9345 4.63933 11.9005C4.60349 11.8665 4.57495 11.8256 4.55544 11.7802C4.53594 11.7348 4.52588 11.6859 4.52588 11.6365C4.52588 11.5871 4.53594 11.5382 4.55544 11.4928C4.57495 11.4474 4.60349 11.4065 4.63933 11.3724C4.67517 11.3384 4.71755 11.3121 4.76391 11.295C4.81026 11.2779 4.85961 11.2704 4.90895 11.273H6.72795C6.82106 11.2779 6.90875 11.3183 6.97292 11.3859C7.0371 11.4536 7.07288 11.5433 7.07288 11.6365C7.07288 11.7297 7.0371 11.8194 6.97292 11.8871C6.90875 11.9547 6.82106 11.9951 6.72795 12H4.90895Z" fill="#EA5E5E"/>
<path d="M9.27193 9.091C9.17883 9.08611 9.09114 9.04569 9.02696 8.97805C8.96278 8.91042 8.927 8.82073 8.927 8.72749C8.927 8.63425 8.96278 8.54457 9.02696 8.47694C9.09114 8.40931 9.17883 8.36888 9.27193 8.364H10.3629C10.4123 8.36141 10.4616 8.36888 10.508 8.38598C10.5543 8.40308 10.5967 8.42944 10.6326 8.46345C10.6684 8.49746 10.6969 8.5384 10.7164 8.5838C10.7359 8.62919 10.746 8.67808 10.746 8.72749C10.746 8.7769 10.7359 8.82579 10.7164 8.87118C10.6969 8.91658 10.6684 8.95753 10.6326 8.99154C10.5967 9.02555 10.5543 9.0519 10.508 9.069C10.4616 9.0861 10.4123 9.09359 10.3629 9.091H9.27193Z" fill="#BF85BF"/>
<path d="M7.09103 9.091C6.99792 9.08611 6.91023 9.04569 6.84605 8.97805C6.78188 8.91042 6.74609 8.82073 6.74609 8.72749C6.74609 8.63425 6.78188 8.54457 6.84605 8.47694C6.91023 8.40931 6.99792 8.36888 7.09103 8.364H8.54502C8.59436 8.36141 8.64371 8.36888 8.69006 8.38598C8.73642 8.40308 8.77881 8.42944 8.81465 8.46345C8.85049 8.49746 8.87903 8.5384 8.89854 8.5838C8.91804 8.62919 8.92809 8.67808 8.92809 8.72749C8.92809 8.7769 8.91804 8.82579 8.89854 8.87118C8.87903 8.91658 8.85049 8.95753 8.81465 8.99154C8.77881 9.02555 8.73642 9.0519 8.69006 9.069C8.64371 9.0861 8.59436 9.09359 8.54502 9.091H7.09103Z" fill="#EA5E5E"/>
<path d="M4.90895 9.091C4.85961 9.09359 4.81026 9.0861 4.76391 9.069C4.71755 9.0519 4.67517 9.02555 4.63933 8.99154C4.60349 8.95753 4.57495 8.91658 4.55544 8.87118C4.53594 8.82579 4.52588 8.7769 4.52588 8.72749C4.52588 8.67808 4.53594 8.62919 4.55544 8.5838C4.57495 8.5384 4.60349 8.49746 4.63933 8.46345C4.67517 8.42944 4.71755 8.40308 4.76391 8.38598C4.81026 8.36888 4.85961 8.36141 4.90895 8.364H6.36295C6.41229 8.36141 6.46164 8.36888 6.508 8.38598C6.55435 8.40308 6.59674 8.42944 6.63258 8.46345C6.66842 8.49746 6.69696 8.5384 6.71646 8.5838C6.73597 8.62919 6.74603 8.67808 6.74603 8.72749C6.74603 8.7769 6.73597 8.82579 6.71646 8.87118C6.69696 8.91658 6.66842 8.95753 6.63258 8.99154C6.59674 9.02555 6.55435 9.0519 6.508 9.069C6.46164 9.0861 6.41229 9.09359 6.36295 9.091H4.90895Z" fill="#56B3B4"/>
<path d="M4.90895 10.546C4.85961 10.5486 4.81026 10.5411 4.76391 10.524C4.71755 10.5069 4.67517 10.4806 4.63933 10.4465C4.60349 10.4125 4.57495 10.3716 4.55544 10.3262C4.53594 10.2808 4.52588 10.2319 4.52588 10.1825C4.52588 10.1331 4.53594 10.0842 4.55544 10.0388C4.57495 9.99341 4.60349 9.95246 4.63933 9.91845C4.67517 9.88445 4.71755 9.85808 4.76391 9.84098C4.81026 9.82389 4.85961 9.81641 4.90895 9.819H6.72795C6.82106 9.82388 6.90875 9.86431 6.97292 9.93194C7.0371 9.99958 7.07288 10.0893 7.07288 10.1825C7.07288 10.2757 7.0371 10.3654 6.97292 10.4331C6.90875 10.5007 6.82106 10.5411 6.72795 10.546H4.90895Z" fill="#BF85BF"/>
<path d="M4.90895 7.636C4.85961 7.63859 4.81026 7.63111 4.76391 7.61401C4.71755 7.59691 4.67517 7.57055 4.63933 7.53654C4.60349 7.50253 4.57495 7.46159 4.55544 7.41619C4.53594 7.3708 4.52588 7.32191 4.52588 7.2725C4.52588 7.2231 4.53594 7.17421 4.55544 7.12881C4.57495 7.08342 4.60349 7.04246 4.63933 7.00845C4.67517 6.97444 4.71755 6.94809 4.76391 6.931C4.81026 6.9139 4.85961 6.9064 4.90895 6.90899H6.72795C6.82106 6.91388 6.90875 6.9543 6.97292 7.02194C7.0371 7.08957 7.07288 7.17927 7.07288 7.2725C7.07288 7.36574 7.0371 7.45542 6.97292 7.52305C6.90875 7.59069 6.82106 7.63111 6.72795 7.636H4.90895Z" fill="#BF85BF"/>
<path d="M6.728 5.45399C6.63159 5.45399 6.53914 5.4157 6.47097 5.34753C6.4028 5.27936 6.3645 5.18691 6.3645 5.0905C6.3645 4.99409 6.4028 4.90164 6.47097 4.83347C6.53914 4.7653 6.63159 4.72701 6.728 4.72701H9.363C9.45941 4.72701 9.55186 4.7653 9.62003 4.83347C9.6882 4.90164 9.7265 4.99409 9.7265 5.0905C9.7265 5.18691 9.6882 5.27936 9.62003 5.34753C9.55186 5.4157 9.45941 5.45399 9.363 5.45399H6.728Z" fill="#F7BA3E"/>
<path d="M4.90891 5.45399C4.8125 5.45399 4.72005 5.4157 4.65188 5.34753C4.58371 5.27936 4.54541 5.18691 4.54541 5.0905C4.54541 4.99409 4.58371 4.90164 4.65188 4.83347C4.72005 4.7653 4.8125 4.72701 4.90891 4.72701H5.99991C6.09631 4.72701 6.18877 4.7653 6.25694 4.83347C6.32511 4.90164 6.36341 4.99409 6.36341 5.0905C6.36341 5.18691 6.32511 5.27936 6.25694 5.34753C6.18877 5.4157 6.09631 5.45399 5.99991 5.45399H4.90891Z" fill="#EA5E5E"/>
<path d="M6.36301 11.273C6.26661 11.273 6.17415 11.2347 6.10598 11.1665C6.03781 11.0984 5.99951 11.0059 5.99951 10.9095C5.99951 10.8131 6.03781 10.7206 6.10598 10.6525C6.17415 10.5843 6.26661 10.546 6.36301 10.546H6.72801C6.82442 10.546 6.91688 10.5843 6.98505 10.6525C7.05322 10.7206 7.09151 10.8131 7.09151 10.9095C7.09151 11.0059 7.05322 11.0984 6.98505 11.1665C6.91688 11.2347 6.82442 11.273 6.72801 11.273H6.36301Z" fill="#F7BA3E"/>
<path d="M6.36301 6.909C6.26661 6.909 6.17415 6.87071 6.10598 6.80254C6.03781 6.73437 5.99951 6.64191 5.99951 6.5455C5.99951 6.4491 6.03781 6.35664 6.10598 6.28847C6.17415 6.2203 6.26661 6.18201 6.36301 6.18201H6.72801C6.82442 6.18201 6.91688 6.2203 6.98505 6.28847C7.05322 6.35664 7.09151 6.4491 7.09151 6.5455C7.09151 6.64191 7.05322 6.73437 6.98505 6.80254C6.91688 6.87071 6.82442 6.909 6.72801 6.909H6.36301Z" fill="#56B3B4"/>
<path d="M4.90891 11.273C4.8125 11.273 4.72005 11.2347 4.65188 11.1665C4.58371 11.0984 4.54541 11.0059 4.54541 10.9095C4.54541 10.8131 4.58371 10.7206 4.65188 10.6525C4.72005 10.5843 4.8125 10.546 4.90891 10.546H5.63591C5.73232 10.546 5.82477 10.5843 5.89294 10.6525C5.96111 10.7206 5.9994 10.8131 5.9994 10.9095C5.9994 11.0059 5.96111 11.0984 5.89294 11.1665C5.82477 11.2347 5.73232 11.273 5.63591 11.273H4.90891Z" fill="#56B3B4"/>
<path d="M4.90891 6.909C4.8125 6.909 4.72005 6.87071 4.65188 6.80254C4.58371 6.73437 4.54541 6.64191 4.54541 6.5455C4.54541 6.4491 4.58371 6.35664 4.65188 6.28847C4.72005 6.2203 4.8125 6.18201 4.90891 6.18201H5.63591C5.73232 6.18201 5.82477 6.2203 5.89294 6.28847C5.96111 6.35664 5.9994 6.4491 5.9994 6.5455C5.9994 6.64191 5.96111 6.73437 5.89294 6.80254C5.82477 6.87071 5.73232 6.909 5.63591 6.909H4.90891Z" fill="#F7BA3E"/>
<path d="M7.81786 8.364C7.72132 8.364 7.62873 8.32565 7.56047 8.25739C7.49221 8.18912 7.45386 8.09654 7.45386 8C7.45386 7.90346 7.49221 7.81088 7.56047 7.74261C7.62873 7.67435 7.72132 7.636 7.81786 7.636H10.7279C10.8244 7.636 10.917 7.67435 10.9852 7.74261C11.0535 7.81088 11.0919 7.90346 11.0919 8C11.0919 8.09654 11.0535 8.18912 10.9852 8.25739C10.917 8.32565 10.8244 8.364 10.7279 8.364H7.81786Z" fill="#56B3B4"/>
<path d="M5.99998 8.364C5.90345 8.364 5.81086 8.32565 5.7426 8.25739C5.67434 8.18912 5.63599 8.09654 5.63599 8C5.63599 7.90346 5.67434 7.81088 5.7426 7.74261C5.81086 7.67435 5.90345 7.636 5.99998 7.636H7.09099C7.18753 7.636 7.28011 7.67435 7.34837 7.74261C7.41664 7.81088 7.45499 7.90346 7.45499 8C7.45499 8.09654 7.41664 8.18912 7.34837 8.25739C7.28011 8.32565 7.18753 8.364 7.09099 8.364H5.99998Z" fill="#F7BA3E"/>
<path d="M4.90892 8.364C4.81238 8.364 4.7198 8.32565 4.65154 8.25739C4.58327 8.18912 4.54492 8.09654 4.54492 8C4.54492 7.90346 4.58327 7.81088 4.65154 7.74261C4.7198 7.67435 4.81238 7.636 4.90892 7.636H5.27193C5.36847 7.636 5.46105 7.67435 5.52931 7.74261C5.59758 7.81088 5.63593 7.90346 5.63593 8C5.63593 8.09654 5.59758 8.18912 5.52931 8.25739C5.46105 8.32565 5.36847 8.364 5.27193 8.364H4.90892Z" fill="#EA5E5E"/>
<path d="M8.1819 6.181C8.13256 6.18358 8.08321 6.17611 8.03686 6.15901C7.9905 6.14191 7.94812 6.11555 7.91228 6.08154C7.87644 6.04753 7.8479 6.00659 7.82839 5.96119C7.80889 5.9158 7.79883 5.86691 7.79883 5.8175C7.79883 5.76809 7.80889 5.7192 7.82839 5.67381C7.8479 5.62841 7.87644 5.58746 7.91228 5.55345C7.94812 5.51944 7.9905 5.49309 8.03686 5.47599C8.08321 5.4589 8.13256 5.4514 8.1819 5.45399H9.6359C9.68524 5.4514 9.73459 5.4589 9.78094 5.47599C9.8273 5.49309 9.86969 5.51944 9.90553 5.55345C9.94136 5.58746 9.96991 5.62841 9.98941 5.67381C10.0089 5.7192 10.019 5.76809 10.019 5.8175C10.019 5.86691 10.0089 5.9158 9.98941 5.96119C9.96991 6.00659 9.94136 6.04753 9.90553 6.08154C9.86969 6.11555 9.8273 6.14191 9.78094 6.15901C9.73459 6.17611 9.68524 6.18358 9.6359 6.181H8.1819Z" fill="#BF85BF"/>
<path d="M4.90895 6.181C4.85961 6.18358 4.81026 6.17611 4.76391 6.15901C4.71755 6.14191 4.67517 6.11555 4.63933 6.08154C4.60349 6.04753 4.57495 6.00659 4.55544 5.96119C4.53594 5.9158 4.52588 5.86691 4.52588 5.8175C4.52588 5.76809 4.53594 5.7192 4.55544 5.67381C4.57495 5.62841 4.60349 5.58746 4.63933 5.55345C4.67517 5.51944 4.71755 5.49309 4.76391 5.47599C4.81026 5.4589 4.85961 5.4514 4.90895 5.45399H7.45496C7.54807 5.45888 7.63575 5.4993 7.69993 5.56694C7.76411 5.63457 7.79988 5.72426 7.79988 5.8175C7.79988 5.91074 7.76411 6.00042 7.69993 6.06805C7.63575 6.13568 7.54807 6.17611 7.45496 6.181H4.90895Z" fill="#56B3B4"/>
<path d="M5.99998 9.81799C5.90357 9.81799 5.81111 9.7797 5.74294 9.71153C5.67477 9.64336 5.63647 9.5509 5.63647 9.4545C5.63647 9.35809 5.67477 9.26563 5.74294 9.19746C5.81111 9.12929 5.90357 9.091 5.99998 9.091H9.27198C9.36839 9.091 9.46084 9.12929 9.52901 9.19746C9.59718 9.26563 9.63548 9.35809 9.63548 9.4545C9.63548 9.5509 9.59718 9.64336 9.52901 9.71153C9.46084 9.7797 9.36839 9.81799 9.27198 9.81799H5.99998Z" fill="#F7BA3E"/>
<path d="M4.90891 9.81799C4.8125 9.81799 4.72005 9.7797 4.65188 9.71153C4.58371 9.64336 4.54541 9.5509 4.54541 9.4545C4.54541 9.35809 4.58371 9.26563 4.65188 9.19746C4.72005 9.12929 4.8125 9.091 4.90891 9.091H5.27191C5.36832 9.091 5.46077 9.12929 5.52894 9.19746C5.59711 9.26563 5.63541 9.35809 5.63541 9.4545C5.63541 9.5509 5.59711 9.64336 5.52894 9.71153C5.46077 9.7797 5.36832 9.81799 5.27191 9.81799H4.90891Z" fill="#BF85BF"/>
<path d="M9.27195 6.909C9.17554 6.909 9.08308 6.87071 9.01492 6.80254C8.94675 6.73437 8.90845 6.64191 8.90845 6.5455C8.90845 6.4491 8.94675 6.35664 9.01492 6.28847C9.08308 6.2203 9.17554 6.18201 9.27195 6.18201H11.091C11.1874 6.18201 11.2798 6.2203 11.348 6.28847C11.4161 6.35664 11.4544 6.4491 11.4544 6.5455C11.4544 6.64191 11.4161 6.73437 11.348 6.80254C11.2798 6.87071 11.1874 6.909 11.091 6.909H9.27195Z" fill="#EA5E5E"/>
<path d="M9.27193 7.636C9.17883 7.63111 9.09114 7.59069 9.02696 7.52305C8.96278 7.45542 8.927 7.36574 8.927 7.2725C8.927 7.17927 8.96278 7.08957 9.02696 7.02194C9.09114 6.9543 9.17883 6.91388 9.27193 6.90899H11.0909C11.1403 6.9064 11.1896 6.9139 11.236 6.931C11.2823 6.94809 11.3247 6.97444 11.3606 7.00845C11.3964 7.04246 11.4249 7.08342 11.4444 7.12881C11.4639 7.17421 11.474 7.2231 11.474 7.2725C11.474 7.32191 11.4639 7.3708 11.4444 7.41619C11.4249 7.46159 11.3964 7.50253 11.3606 7.53654C11.3247 7.57055 11.2823 7.59691 11.236 7.61401C11.1896 7.63111 11.1403 7.63859 11.0909 7.636H9.27193Z" fill="#F7BA3E"/>
<path d="M4.90895 4.727C4.85961 4.72959 4.81026 4.7221 4.76391 4.705C4.71755 4.6879 4.67517 4.66155 4.63933 4.62754C4.60349 4.59354 4.57495 4.55258 4.55544 4.50718C4.53594 4.46179 4.52588 4.4129 4.52588 4.36349C4.52588 4.31408 4.53594 4.26519 4.55544 4.2198C4.57495 4.1744 4.60349 4.13346 4.63933 4.09945C4.67517 4.06544 4.71755 4.03908 4.76391 4.02198C4.81026 4.00489 4.85961 3.99741 4.90895 4H9.27196C9.3213 3.99741 9.37065 4.00489 9.417 4.02198C9.46335 4.03908 9.50574 4.06544 9.54158 4.09945C9.57742 4.13346 9.60596 4.1744 9.62547 4.2198C9.64497 4.26519 9.65503 4.31408 9.65503 4.36349C9.65503 4.4129 9.64497 4.46179 9.62547 4.50718C9.60596 4.55258 9.57742 4.59354 9.54158 4.62754C9.50574 4.66155 9.46335 4.6879 9.417 4.705C9.37065 4.7221 9.3213 4.72959 9.27196 4.727H4.90895Z" fill="#56B3B4"/>
<path d="M9.5 3V5.5H12M4.5 13.5H11.5C12.0523 13.5 12.5 13.0523 12.5 12.5V5.70711C12.5 5.5745 12.4473 5.44732 12.3536 5.35355L9.64645 2.64645C9.55268 2.55268 9.4255 2.5 9.29289 2.5H4.5C3.94772 2.5 3.5 2.94771 3.5 3.5V12.5C3.5 13.0523 3.94772 13.5 4.5 13.5Z" stroke="#4F575E"/>
</svg>
