<svg xmlns="http://www.w3.org/2000/svg" viewBox="0 0 16 16"><defs><style>.a{fill:#56b3b4;}.b{fill:#ea5e5e;}.c{fill:#bf85bf;}.d{fill:#f7ba3e;}.e{fill:#7c868d;}</style></defs><title>file-prettier-dark</title><path class="a" d="M10.36,6.18A.36.36,0,0,1,10,5.82a.37.37,0,0,1,.36-.37h.37a.37.37,0,0,1,.36.37.36.36,0,0,1-.36.36Z"/><path class="b" d="M4.91,12a.36.36,0,0,1-.36-.36.37.37,0,0,1,.36-.37H6.73a.37.37,0,0,1,.36.37.36.36,0,0,1-.36.36Z"/><path class="c" d="M9.27,9.09a.36.36,0,0,1-.36-.36.37.37,0,0,1,.36-.37h1.09a.38.38,0,0,1,.37.37.37.37,0,0,1-.37.36Z"/><path class="b" d="M7.09,9.09a.36.36,0,0,1-.36-.36.37.37,0,0,1,.36-.37H8.55a.37.37,0,0,1,.36.37.36.36,0,0,1-.36.36Z"/><path class="a" d="M4.91,9.09a.36.36,0,0,1-.36-.36.37.37,0,0,1,.36-.37H6.36a.38.38,0,0,1,.37.37.37.37,0,0,1-.37.36Z"/><path class="c" d="M4.91,10.55a.37.37,0,0,1-.36-.37.36.36,0,0,1,.36-.36H6.73a.36.36,0,0,1,.36.36.37.37,0,0,1-.36.37Z"/><path class="c" d="M4.91,7.64a.37.37,0,0,1-.36-.37.36.36,0,0,1,.36-.36H6.73a.36.36,0,0,1,.36.36.37.37,0,0,1-.36.37Z"/><path class="d" d="M6.73,5.45a.36.36,0,1,1,0-.72h3.63a.36.36,0,1,1,0,.72Z"/><path class="b" d="M4.91,5.45a.36.36,0,1,1,0-.72H6a.36.36,0,1,1,0,.72Z"/><path class="d" d="M6.36,11.27a.36.36,0,1,1,0-.72h.37a.36.36,0,0,1,0,.72Z"/><path class="a" d="M6.36,6.91A.36.36,0,0,1,6,6.55a.37.37,0,0,1,.36-.37h.37a.37.37,0,0,1,.36.37.36.36,0,0,1-.36.36Z"/><path class="a" d="M4.91,11.27a.36.36,0,0,1,0-.72h.73a.36.36,0,1,1,0,.72Z"/><path class="d" d="M4.91,6.91a.36.36,0,0,1-.36-.36.37.37,0,0,1,.36-.37h.73A.37.37,0,0,1,6,6.55a.36.36,0,0,1-.36.36Z"/><path class="a" d="M7.82,8.36a.36.36,0,1,1,0-.72h2.91a.36.36,0,1,1,0,.72Z"/><path class="d" d="M6,8.36a.36.36,0,0,1,0-.72H7.09a.36.36,0,0,1,0,.72Z"/><path class="b" d="M4.91,8.36a.36.36,0,0,1,0-.72h.36a.36.36,0,1,1,0,.72Z"/><path class="c" d="M8.18,6.18a.36.36,0,0,1-.36-.36.37.37,0,0,1,.36-.37H9.64a.37.37,0,0,1,.36.37.36.36,0,0,1-.36.36Z"/><path class="a" d="M4.91,6.18a.36.36,0,0,1-.36-.36.37.37,0,0,1,.36-.37H7.45a.37.37,0,0,1,.37.37.36.36,0,0,1-.37.36Z"/><path class="d" d="M6,9.82a.37.37,0,0,1-.36-.37A.36.36,0,0,1,6,9.09H9.27a.37.37,0,0,1,.37.36.38.38,0,0,1-.37.37Z"/><path class="c" d="M4.91,9.82a.37.37,0,0,1-.36-.37.36.36,0,0,1,.36-.36h.36a.37.37,0,0,1,.37.36.38.38,0,0,1-.37.37Z"/><path class="b" d="M9.27,6.91a.36.36,0,0,1-.36-.36.37.37,0,0,1,.36-.37h1.82a.37.37,0,0,1,.36.37.36.36,0,0,1-.36.36Z"/><path class="d" d="M9.27,7.64a.37.37,0,0,1-.36-.37.36.36,0,0,1,.36-.36h1.82a.36.36,0,0,1,.36.36.37.37,0,0,1-.36.37Z"/><path class="a" d="M4.91,4.73a.37.37,0,0,1-.36-.37A.36.36,0,0,1,4.91,4H9.27a.37.37,0,0,1,.37.36.38.38,0,0,1-.37.37Z"/><path class="e" d="M9.64,2H4A1,1,0,0,0,3,3V13a1,1,0,0,0,1,1h8a1,1,0,0,0,1-1V5ZM12,13H4V3H9V6h3Z"/></svg>