<svg width="16" height="16" viewBox="0 0 16 16" fill="none" xmlns="http://www.w3.org/2000/svg">
<path fill-rule="evenodd" clip-rule="evenodd" d="M9.56066 3.14645C9.65443 3.05268 9.7816 3 9.91421 3H13.5C13.7761 3 14 3.22386 14 3.5V6H9.91421C9.7816 6 9.65443 5.94732 9.56066 5.85355L9.14645 5.43934C8.86514 5.15804 8.48361 5 8.08579 5H2V4.5C2 4.22386 2.22386 4 2.5 4H8.08579C8.48361 4 8.86514 3.84196 9.14645 3.56066L9.56066 3.14645ZM11.5 7H14V7.75777C14.3776 8.01056 14.7149 8.31899 15 8.67133V3.5C15 2.67157 14.3284 2 13.5 2H9.91421C9.51639 2 9.13486 2.15803 8.85355 2.43934L8.43934 2.85355C8.34557 2.94732 8.21839 3 8.08579 3H2.5C1.67157 3 1 3.67157 1 4.5V12.5C1 13.3284 1.67157 14 2.5 14H7.75777C7.55127 13.6915 7.3819 13.356 7.25606 13H2.5C2.22386 13 2 12.7761 2 12.5V6H8.08579C8.21839 6 8.34557 6.05268 8.43934 6.14645L8.85355 6.56066C9.13486 6.84197 9.51639 7 9.91421 7H11.5Z" fill="#4F575E"/>
<path d="M11.5901 8C9.95325 8 8.58253 9.11787 8.1966 10.635C8.1966 10.6483 8.18994 10.6549 8.18994 10.6683C8.18994 10.7614 8.26314 10.8346 8.35629 10.8346H9.76694C9.83348 10.8346 9.89336 10.7947 9.91998 10.7348C10.2128 10.1027 10.8449 9.6635 11.5901 9.6635C12.6015 9.6635 13.4266 10.4886 13.4266 11.5C13.4266 12.5114 12.6015 13.3365 11.5901 13.3365C10.8515 13.3365 10.2128 12.8973 9.91998 12.2652C9.89336 12.2053 9.83348 12.1654 9.76694 12.1654H8.35629C8.26314 12.1654 8.18994 12.2386 8.18994 12.3317C8.18994 12.3451 8.18994 12.3517 8.1966 12.365C8.58253 13.8821 9.95325 15 11.5901 15C13.5264 15 15.0968 13.4297 15.0968 11.4933C15.0968 9.56369 13.5264 8 11.5901 8Z" fill="#9F4700"/>
<path d="M11.59 10.6683C11.1309 10.6683 10.7583 11.0409 10.7583 11.5C10.7583 11.9591 11.1309 12.3384 11.59 12.3317C12.0492 12.3317 12.4218 11.9591 12.4218 11.5C12.4218 11.0409 12.0492 10.6683 11.59 10.6683Z" fill="#9F4700"/>
</svg>
