<svg width="16" height="16" viewBox="0 0 16 16" fill="none" xmlns="http://www.w3.org/2000/svg">
<path d="M11.4002 8C9.76331 8 8.39259 9.11787 8.00665 10.635C8.00665 10.6483 8 10.6549 8 10.6683C8 10.7614 8.07319 10.8346 8.16635 10.8346H9.577C9.64354 10.8346 9.70342 10.7947 9.73004 10.7348C10.0228 10.1027 10.6549 9.6635 11.4002 9.6635C12.4116 9.6635 13.2367 10.4886 13.2367 11.5C13.2367 12.5114 12.4116 13.3365 11.4002 13.3365C10.6616 13.3365 10.0228 12.8973 9.73004 12.2652C9.70342 12.2053 9.64354 12.1654 9.577 12.1654H8.16635C8.07319 12.1654 8 12.2386 8 12.3317C8 12.3451 8 12.3517 8.00665 12.365C8.39259 13.8821 9.76331 15 11.4002 15C13.3365 15 14.9068 13.4297 14.9068 11.4933C14.9068 9.56369 13.3365 8 11.4002 8Z" fill="#DA7300"/>
<path d="M11.4001 10.6683C10.941 10.6683 10.5684 11.0409 10.5684 11.5C10.5684 11.9591 10.941 12.3384 11.4001 12.3317C11.8592 12.3317 12.2319 11.9591 12.2319 11.5C12.2319 11.0409 11.8592 10.6683 11.4001 10.6683Z" fill="#DA7300"/>
<path fill-rule="evenodd" clip-rule="evenodd" d="M14.386 2.07028C14.2634 2.02104 14.1321 1.99714 14 2H7.5L6.5 4H3C3.02052 4 3.02991 4 3.02995 4.00066C3.03044 4.00756 2 4.08694 2 5V8H0L3 13H7.25606C7.09023 12.5308 7 12.026 7 11.5C7 10.0864 7.65183 8.82498 8.67133 8H3V5H7L8 3H14V7.75777C14.3776 8.01056 14.7149 8.31899 15 8.67133V3C15.0029 2.86789 14.979 2.73657 14.9297 2.61395C14.8805 2.49133 14.8069 2.37995 14.7135 2.28651C14.6201 2.19308 14.5087 2.11952 14.386 2.07028Z" fill="#7C868D"/>
</svg>
