<svg width="16" height="16" viewBox="0 0 16 16" fill="none" xmlns="http://www.w3.org/2000/svg">
<path d="M11.4002 8C9.76331 8 8.39259 9.11787 8.00665 10.635C8.00665 10.6483 8 10.6549 8 10.6683C8 10.7614 8.07319 10.8346 8.16635 10.8346H9.577C9.64354 10.8346 9.70342 10.7947 9.73004 10.7348C10.0228 10.1027 10.6549 9.6635 11.4002 9.6635C12.4116 9.6635 13.2367 10.4886 13.2367 11.5C13.2367 12.5114 12.4116 13.3365 11.4002 13.3365C10.6616 13.3365 10.0228 12.8973 9.73004 12.2652C9.70342 12.2053 9.64354 12.1654 9.577 12.1654H8.16635C8.07319 12.1654 8 12.2386 8 12.3317C8 12.3451 8 12.3517 8.00665 12.365C8.39259 13.8821 9.76331 15 11.4002 15C13.3365 15 14.9068 13.4297 14.9068 11.4933C14.9068 9.56369 13.3365 8 11.4002 8Z" fill="#DA7300"/>
<path d="M11.4001 10.6683C10.941 10.6683 10.5684 11.0409 10.5684 11.5C10.5684 11.9591 10.941 12.3384 11.4001 12.3317C11.8592 12.3317 12.2319 11.9591 12.2319 11.5C12.2319 11.0409 11.8592 10.6683 11.4001 10.6683Z" fill="#DA7300"/>
<path fill-rule="evenodd" clip-rule="evenodd" d="M15.0001 8.67146V2.5C15.0001 2.36739 14.9474 2.24021 14.8537 2.14645C14.7599 2.05268 14.6327 2 14.5001 2H7.0111L6.0111 4H2.5061C2.3735 4 2.24632 4.05268 2.15255 4.14645C2.05878 4.24021 2.0061 4.36739 2.0061 4.5V12.5C2.0061 12.6326 2.05878 12.7598 2.15255 12.8536C2.24632 12.9473 2.3735 13 2.5061 13H7.25606C7.09023 12.5308 7 12.026 7 11.5C7 9.01472 9.01472 7 11.5 7C12.9137 7 14.1751 7.65189 15.0001 8.67146ZM14.0061 3V4H7.5111L8.0111 3H14.0061Z" fill="#7C868D"/>
</svg>
