<svg width="16" height="16" viewBox="0 0 16 16" fill="none" xmlns="http://www.w3.org/2000/svg">
<path d="M11.5901 8C9.95325 8 8.58253 9.11787 8.1966 10.635C8.1966 10.6483 8.18994 10.6549 8.18994 10.6683C8.18994 10.7614 8.26314 10.8346 8.35629 10.8346H9.76694C9.83348 10.8346 9.89336 10.7947 9.91998 10.7348C10.2128 10.1027 10.8449 9.6635 11.5901 9.6635C12.6015 9.6635 13.4266 10.4886 13.4266 11.5C13.4266 12.5114 12.6015 13.3365 11.5901 13.3365C10.8515 13.3365 10.2128 12.8973 9.91998 12.2652C9.89336 12.2053 9.83348 12.1654 9.76694 12.1654H8.35629C8.26314 12.1654 8.18994 12.2386 8.18994 12.3317C8.18994 12.3451 8.18994 12.3517 8.1966 12.365C8.58253 13.8821 9.95325 15 11.5901 15C13.5264 15 15.0968 13.4297 15.0968 11.4933C15.0968 9.56369 13.5264 8 11.5901 8Z" fill="#AC4D00"/>
<path d="M11.59 10.6683C11.1309 10.6683 10.7583 11.0409 10.7583 11.5C10.7583 11.9591 11.1309 12.3384 11.59 12.3317C12.0492 12.3317 12.4218 11.9591 12.4218 11.5C12.4218 11.0409 12.0492 10.6683 11.59 10.6683Z" fill="#AC4D00"/>
<path fill-rule="evenodd" clip-rule="evenodd" d="M14.386 2.07028C14.2634 2.02104 14.1321 1.99714 14 2H7.5L6.5 4H3C3.02052 4 3.02991 4 3.02995 4.00066C3.03044 4.00756 2 4.08694 2 5V8H0L3 13H7.25606C7.09023 12.5308 7 12.026 7 11.5C7 10.0864 7.65183 8.82498 8.67133 8H3V5H7L8 3H14V7.75777C14.3776 8.01056 14.7149 8.31899 15 8.67133V3C15.0029 2.86789 14.979 2.73657 14.9297 2.61395C14.8805 2.49133 14.8069 2.37995 14.7135 2.28651C14.6201 2.19308 14.5087 2.11952 14.386 2.07028Z" fill="#4F575E"/>
</svg>
