<svg width="16" height="16" viewBox="0 0 16 16" fill="none" xmlns="http://www.w3.org/2000/svg">
<path fill-rule="evenodd" clip-rule="evenodd" d="M9.91421 3C9.7816 3 9.65443 3.05268 9.56066 3.14645L9.14645 3.56066C8.86514 3.84196 8.48361 4 8.08579 4H2.5C2.22386 4 2 4.22386 2 4.5V5H8.08579C8.48361 5 8.86514 5.15804 9.14645 5.43934L9.56066 5.85355C9.65443 5.94732 9.7816 6 9.91421 6H14V3.5C14 3.22386 13.7761 3 13.5 3H9.91421ZM14 7H9.91421C9.51639 7 9.13486 6.84197 8.85355 6.56066L8.43934 6.14645C8.34557 6.05268 8.21839 6 8.08579 6H2V12.5C2 12.7761 2.22386 13 2.5 13H13.5C13.7761 13 14 12.7761 14 12.5V7ZM8.85355 2.43934C9.13486 2.15803 9.51639 2 9.91421 2H13.5C14.3284 2 15 2.67157 15 3.5V12.5C15 13.3284 14.3284 14 13.5 14H2.5C1.67157 14 1 13.3284 1 12.5V4.5C1 3.67157 1.67157 3 2.5 3H8.08579C8.21839 3 8.34557 2.94732 8.43934 2.85355L8.85355 2.43934Z" fill="#949CA3"/>
</svg>
