<svg width="16" height="16" viewBox="0 0 16 16" fill="none" xmlns="http://www.w3.org/2000/svg">
<path fill-rule="evenodd" clip-rule="evenodd" d="M9.56055 3.14645C9.65432 3.05268 9.78149 3 9.9141 3H13.4999C13.776 3 13.9999 3.22386 13.9999 3.5V8.70505C14.2421 8.74015 14.4815 8.81382 14.709 8.92754C14.8109 8.97852 14.9081 9.03636 14.9999 9.10034V3.5C14.9999 2.67157 14.3283 2 13.4999 2H9.9141C9.51628 2 9.13475 2.15803 8.85344 2.43934L8.43923 2.85355C8.34546 2.94732 8.21828 3 8.08568 3H3.49989C2.67146 3 1.99989 3.67157 1.99989 4.5V6H1.82562C0.829051 6 0.109556 6.95386 0.383334 7.91208L1.81191 12.9121C1.99589 13.556 2.58447 14 3.25419 14H5.99986C5.99982 13.9946 5.9998 13.9893 5.9998 13.9839V13H3.25419C3.03095 13 2.83476 12.852 2.77343 12.6374L1.34486 7.63736C1.2536 7.31795 1.49343 7 1.82562 7H2.49989H6.58568C6.71828 7 6.84546 7.05268 6.93923 7.14645L7.35344 7.56066C7.63475 7.84197 8.01628 8 8.4141 8H12.2191C12.4485 8 12.6485 8.15615 12.7042 8.37873L12.8193 8.83931C13.1348 8.7169 13.4737 8.66433 13.8117 8.68554L13.6743 8.1362C13.5074 7.46845 12.9074 7 12.2191 7H8.4141C8.2815 7 8.15432 6.94732 8.06055 6.85355L7.64634 6.43934C7.36503 6.15804 6.9835 6 6.58568 6H2.99989V4.5C2.99989 4.22386 3.22375 4 3.49989 4H8.08568C8.4835 4 8.86503 3.84196 9.14634 3.56066L9.56055 3.14645Z" fill="#4F575E"/>
<path d="M9.5 11L8.92561 10.4256C8.67144 10.1714 8.28314 10.1084 7.96164 10.2692V10.2692C7.67871 10.4106 7.5 10.6998 7.5 11.0161V13.9839C7.5 14.3002 7.67871 14.5894 7.96164 14.7308V14.7308C8.28314 14.8916 8.67144 14.8286 8.92561 14.5744L13.0744 10.4256C13.3286 10.1714 13.7169 10.1084 14.0384 10.2692V10.2692C14.3213 10.4106 14.5 10.6998 14.5 11.0161V13.9839C14.5 14.3002 14.3213 14.5894 14.0384 14.7308V14.7308C13.7169 14.8916 13.3286 14.8286 13.0744 14.5744L12.5 14" stroke="#1862AB" stroke-linecap="round" stroke-linejoin="round"/>
</svg>
