<svg width="16" height="16" viewBox="0 0 16 16" fill="none" xmlns="http://www.w3.org/2000/svg">
<path d="M15.0001 2.5V12.5C15.0001 12.6326 14.9474 12.7598 14.8537 12.8536C14.7599 12.9473 14.6327 13 14.5001 13H2.5061C2.3735 13 2.24632 12.9473 2.15255 12.8536C2.05878 12.7598 2.0061 12.6326 2.0061 12.5V4.5C2.0061 4.36739 2.05878 4.24021 2.15255 4.14645C2.24632 4.05268 2.3735 4 2.5061 4H6.0111L7.0111 2H14.5001C14.6327 2 14.7599 2.05268 14.8537 2.14645C14.9474 2.24021 15.0001 2.36739 15.0001 2.5ZM14.0061 4V3H8.0111L7.5111 4H14.0061Z" fill="#7C868D"/>
</svg>
