<svg width="16" height="16" viewBox="0 0 16 16" fill="none" xmlns="http://www.w3.org/2000/svg">
<path fill-rule="evenodd" clip-rule="evenodd" d="M9.56079 3.14645C9.65456 3.05268 9.78174 3 9.91435 3H13.5001C13.7763 3 14.0001 3.22386 14.0001 3.5V7.75777C14.3778 8.01056 14.715 8.31899 15.0001 8.67133V3.5C15.0001 2.67157 14.3286 2 13.5001 2H9.91435C9.51652 2 9.13499 2.15803 8.85369 2.43934L8.43947 2.85355C8.34571 2.94732 8.21853 3 8.08592 3H3.50013C2.67171 3 2.00013 3.67157 2.00013 4.5V6H1.82586C0.829295 6 0.1098 6.95386 0.383578 7.91208L1.81215 12.9121C1.99614 13.556 2.58471 14 3.25443 14H7.75791C7.5514 13.6915 7.38203 13.356 7.25619 13H3.25443C3.03119 13 2.835 12.852 2.77367 12.6374L1.3451 7.63736C1.25384 7.31795 1.49367 7 1.82586 7H2.50013H6.58592C6.71853 7 6.84571 7.05268 6.93947 7.14645L7.35369 7.56066C7.63499 7.84197 8.01652 8 8.41435 8H8.67147C9.44383 7.37501 10.4272 7.00049 11.498 7H8.41435C8.28174 7 8.15456 6.94732 8.06079 6.85355L7.64658 6.43934C7.36528 6.15804 6.98374 6 6.58592 6H3.00013V4.5C3.00013 4.22386 3.22399 4 3.50013 4H8.08592C8.48374 4 8.86528 3.84196 9.14658 3.56066L9.56079 3.14645ZM11.5022 7C12.0724 7.00026 12.6178 7.10656 13.1197 7.30024C12.8666 7.11034 12.5534 7 12.2194 7H11.5022Z" fill="#4F575E"/>
<path d="M11.5901 8C9.95325 8 8.58253 9.11787 8.1966 10.635C8.1966 10.6483 8.18994 10.6549 8.18994 10.6683C8.18994 10.7614 8.26314 10.8346 8.35629 10.8346H9.76694C9.83348 10.8346 9.89336 10.7947 9.91998 10.7348C10.2128 10.1027 10.8449 9.6635 11.5901 9.6635C12.6015 9.6635 13.4266 10.4886 13.4266 11.5C13.4266 12.5114 12.6015 13.3365 11.5901 13.3365C10.8515 13.3365 10.2128 12.8973 9.91998 12.2652C9.89336 12.2053 9.83348 12.1654 9.76694 12.1654H8.35629C8.26314 12.1654 8.18994 12.2386 8.18994 12.3317C8.18994 12.3451 8.18994 12.3517 8.1966 12.365C8.58253 13.8821 9.95325 15 11.5901 15C13.5264 15 15.0968 13.4297 15.0968 11.4933C15.0968 9.56369 13.5264 8 11.5901 8Z" fill="#9F4700"/>
<path d="M11.59 10.6683C11.1309 10.6683 10.7583 11.0409 10.7583 11.5C10.7583 11.9591 11.1309 12.3384 11.59 12.3317C12.0492 12.3317 12.4218 11.9591 12.4218 11.5C12.4218 11.0409 12.0492 10.6683 11.59 10.6683Z" fill="#9F4700"/>
</svg>
