<svg width="16" height="16" viewBox="0 0 16 16" fill="none" xmlns="http://www.w3.org/2000/svg">
<path fill-rule="evenodd" clip-rule="evenodd" d="M9.56066 3.14645C9.65443 3.05268 9.7816 3 9.91421 3H13.5C13.7761 3 14 3.22386 14 3.5V6H9.91421C9.7816 6 9.65443 5.94732 9.56066 5.85355L9.14645 5.43934C8.86514 5.15804 8.48361 5 8.08579 5H2V4.5C2 4.22386 2.22386 4 2.5 4H8.08579C8.48361 4 8.86514 3.84196 9.14645 3.56066L9.56066 3.14645ZM11.5 7H14V7.75777C14.3776 8.01056 14.7149 8.31899 15 8.67133V3.5C15 2.67157 14.3284 2 13.5 2H9.91421C9.51639 2 9.13486 2.15803 8.85355 2.43934L8.43934 2.85355C8.34557 2.94732 8.21839 3 8.08579 3H2.5C1.67157 3 1 3.67157 1 4.5V12.5C1 13.3284 1.67157 14 2.5 14H7.75777C7.55127 13.6915 7.3819 13.356 7.25606 13H2.5C2.22386 13 2 12.7761 2 12.5V6H8.08579C8.21839 6 8.34557 6.05268 8.43934 6.14645L8.85355 6.56066C9.13486 6.84197 9.51639 7 9.91421 7H11.5Z" fill="#949CA3"/>
<path d="M11.4002 8C9.76331 8 8.39259 9.11787 8.00665 10.635C8.00665 10.6483 8 10.6549 8 10.6683C8 10.7614 8.07319 10.8346 8.16635 10.8346H9.577C9.64354 10.8346 9.70342 10.7947 9.73004 10.7348C10.0228 10.1027 10.6549 9.6635 11.4002 9.6635C12.4116 9.6635 13.2367 10.4886 13.2367 11.5C13.2367 12.5114 12.4116 13.3365 11.4002 13.3365C10.6616 13.3365 10.0228 12.8973 9.73004 12.2652C9.70342 12.2053 9.64354 12.1654 9.577 12.1654H8.16635C8.07319 12.1654 8 12.2386 8 12.3317C8 12.3451 8 12.3517 8.00665 12.365C8.39259 13.8821 9.76331 15 11.4002 15C13.3365 15 14.9068 13.4297 14.9068 11.4933C14.9068 9.56369 13.3365 8 11.4002 8Z" fill="#F88A10"/>
<path d="M11.4001 10.6683C10.941 10.6683 10.5684 11.0409 10.5684 11.5C10.5684 11.9591 10.941 12.3384 11.4001 12.3317C11.8592 12.3317 12.2319 11.9591 12.2319 11.5C12.2319 11.0409 11.8592 10.6683 11.4001 10.6683Z" fill="#F88A10"/>
</svg>
