<svg width="16" height="16" viewBox="0 0 16 16" fill="none" xmlns="http://www.w3.org/2000/svg">
<path d="M14 2C14.1321 1.99714 14.2634 2.02104 14.386 2.07028C14.5087 2.11952 14.6201 2.19308 14.7135 2.28651C14.8069 2.37995 14.8805 2.49133 14.9297 2.61395C14.979 2.73657 15.0029 2.86789 15 3V12C15.0033 12.1315 14.9795 12.2622 14.9302 12.3841C14.8809 12.5061 14.8071 12.6166 14.7133 12.7088C14.6196 12.801 14.5079 12.8731 14.3852 12.9204C14.2625 12.9677 14.1314 12.9894 14 12.984V3H8L7 5H3V8H11L14 13H3L0 8H2V5C2 4 3.236 4 3 4H6.5L7.5 2H14Z" fill="#4F575E"/>
</svg>
