<svg width="16" height="16" viewBox="0 0 16 16" fill="none" xmlns="http://www.w3.org/2000/svg">
<g clip-path="url(#clip0)">
<path d="M11.5901 8C9.95325 8 8.58253 9.11787 8.1966 10.635C8.1966 10.6483 8.18994 10.6549 8.18994 10.6683C8.18994 10.7614 8.26314 10.8346 8.35629 10.8346H9.76694C9.83348 10.8346 9.89336 10.7947 9.91998 10.7348C10.2128 10.1027 10.8449 9.6635 11.5901 9.6635C12.6015 9.6635 13.4266 10.4886 13.4266 11.5C13.4266 12.5114 12.6015 13.3365 11.5901 13.3365C10.8515 13.3365 10.2128 12.8973 9.91998 12.2652C9.89336 12.2053 9.83348 12.1654 9.76694 12.1654H8.35629C8.26314 12.1654 8.18994 12.2386 8.18994 12.3317C8.18994 12.3451 8.18994 12.3517 8.1966 12.365C8.58253 13.8821 9.95325 15 11.5901 15C13.5264 15 15.0968 13.4297 15.0968 11.4933C15.0968 9.56369 13.5264 8 11.5901 8Z" fill="#AC4D00"/>
<path d="M11.59 10.6683C11.1309 10.6683 10.7583 11.0409 10.7583 11.5C10.7583 11.9591 11.1309 12.3384 11.59 12.3317C12.0492 12.3317 12.4218 11.9591 12.4218 11.5C12.4218 11.0409 12.0492 10.6683 11.59 10.6683Z" fill="#AC4D00"/>
<path fill-rule="evenodd" clip-rule="evenodd" d="M15 8.67133V2.5C15 2.36739 14.9473 2.24021 14.8536 2.14645C14.7598 2.05268 14.6326 2 14.5 2H7.005L6.005 4H2.5C2.36739 4 2.24021 4.05268 2.14645 4.14645C2.05268 4.24021 2 4.36739 2 4.5V12.5C2 12.6326 2.05268 12.7598 2.14645 12.8536C2.24021 12.9473 2.36739 13 2.5 13H7.25606C7.09023 12.5308 7 12.026 7 11.5C7 9.01472 9.01472 7 11.5 7C12.9136 7 14.175 7.65183 15 8.67133ZM14 3V4H7.508L8.008 3H14Z" fill="#4F575E"/>
</g>
<defs>
<clipPath id="clip0">
<rect width="16" height="16" fill="white"/>
</clipPath>
</defs>
</svg>
