<svg width="16" height="16" viewBox="0 0 16 16" fill="none" xmlns="http://www.w3.org/2000/svg">
<path fill-rule="evenodd" clip-rule="evenodd" d="M9.9141 3C9.78149 3 9.65432 3.05268 9.56055 3.14645L9.14634 3.56066C8.86503 3.84196 8.4835 4 8.08568 4H3.49989C3.22375 4 2.99989 4.22386 2.99989 4.5V6H6.58568C6.9835 6 7.36503 6.15804 7.64634 6.43934L8.06055 6.85355C8.15432 6.94732 8.2815 7 8.4141 7H12.2191C12.9074 7 13.5074 7.46845 13.6743 8.1362L13.9999 10.5V3.5C13.9999 3.22386 13.776 3 13.4999 3H9.9141ZM14.9999 12.5V3.5C14.9999 2.67157 14.3283 2 13.4999 2H9.9141C9.51628 2 9.13475 2.15803 8.85344 2.43934L8.43923 2.85355C8.34546 2.94732 8.21828 3 8.08568 3H3.49989C2.67146 3 1.99989 3.67157 1.99989 4.5V6H1.82562C0.829051 6 0.109556 6.95386 0.383334 7.91208L1.81191 12.9121C1.99589 13.556 2.58447 14 3.25419 14H13.4999C14.3061 14 14.9999 13.3012 14.9999 12.5ZM13.8287 12.8767L12.7042 8.37873C12.6485 8.15615 12.4485 8 12.2191 8H8.4141C8.01628 8 7.63475 7.84197 7.35344 7.56066L6.93923 7.14645C6.84546 7.05268 6.71828 7 6.58568 7H1.82562C1.49343 7 1.2536 7.31795 1.34486 7.63736L2.77343 12.6374C2.83476 12.852 3.03095 13 3.25419 13H13.4999C13.6258 13 13.7408 12.9535 13.8287 12.8767Z" fill="#4F575E"/>
</svg>
