<svg xmlns="http://www.w3.org/2000/svg" width="16" height="16" viewBox="0 0 16 16"><defs><style>.a{fill:#2490c9;}.b{fill:#7c868d;}.c{fill:#1987c5;}.d{fill:#3a9ace;}.e{fill:#252526;}.f{fill:#1176ae;}</style></defs><title>folder-vscode-open-dark</title><path class="a" d="M15,12v2.15a.19.19,0,0,1-.14.21l-.42.19V12.89a.83.83,0,0,0,.5-.49v1.66a.42.42,0,0,0,0,.21V12.32A1,1,0,0,0,15,12Z"/><path class="a" d="M15,9v3a1,1,0,0,1,0,.32V9.08c0-.07,0-.14,0-.22a.08.08,0,0,1,0,.08Z"/><path class="b" d="M15,3V7.78l-1-.47V3H8L7,5H3V8H6.52l-.09.06,0,0h0a1.1,1.1,0,0,0-.15.16.94.94,0,0,0-.13.24A.6.6,0,0,0,6,8.78a0,0,0,0,0,0,0,.09.09,0,0,0,0,0v0A.71.71,0,0,0,6,9v4H3L0,8H2V5c0-.91,1-1,1-1H6.5l1-2H14A1,1,0,0,1,15,3Z"/><path class="c" d="M15,8.86c0,.08,0,.15,0,.22v3.24l0,.08V9.09s0-.08,0-.09h-.06l0,0L14,9.82V8.44l0,0Z"/><path class="c" d="M15,14.06v.21a.42.42,0,0,1,0-.21V12.4l0-.08Z"/><path class="a" d="M14.93,10.17V12.4a.83.83,0,0,1-.5.49v-.12A1,1,0,0,0,14,12V9.82L14.82,9l0,0h.06s0,.05,0,.09Z"/><path class="a" d="M14.87,9h0Z"/><path class="a" d="M14.43,13.17v1.38l-.37.17a1.29,1.29,0,0,1-.14-.66V13H14l-.07-.12v-1l0,0A.1.1,0,0,1,14,12v1a1.13,1.13,0,0,0,.43-.09Z"/><path class="a" d="M14.43,12.77v.12A1.13,1.13,0,0,1,14,13V12A1,1,0,0,1,14.43,12.77Z"/><path class="a" d="M14.07,14.72l-.53.24s-.09.07-.15,0a.24.24,0,0,0,0-.14c0-.61,0-1.23,0-1.83h.5v1.06A1.29,1.29,0,0,0,14.07,14.72Z"/><path class="c" d="M14,8.42l0,0v0Z"/><path class="a" d="M14,9.82V12a.1.1,0,0,0-.05,0l0,0v-.63l-.1.09-.23.22-.17-.16v-.87c0-.05,0-.11,0-.16Z"/><path class="c" d="M14,8.44V9.82l-.6.57-.53.51,0,0a.57.57,0,0,0-.18-.12l-.24-.4a1,1,0,0,1,.31-.67L13,9.44Z"/><path class="c" d="M14,8.41v0L13,9.44l-.24.23a1,1,0,0,0-.31.67l-.46-.77.88-.84.53-.51s.07-.07.14,0Z"/><polygon class="a" points="13.93 12.88 14 13 13.93 13 13.93 12.88"/><path class="a" d="M13.93,12.88V13h-.5v-.95Z"/><path class="a" d="M13.93,11.9v1l-.5-.83v-.31l.17-.16Z"/><path class="a" d="M13.93,11.27v.63l-.33-.32.23-.22Z"/><path class="a" d="M13.6,11.58l-.17.16v-.32Z"/><path class="d" d="M13.43,13c0,.6,0,1.22,0,1.83a.24.24,0,0,1,0,.14c-.26-.24-.52-.48-.77-.73l-.19-.18V13Z"/><path class="d" d="M13.43,12.77V13h-1v-.28l.22-.21a.75.75,0,0,0,.26-.21l.37.36C13.33,12.7,13.36,12.76,13.43,12.77Z"/><path class="c" d="M12.87,10.9l-.08.08-.15-.24a.57.57,0,0,1,.18.12Z"/><path class="e" d="M12.73,15.71a.57.57,0,0,0,.13.1A.31.31,0,0,1,12.73,15.71Z"/><path class="d" d="M12.91,12.3a.75.75,0,0,1-.26.21l-.22.21v-.86C12.6,12,12.75,12.15,12.91,12.3Z"/><path class="c" d="M12.79,11l-.36.34v-.66a.9.9,0,0,1,.21.08Z"/><path class="c" d="M12.4,10.34l.24.4a.9.9,0,0,0-.21-.08v-.05a.85.85,0,0,1,0-.23Z"/><path class="d" d="M12.43,13.17v.89l-.69-.67.09-.1.3-.29h.3Z"/><polygon class="d" points="12.43 12.77 12.43 13 12.13 13 12.43 12.72 12.43 12.77"/><path class="d" d="M12.43,12.33v.39l-.3.28h-.8L11,12.7a0,0,0,0,1,0,0l1.05-1a.12.12,0,0,1,.1,0,2.73,2.73,0,0,1,.25.23Z"/><path class="c" d="M12.43,10.66v.66l-.18.17s-.1.06-.07.14a.12.12,0,0,0-.1,0l-1.05,1a0,0,0,0,0,0,0c-.07,0-.1.07-.15.11l-.2.19h-.6a.89.89,0,0,1,0-.46,1.11,1.11,0,0,0,.42-.21l0,0,.22-.18.7-.68.25-.24a1,1,0,0,0,.29-.54.71.71,0,0,1,.2,0h.12Z"/><path class="c" d="M12.43,10.61v.05l-.14,0h-.12a.71.71,0,0,0-.2,0,1.23,1.23,0,0,0,0-.19,1,1,0,0,0-.27-.68l.22-.21.46.77v0A.85.85,0,0,0,12.43,10.61Z"/><path class="d" d="M12.13,13l-.3.29-.09.1L11.33,13Z"/><path class="c" d="M12,10.46a1.23,1.23,0,0,1,0,.19,1.12,1.12,0,0,0-.58.3l-1.05,1a1.07,1.07,0,0,0-.3.55v0l-.21,0a.73.73,0,0,1-.25,0v-.7l.1-.09a.44.44,0,0,0,.16-.17l.2-.17,1-.92.73-.69A1,1,0,0,1,12,10.46Z"/><path class="c" d="M12,10.65a1,1,0,0,1-.29.54l-.25.24-.7.68-.22.18,0,0a1.11,1.11,0,0,1-.42.21v0a1.07,1.07,0,0,1,.3-.55l1.05-1A1.12,1.12,0,0,1,12,10.65Z"/><path class="b" d="M11,8l.41.69L11,9.08,9.86,8Z"/><path class="d" d="M11,10.47l-1,.92-.2.17-.26-.25v-.86L10,10l.23-.22Z"/><path class="c" d="M10.67,13l-.38.37a.83.83,0,0,1-.22-.37Z"/><path class="c" d="M10.29,13.37,8.69,14.9a.22.22,0,0,1-.28,0L8,14.75l1-.95.31-.3a1,1,0,0,0,.28-.5h.52A.83.83,0,0,0,10.29,13.37Z"/><path class="d" d="M10.27,9.77,10,10l-.47.46v0a1,1,0,0,0-.21-.62,6.2,6.2,0,0,0-.67-.68c-.14-.12-.27-.25-.4-.38L8,8.43H8l.47-.22c.08,0,.13,0,.2,0C9.18,8.74,9.73,9.26,10.27,9.77Z"/><path class="c" d="M10.07,13H9.55a.85.85,0,0,0,0-.23v-.25a.73.73,0,0,0,.25,0l.21,0A.89.89,0,0,0,10.07,13Z"/><path class="c" d="M9.58,12.52v.25a.85.85,0,0,1,0,.23H8.35l.23-.22c.18-.17.36-.34.53-.52l0,0A.89.89,0,0,0,9.58,12.52Z"/><path class="c" d="M9.58,12.37v.15a.89.89,0,0,1-.44-.23l0,0c.16-.14.31-.29.46-.44Z"/><path class="d" d="M9.57,10.73v.58l-.46-.43.08-.09.08-.07.07-.05.23-.22Z"/><path class="d" d="M9.57,10.4v0l-.23.22-.07.05-.08.07-.08.09-.39-.37c-.05,0-.08-.1-.15-.11A4.68,4.68,0,0,0,8,9.85c-.25-.22-.48-.47-.72-.7L7,8.88a1.81,1.81,0,0,1,.44-.22c.17-.08.35-.17.53-.24H8l.3.29c.13.13.26.26.4.38a6.2,6.2,0,0,1,.67.68A1,1,0,0,1,9.57,10.4Z"/><path class="c" d="M8.35,13h1.2a1,1,0,0,1-.28.5L9,13.8l-1,.95-.82-.38c-.05,0-.12,0-.14-.09l.15-.14Z"/><path class="f" d="M8.57,11.74c0,.35,0,.69,0,1L8.35,13H7v-.09l.54-.52.35-.34.27-.25.23-.23Z"/><path class="f" d="M8.57,11.47v.27l-.18-.17.18-.16Z"/><path class="f" d="M8.57,10.4v1l-.18.16-.34-.32A1,1,0,0,1,7.79,11a4.16,4.16,0,0,0-.42-.42c-.13-.11-.25-.23-.37-.35V9s0-.1,0-.15l.3.27c.24.23.47.48.72.7A4.68,4.68,0,0,1,8.57,10.4Z"/><path class="f" d="M8.39,11.57l-.23.23-.27.25-.35.34L7,12.91V10.25c.12.12.24.24.37.35a4.16,4.16,0,0,1,.42.42,1,1,0,0,0,.26.23Z"/><path class="f" d="M8.35,13,7.16,14.14,7,14.28s0-.09,0-.14V13Z"/><path class="e" d="M6.38,8.11a.81.81,0,0,0-.16.16,1.1,1.1,0,0,1,.15-.16Z"/><path class="e" d="M6.22,8.27a.92.92,0,0,0-.13.24A.94.94,0,0,1,6.22,8.27Z"/><path class="e" d="M6.09,8.51A.77.77,0,0,0,6,8.78.6.6,0,0,1,6.09,8.51Z"/><path class="e" d="M6,8.8s0,.06,0,.08v0A.09.09,0,0,1,6,8.8Z"/></svg>