<svg width="16" height="16" viewBox="0 0 16 16" fill="none" xmlns="http://www.w3.org/2000/svg">
<path fill-rule="evenodd" clip-rule="evenodd" d="M9.56066 3.14645C9.65443 3.05268 9.7816 3 9.91421 3H13.5C13.7761 3 14 3.22386 14 3.5V6H9.91421C9.7816 6 9.65443 5.94732 9.56066 5.85355L9.14645 5.43934C8.86514 5.15804 8.48361 5 8.08579 5H2V4.5C2 4.22386 2.22386 4 2.5 4H8.08579C8.48361 4 8.86514 3.84196 9.14645 3.56066L9.56066 3.14645ZM9.91421 7H14V8.70504C14.2423 8.74013 14.4817 8.81381 14.7092 8.92754C14.8111 8.9785 14.9082 9.03632 15 9.10027V3.5C15 2.67157 14.3284 2 13.5 2H9.91421C9.51639 2 9.13486 2.15803 8.85355 2.43934L8.43934 2.85355C8.34557 2.94732 8.21839 3 8.08579 3H2.5C1.67157 3 1 3.67157 1 4.5V12.5C1 13.3284 1.67157 14 2.5 14H6.00006C6.00002 13.9946 6 13.9893 6 13.9839V13H2.5C2.22386 13 2 12.7761 2 12.5V6H8.08579C8.21839 6 8.34557 6.05268 8.43934 6.14645L8.85355 6.56066C9.13486 6.84197 9.51639 7 9.91421 7Z" fill="#4F575E"/>
<path d="M9.5 11L8.92561 10.4256C8.67144 10.1714 8.28314 10.1084 7.96164 10.2692V10.2692C7.67871 10.4106 7.5 10.6998 7.5 11.0161V13.9839C7.5 14.3002 7.67871 14.5894 7.96164 14.7308V14.7308C8.28314 14.8916 8.67144 14.8286 8.92561 14.5744L13.0744 10.4256C13.3286 10.1714 13.7169 10.1084 14.0384 10.2692V10.2692C14.3213 10.4106 14.5 10.6998 14.5 11.0161V13.9839C14.5 14.3002 14.3213 14.5894 14.0384 14.7308V14.7308C13.7169 14.8916 13.3286 14.8286 13.0744 14.5744L12.5 14" stroke="#1862AB" stroke-linecap="round" stroke-linejoin="round"/>
</svg>
