<svg xmlns="http://www.w3.org/2000/svg" viewBox="0 0 16 16"><defs><style>.a{fill:#2490c9;}.b{fill:#51575e;}.c{fill:#1987c5;}.d{fill:#3a9ace;}.e{fill:#1176ae;}.f{fill:#252526;}</style></defs><title>folder-vscode-close-light</title><path class="a" d="M15,8.9A.27.27,0,0,1,15,9Z"/><path class="a" d="M15,10.21c0,1.31,0,2.63,0,3.95a.2.2,0,0,1-.14.21l-.42.2V13h.06a.49.49,0,0,0,.44-.26v1.32a.39.39,0,0,0,0,.21v-1.6a.42.42,0,0,0,0-.18Z"/><path class="a" d="M15,9V12.5a.42.42,0,0,1,0,.18c0-1.2,0-2.39,0-3.59,0-.07,0-.14,0-.22a.07.07,0,0,1,0,0Z"/><path class="b" d="M15,2.5V7.77l-1.08-.5a1.05,1.05,0,0,0-.47-.11,1.09,1.09,0,0,0-.78.33l-.12.12L12.13,8,11,9.09,9.34,7.5a1.14,1.14,0,0,0-.79-.33A1.21,1.21,0,0,0,8,7.29l-.43.2L7,7.76l-.08,0a2.19,2.19,0,0,0-.57.33l-.05.05a.79.79,0,0,0-.17.21.58.58,0,0,0-.06.13A1,1,0,0,0,6,8.74a.1.1,0,0,0,0,0s0,0,0,0H6A1.7,1.7,0,0,0,6,9v4H2.5a.5.5,0,0,1-.5-.5v-8A.5.5,0,0,1,2.5,4H6L7,2H14.5A.5.5,0,0,1,15,2.5ZM14,4V3H8l-.5,1Z"/><path class="c" d="M15,8.86c0,.07,0,.15,0,.22,0,1.2,0,2.39,0,3.59a.15.15,0,0,1,0,.06V9.09s0-.07,0-.09-.06,0-.08,0L13.4,10.39l-.54.51,0,0a.94.94,0,0,0-.4-.21v0a.9.9,0,0,1,0-.23,1,1,0,0,1,.31-.71l.21-.21,1.09-1Z"/><path class="c" d="M15,12.68v1.6a.39.39,0,0,1,0-.21V12.74A.15.15,0,0,0,15,12.68Z"/><path class="a" d="M14.93,10.18v2.56a.49.49,0,0,1-.44.26h-.06v-.23a1,1,0,0,0-.47-.85l0,0v-.63l-.1.1-.23.22h0l-.17-.16v-.87c0-.05,0-.11,0-.16L14.82,9s0-.06.08,0,0,.06,0,.09Z"/><path class="a" d="M14.43,13.17v1.39l-.37.17a1.24,1.24,0,0,1-.14-.66V13h.5Z"/><path class="a" d="M14.43,12.77V13h-.5V11.9l0,0A1,1,0,0,1,14.43,12.77Z"/><path class="a" d="M14.07,14.73l-.53.23a.28.28,0,0,1-.1,0,.08.08,0,0,1-.05,0,.29.29,0,0,0,0-.14c0-.61,0-1.21,0-1.83h.51v1.07A1.24,1.24,0,0,0,14.07,14.73Z"/><path class="c" d="M14,8.42l-1.09,1-.21.21a1,1,0,0,0-.31.71.9.9,0,0,0,0,.23v0l-.14,0h-.12l-.2,0a1.09,1.09,0,0,0,0-.18,1,1,0,0,0-.28-.69l1.11-1,.52-.51s.08-.07.15,0Z"/><path class="a" d="M13.93,11.9V13h-.51V11.75l.18-.16Z"/><path class="a" d="M13.93,11.27v.63l-.33-.31.23-.22Z"/><path class="a" d="M13.6,11.58h0l-.18.16v-.33Z"/><path class="d" d="M13.43,13c0,.61,0,1.21,0,1.83a.29.29,0,0,1,0,.14l-.78-.73-.18-.17V13Z"/><path class="d" d="M13.43,12.77V13h-1v-.28l.22-.21a.94.94,0,0,0,.27-.21l.37.36S13.36,12.77,13.43,12.77Z"/><path class="a" d="M13.39,15a.08.08,0,0,0,.05,0A.07.07,0,0,1,13.39,15Z"/><path class="c" d="M12.87,10.9l-.44.43v-.67a.94.94,0,0,1,.4.21Z"/><path class="d" d="M12.91,12.3a.94.94,0,0,1-.27.21l-.22.21v-.88Z"/><path class="d" d="M12.43,13.18v.88l-.7-.67.09-.11.3-.29h.29Z"/><polygon class="d" points="12.43 12.77 12.43 13 12.14 13 12.43 12.72 12.43 12.77"/><path class="d" d="M12.43,12.33v.39l-.29.28h-.8L11,12.7s0,0,0,0l1-1a.13.13,0,0,1,.11-.05l.24.21Z"/><path class="c" d="M12.43,10.66v.67l-.17.16s-.1.07-.07.13a.13.13,0,0,0-.11.05l-1,1s0,0,0,0-.11.07-.15.11l-.2.19h-.61a1,1,0,0,1,0-.46,1,1,0,0,0,.42-.21l.05,0,.21-.18.71-.69.24-.24a1,1,0,0,0,.29-.54l.2,0h.12Z"/><path class="d" d="M12.14,13l-.3.29-.09.11-.41-.4Z"/><path class="c" d="M12,10.47a1.09,1.09,0,0,1,0,.18,1.13,1.13,0,0,0-.58.3l-1.05,1a1,1,0,0,0-.29.56v0a.75.75,0,0,1-.21,0,.73.73,0,0,1-.25,0v-.69l.1-.1c.06-.05.13-.1.15-.18l.21-.17.95-.93.72-.69A1,1,0,0,1,12,10.47Z"/><path class="c" d="M12,10.65a1,1,0,0,1-.29.54l-.24.24-.71.69-.21.18-.05,0a1,1,0,0,1-.42.21v0a1,1,0,0,1,.29-.56l1.05-1A1.13,1.13,0,0,1,12,10.65Z"/><path class="d" d="M11,10.47l-.95.93-.21.17-.25-.24v-.87L10,10l.22-.21Z"/><path class="c" d="M10.67,13l-.39.38a1,1,0,0,1-.21-.37Z"/><path class="c" d="M10.28,13.38,8.69,14.9a.21.21,0,0,1-.28.05L8,14.75l1-.94.32-.31a1.06,1.06,0,0,0,.28-.5h.51A1,1,0,0,0,10.28,13.38Z"/><path class="d" d="M8.65,8.22l1.62,1.55L10,10l-.48.46v0a1,1,0,0,0-.21-.62,5.17,5.17,0,0,0-.67-.69L8.3,8.72,8,8.43H8l.47-.22A.15.15,0,0,1,8.65,8.22Z"/><path class="c" d="M10.07,13H9.56a1.16,1.16,0,0,0,0-.23v-.25a.73.73,0,0,0,.25,0,.75.75,0,0,0,.21,0A1,1,0,0,0,10.07,13Z"/><path class="c" d="M9.58,12.52v.25a1.16,1.16,0,0,1,0,.23H8.35l.23-.22.54-.51,0,0A.91.91,0,0,0,9.58,12.52Z"/><path class="c" d="M9.58,12.37v.15a.91.91,0,0,1-.43-.24l0,0,.45-.43Z"/><path class="d" d="M9.57,10.73v.59l-.47-.45.09-.09.09-.06.06-.05.23-.22Z"/><path class="d" d="M9.57,10.41v0l-.23.22-.06.05-.09.06-.09.09-.38-.36s-.07-.11-.14-.11A4.08,4.08,0,0,0,8,9.85c-.25-.22-.48-.46-.72-.69L7,8.88a1.69,1.69,0,0,1,.44-.22L8,8.42H8l.3.29.39.38a5.17,5.17,0,0,1,.67.69A1,1,0,0,1,9.57,10.41Z"/><path class="c" d="M8.35,13H9.56a1.06,1.06,0,0,1-.28.5L9,13.81l-1,.94-.83-.37s-.11,0-.13-.09l.15-.13Z"/><path class="e" d="M8.57,11.75c0,.34,0,.69,0,1L8.35,13H7v-.09l.55-.53.34-.32.27-.26.23-.22Z"/><path class="e" d="M8.57,11.75l-.18-.17.18-.17v.34Z"/><path class="e" d="M8.57,10.4v1l-.18.17L8,11.26A1.06,1.06,0,0,1,7.79,11a3,3,0,0,0-.42-.42L7,10.25V9a1.43,1.43,0,0,1,0-.14H7l.29.28c.25.22.47.47.72.69A4.08,4.08,0,0,1,8.57,10.4Z"/><path class="e" d="M8.39,11.58l-.23.22-.27.26-.34.32L7,12.91V10.25l.37.35a3,3,0,0,1,.42.42,1.06,1.06,0,0,0,.26.23Z"/><path class="e" d="M8.35,13,7.16,14.15,7,14.28a1.23,1.23,0,0,1,0-.13V13Z"/><path class="f" d="M6.09,8.51A1,1,0,0,0,6,8.74,1,1,0,0,1,6.09,8.51Z"/></svg>