<svg width="16" height="16" viewBox="0 0 16 16" fill="none" xmlns="http://www.w3.org/2000/svg">
<path fill-rule="evenodd" clip-rule="evenodd" d="M9.56055 3.14645C9.65432 3.05268 9.78149 3 9.9141 3H13.4999C13.776 3 13.9999 3.22386 13.9999 3.5V7.75777C14.3775 8.01056 14.7148 8.31899 14.9999 8.67133V3.5C14.9999 2.67157 14.3283 2 13.4999 2H9.9141C9.51628 2 9.13475 2.15803 8.85344 2.43934L8.43923 2.85355C8.34546 2.94732 8.21828 3 8.08568 3H3.49989C2.67146 3 1.99989 3.67157 1.99989 4.5V6H1.82562C0.829051 6 0.109556 6.95386 0.383334 7.91208L1.81191 12.9121C1.99589 13.556 2.58447 14 3.25419 14H7.75766C7.55116 13.6915 7.38179 13.356 7.25595 13H3.25419C3.03095 13 2.83476 12.852 2.77343 12.6374L1.34486 7.63736C1.2536 7.31795 1.49343 7 1.82562 7H2.49989H6.58568C6.71828 7 6.84546 7.05268 6.93923 7.14645L7.35344 7.56066C7.63475 7.84197 8.01628 8 8.4141 8H8.67122C9.44358 7.37501 10.427 7.00049 11.4978 7H8.4141C8.2815 7 8.15432 6.94732 8.06055 6.85355L7.64634 6.43934C7.36503 6.15804 6.9835 6 6.58568 6H2.99989V4.5C2.99989 4.22386 3.22375 4 3.49989 4H8.08568C8.4835 4 8.86503 3.84196 9.14634 3.56066L9.56055 3.14645ZM11.502 7C12.0721 7.00026 12.6175 7.10656 13.1194 7.30024C12.8664 7.11034 12.5532 7 12.2191 7H11.502Z" fill="#949CA3"/>
<path d="M11.4002 8C9.76331 8 8.39259 9.11787 8.00665 10.635C8.00665 10.6483 8 10.6549 8 10.6683C8 10.7614 8.07319 10.8346 8.16635 10.8346H9.577C9.64354 10.8346 9.70342 10.7947 9.73004 10.7348C10.0228 10.1027 10.6549 9.6635 11.4002 9.6635C12.4116 9.6635 13.2367 10.4886 13.2367 11.5C13.2367 12.5114 12.4116 13.3365 11.4002 13.3365C10.6616 13.3365 10.0228 12.8973 9.73004 12.2652C9.70342 12.2053 9.64354 12.1654 9.577 12.1654H8.16635C8.07319 12.1654 8 12.2386 8 12.3317C8 12.3451 8 12.3517 8.00665 12.365C8.39259 13.8821 9.76331 15 11.4002 15C13.3365 15 14.9068 13.4297 14.9068 11.4933C14.9068 9.56369 13.3365 8 11.4002 8Z" fill="#F88A10"/>
<path d="M11.4001 10.6683C10.941 10.6683 10.5684 11.0409 10.5684 11.5C10.5684 11.9591 10.941 12.3384 11.4001 12.3317C11.8592 12.3317 12.2319 11.9591 12.2319 11.5C12.2319 11.0409 11.8592 10.6683 11.4001 10.6683Z" fill="#F88A10"/>
</svg>
