<svg xmlns="http://www.w3.org/2000/svg" width="16" height="16" viewBox="0 0 16 16"><defs><style>.a{fill:#2490c9;}.b{fill:#4f575e;}.c{fill:#1987c5;}.d{fill:#3a9ace;}.e{fill:#1176ae;}.f{fill:#252526;}</style></defs><title>folder-vscode-close-light</title><path class="a" d="M15,8.9v0Z"/><path class="a" d="M15,10.21v3.94a.21.21,0,0,1-.14.22l-.42.19V13h.07a.47.47,0,0,0,.43-.26v1.32a.46.46,0,0,0,0,.22v-1.6a.39.39,0,0,0,0-.18Z"/><path class="a" d="M15,9V12.5a.39.39,0,0,1,0,.18c0-1.2,0-2.4,0-3.6V8.86s0,0,0,0Z"/><path class="b" d="M15,2.5V7.77l-1.08-.49a1,1,0,0,0-.48-.11,1.1,1.1,0,0,0-.78.33l-.12.12L12.13,8,11,9.09,9.34,7.5a1.15,1.15,0,0,0-.79-.33A1.23,1.23,0,0,0,8,7.29l-.43.2L7,7.76l-.08,0a2.28,2.28,0,0,0-.57.32s0,0,0,.06a.68.68,0,0,0-.17.21.31.31,0,0,0-.06.13A.86.86,0,0,0,6,8.74a.06.06,0,0,0,0,0v0H6A1.79,1.79,0,0,0,6,9v4H2.5a.5.5,0,0,1-.5-.5v-8A.5.5,0,0,1,2.5,4H6L7,2H14.5A.51.51,0,0,1,15,2.5ZM14,4V3H8l-.5,1Z"/><path class="c" d="M15,8.86v.22c0,1.2,0,2.4,0,3.6a.09.09,0,0,1,0,.06V9.09s0-.07,0-.09-.06,0-.09,0L13.4,10.39l-.53.51,0,0a.86.86,0,0,0-.39-.2v0a1,1,0,0,1,0-.23,1,1,0,0,1,.31-.72l.22-.21,1.09-1Z"/><path class="c" d="M15,12.68v1.6a.46.46,0,0,1,0-.22V12.74A.09.09,0,0,0,15,12.68Z"/><path class="a" d="M14.93,10.18v2.56a.47.47,0,0,1-.43.26h-.07v-.23a1,1,0,0,0-.48-.85l0,0v-.63l-.09.09-.24.23h0l-.17-.16v-.87c0-.05,0-.11,0-.16L14.82,9s0-.06.09,0,0,.06,0,.09Z"/><path class="a" d="M14.43,13.17v1.39l-.37.17a1.3,1.3,0,0,1-.14-.66V13h.5Z"/><path class="a" d="M14.43,12.77V13h-.5V11.9l0,0A1,1,0,0,1,14.43,12.77Z"/><path class="a" d="M14.07,14.73l-.52.23a.26.26,0,0,1-.1,0l-.06,0a.24.24,0,0,0,0-.14c0-.61,0-1.22,0-1.83h.5v1.07A1.3,1.3,0,0,0,14.07,14.73Z"/><path class="c" d="M14,8.42l-1.09,1-.22.21a1,1,0,0,0-.31.72,1,1,0,0,0,0,.23v0l-.14,0h-.12a.71.71,0,0,0-.2,0,1.1,1.1,0,0,0,0-.18,1,1,0,0,0-.28-.69l1.11-1,.53-.51s.07-.07.14,0S13.84,8.35,14,8.42Z"/><path class="a" d="M13.93,11.9V13h-.5V11.75l.17-.16Z"/><path class="a" d="M13.93,11.27v.63l-.33-.31.24-.23Z"/><path class="a" d="M13.6,11.58h0l-.17.16v-.33Z"/><path class="d" d="M13.43,13c0,.61,0,1.22,0,1.83a.24.24,0,0,1,0,.14c-.25-.24-.52-.48-.77-.73l-.18-.17V13Z"/><path class="d" d="M13.43,12.77V13h-1v-.28l.22-.21a1,1,0,0,0,.26-.21l.37.36C13.33,12.7,13.36,12.77,13.43,12.77Z"/><path class="a" d="M13.39,15l.06,0A.06.06,0,0,1,13.39,15Z"/><path class="c" d="M12.87,10.9c-.15.14-.3.28-.44.43v-.67a.86.86,0,0,1,.39.2Z"/><path class="d" d="M12.91,12.3a1,1,0,0,1-.26.21l-.22.21v-.88Z"/><path class="d" d="M12.43,13.18v.89l-.7-.67.09-.11.31-.29h.29Z"/><polygon class="d" points="12.43 12.77 12.43 13 12.14 13 12.43 12.72 12.43 12.77"/><path class="d" d="M12.43,12.33v.39l-.29.28h-.81L11,12.7a0,0,0,0,1,0,0l1.05-1s.06-.06.1,0l.25.21Z"/><path class="c" d="M12.43,10.66v.67l-.18.16s-.1.07-.07.14-.07,0-.1,0l-1.05,1a0,0,0,0,0,0,0c-.07,0-.1.07-.15.11a1.8,1.8,0,0,1-.2.19h-.6a.9.9,0,0,1,0-.46.88.88,0,0,0,.42-.21l0,0a1.24,1.24,0,0,0,.22-.18l.71-.68.24-.24a.93.93,0,0,0,.29-.54.71.71,0,0,1,.2,0h.12Z"/><path class="d" d="M12.14,13l-.31.29-.09.11-.41-.4Z"/><path class="c" d="M12,10.47a1.1,1.1,0,0,1,0,.18,1.12,1.12,0,0,0-.58.3l-1.05,1a1.06,1.06,0,0,0-.3.56v0a.75.75,0,0,1-.21,0,.69.69,0,0,1-.25,0v-.68l.11-.1c.05-.06.13-.1.15-.18l.21-.17,1-.92.72-.69A1,1,0,0,1,12,10.47Z"/><path class="c" d="M12,10.65a.93.93,0,0,1-.29.54l-.24.24-.71.68a1.24,1.24,0,0,1-.22.18l0,0a.88.88,0,0,1-.42.21v0a1.06,1.06,0,0,1,.3-.56l1.05-1A1.12,1.12,0,0,1,12,10.65Z"/><path class="d" d="M11,10.47l-1,.92-.21.17-.26-.24v-.87l.48-.46.22-.21Z"/><path class="c" d="M10.67,13l-.39.38a1,1,0,0,1-.21-.38Z"/><path class="c" d="M10.28,13.38,8.69,14.9a.2.2,0,0,1-.28,0L8,14.75l1-.94.32-.31a1.08,1.08,0,0,0,.28-.5h.51A1,1,0,0,0,10.28,13.38Z"/><path class="d" d="M8.65,8.22l1.62,1.56-.22.21-.48.46v0a1,1,0,0,0-.21-.63,5.42,5.42,0,0,0-.67-.68,4.68,4.68,0,0,1-.39-.38L8,8.43H8l.47-.22A.15.15,0,0,1,8.65,8.22Z"/><path class="c" d="M10.07,13H9.56a1.64,1.64,0,0,0,0-.23v-.25a.69.69,0,0,0,.25,0,.75.75,0,0,0,.21,0A.9.9,0,0,0,10.07,13Z"/><path class="c" d="M9.58,12.52v.25a1.64,1.64,0,0,1,0,.23H8.35l.23-.22.54-.51,0,0A.89.89,0,0,0,9.58,12.52Z"/><path class="c" d="M9.58,12.37v.15a.89.89,0,0,1-.44-.23l0,0,.45-.43Z"/><path class="d" d="M9.57,10.73v.59l-.47-.45.09-.08.09-.07.06-.05.23-.22Z"/><path class="d" d="M9.57,10.41v0l-.23.22-.06.05-.09.07-.09.08c-.13-.11-.25-.24-.38-.36s-.08-.1-.15-.11A4.68,4.68,0,0,0,8,9.85c-.25-.22-.48-.47-.72-.69L7,8.88a1.59,1.59,0,0,1,.43-.22L8,8.42H8l.31.29a4.68,4.68,0,0,0,.39.38,5.42,5.42,0,0,1,.67.68A1,1,0,0,1,9.57,10.41Z"/><path class="c" d="M8.35,13H9.56a1.08,1.08,0,0,1-.28.5L9,13.81l-1,.94-.83-.38c-.05,0-.12,0-.14-.09l.15-.13Z"/><path class="e" d="M8.57,11.75c0,.34,0,.69,0,1L8.35,13H7v-.09l.55-.53.34-.32.27-.26.23-.22Z"/><path class="e" d="M8.57,11.75l-.18-.17.18-.17v.34Z"/><path class="e" d="M8.57,10.4v1l-.18.17-.34-.32A1,1,0,0,1,7.79,11a3.33,3.33,0,0,0-.42-.42c-.13-.11-.25-.23-.37-.35V9a.77.77,0,0,1,0-.15H7l.29.28c.24.22.47.47.72.69A4.68,4.68,0,0,1,8.57,10.4Z"/><path class="e" d="M8.39,11.58l-.23.22-.27.26-.34.32L7,12.91V10.25c.12.12.24.24.37.35a3.33,3.33,0,0,1,.42.42,1,1,0,0,0,.26.24Z"/><path class="e" d="M8.35,13,7.16,14.15,7,14.28s0-.09,0-.13V13Z"/><path class="f" d="M6.09,8.51A.86.86,0,0,0,6,8.74.86.86,0,0,1,6.09,8.51Z"/></svg>