<svg width="16" height="16" viewBox="0 0 16 16" fill="none" xmlns="http://www.w3.org/2000/svg">
<path d="M2.09351 12V3.973H7.25701V5.054H3.38151V7.3885H6.90051V8.4695H3.38151V12H2.09351Z" fill="#BC6FCC"/>
<path d="M9.55251 9.6195H8.14951V8.6535H9.72501L9.95501 7.3195H8.57501V6.3535H10.1275L10.553 3.973H11.5995L11.18 6.3535L11.0098 7.3195L10.7747 8.6535L10.6045 9.6195L10.185 12H9.13851L9.55251 9.6195ZM12.715 3.973H13.7615L13.3475 6.3535H14.7505V7.3195H13.175L12.945 8.6535H14.325V9.6195H12.7725L12.347 12H11.3005L11.72 9.6195L11.8902 8.6535L12.1253 7.3195L12.2955 6.3535L12.715 3.973Z" fill="#BC6FCC"/>
<path d="M11.18 6.3535L11.0098 7.3195H12.1253L12.2955 6.3535H11.18Z" fill="#BC6FCC"/>
<path d="M11.8902 8.6535H10.7747L10.6045 9.6195H11.72L11.8902 8.6535Z" fill="#BC6FCC"/>
</svg>
