<svg width="16" height="16" viewBox="0 0 16 16" fill="none" xmlns="http://www.w3.org/2000/svg">
<path d="M2.42001 12V4.36364H7.15545V5.35547H3.57218V7.68217H6.81614V8.67028H3.57218V12H2.42001ZM11.3465 12L11.6821 9.95668H9.89231L9.55673 12H8.66184L8.99743 9.95668H7.89L8.03542 9.06179H9.14284L9.43368 7.30185H8.33372L8.47914 6.40696H9.5791L9.91468 4.36364H10.8096L10.474 6.40696H12.2638L12.5993 4.36364H13.4942L13.1586 6.40696H14.2661L14.1207 7.30185H13.0132L12.7224 9.06179H13.8224L13.6769 9.95668H12.577L12.2414 12H11.3465ZM10.0377 9.06179H11.8275L12.1183 7.30185H10.3286L10.0377 9.06179Z" fill="#A76AB4"/>
</svg>
