<svg width="16" height="16" viewBox="0 0 16 16" fill="none" xmlns="http://www.w3.org/2000/svg">
<path d="M13.5829 7L8.99992 2.419C8.86739 2.28635 8.71002 2.18112 8.53681 2.10933C8.36359 2.03753 8.17792 2.00058 7.99042 2.00058C7.80291 2.00058 7.61725 2.03753 7.44403 2.10933C7.27081 2.18112 7.11345 2.28635 6.98092 2.419L2.41792 6.98C2.15045 7.24808 2.00024 7.61131 2.00024 7.99C2.00024 8.36869 2.15045 8.73192 2.41792 9L6.99992 13.583C7.26796 13.8502 7.63097 14.0002 8.00942 14.0002C8.38787 14.0002 8.75088 13.8502 9.01892 13.583L13.5809 9.021C13.8485 8.75288 13.9989 8.38969 13.9993 8.01091C13.9996 7.63214 13.8499 7.26864 13.5829 7V7ZM12.8249 8.479L8.47892 12.824C8.35775 12.9441 8.19404 13.0115 8.02342 13.0115C7.8528 13.0115 7.68909 12.9441 7.56792 12.824L3.19992 8.46C3.07901 8.33904 3.01109 8.17502 3.01109 8.004C3.01109 7.83297 3.07901 7.66895 3.19992 7.548L6.19292 4.555L7.32692 5.689C7.26846 5.82917 7.25294 5.98355 7.28231 6.13256C7.31169 6.28156 7.38464 6.41849 7.49192 6.526C7.56592 6.601 7.54492 6.567 7.63692 6.604V9.372C7.56296 9.40819 7.49831 9.46088 7.44792 9.526C7.32599 9.63353 7.23972 9.77565 7.20059 9.93344C7.16146 10.0912 7.17133 10.2572 7.22889 10.4092C7.28645 10.5613 7.38896 10.6922 7.52277 10.7845C7.65659 10.8768 7.81535 10.9262 7.97792 10.926C8.03369 10.926 8.08931 10.9203 8.14392 10.909C8.27323 10.8907 8.39568 10.8396 8.49951 10.7604C8.60335 10.6812 8.68509 10.5766 8.7369 10.4568C8.7887 10.3369 8.80883 10.2057 8.79535 10.0758C8.78187 9.94593 8.73524 9.82168 8.65992 9.715C8.59 9.59873 8.49111 9.5026 8.37292 9.436V6.746L9.40692 7.78C9.33966 7.94231 9.33009 8.12277 9.3798 8.29129C9.42951 8.4598 9.53549 8.60618 9.68007 8.706C9.82466 8.80582 9.99909 8.85305 10.1743 8.83981C10.3495 8.82658 10.5148 8.75367 10.6428 8.63326C10.7707 8.51284 10.8535 8.3522 10.8773 8.17813C10.9011 8.00406 10.8646 7.82708 10.7737 7.67672C10.6828 7.52636 10.5431 7.41171 10.3779 7.35188C10.2127 7.29206 10.032 7.29069 9.86592 7.348L8.75692 6.24C8.80401 6.10471 8.81216 5.95892 8.78046 5.81922C8.74876 5.67952 8.67846 5.55153 8.57759 5.44983C8.47671 5.34812 8.34931 5.27677 8.20988 5.24392C8.07045 5.21107 7.92459 5.21802 7.78892 5.264L6.63892 4.114L7.54492 3.208C7.60466 3.14804 7.67565 3.10047 7.75381 3.06801C7.83198 3.03555 7.91578 3.01884 8.00042 3.01884C8.08506 3.01884 8.16886 3.03555 8.24703 3.06801C8.32519 3.10047 8.39618 3.14804 8.45592 3.208L12.8229 7.573C12.9423 7.69361 13.0095 7.85637 13.0099 8.02609C13.0102 8.19581 12.9438 8.35886 12.8249 8.48V8.479Z" fill="#F88A10"/>
</svg>
