<svg width="16" height="16" viewBox="0 0 16 16" fill="none" xmlns="http://www.w3.org/2000/svg">
<path d="M13.5829 7L8.99992 2.419C8.86739 2.28635 8.71002 2.18113 8.53681 2.10933C8.36359 2.03754 8.17792 2.00058 7.99042 2.00058C7.80291 2.00058 7.61725 2.03754 7.44403 2.10933C7.27081 2.18113 7.11345 2.28635 6.98092 2.419L2.41792 6.98C2.15045 7.24808 2.00024 7.61131 2.00024 7.99C2.00024 8.36869 2.15045 8.73192 2.41792 9L6.99992 13.583C7.26796 13.8502 7.63097 14.0002 8.00942 14.0002C8.38787 14.0002 8.75088 13.8502 9.01892 13.583L13.5809 9.021C13.8485 8.75288 13.9989 8.38969 13.9993 8.01091C13.9996 7.63214 13.8499 7.26865 13.5829 7V7ZM12.8249 8.48L8.47892 12.825C8.35775 12.9451 8.19404 13.0125 8.02342 13.0125C7.8528 13.0125 7.68909 12.9451 7.56792 12.825L3.19992 8.46C3.07901 8.33905 3.01109 8.17502 3.01109 8.004C3.01109 7.83298 3.07901 7.66896 3.19992 7.548L6.19292 4.555L7.32692 5.689C7.26846 5.82918 7.25294 5.98355 7.28231 6.13256C7.31169 6.28157 7.38464 6.4185 7.49192 6.526C7.56592 6.601 7.54492 6.567 7.63692 6.604V9.372C7.56296 9.4082 7.49831 9.46088 7.44792 9.526C7.32784 9.63392 7.24322 9.77565 7.20518 9.93256C7.16715 10.0895 7.17748 10.2542 7.23483 10.4051C7.29217 10.5561 7.39383 10.6861 7.52646 10.7782C7.65909 10.8703 7.81647 10.92 7.97792 10.921C8.03369 10.921 8.08931 10.9153 8.14392 10.904C8.27323 10.8858 8.39568 10.8346 8.49951 10.7554C8.60335 10.6762 8.68509 10.5716 8.7369 10.4518C8.7887 10.3319 8.80883 10.2007 8.79535 10.0708C8.78187 9.94093 8.73524 9.81668 8.65992 9.71C8.59 9.59374 8.49111 9.4976 8.37292 9.431V6.741L9.40692 7.775C9.33966 7.93731 9.33009 8.11778 9.3798 8.28629C9.42951 8.4548 9.53549 8.60118 9.68007 8.701C9.82466 8.80082 9.99909 8.84806 10.1743 8.83482C10.3495 8.82158 10.5148 8.74867 10.6428 8.62826C10.7707 8.50784 10.8535 8.3472 10.8773 8.17313C10.9011 7.99906 10.8646 7.82208 10.7737 7.67172C10.6828 7.52136 10.5431 7.40671 10.3779 7.34689C10.2127 7.28707 10.032 7.2857 9.86592 7.343L8.75892 6.235C8.80601 6.09971 8.81416 5.95392 8.78246 5.81422C8.75075 5.67453 8.68046 5.54654 8.57959 5.44483C8.47871 5.34312 8.35131 5.27178 8.21188 5.23893C8.07245 5.20607 7.92659 5.21303 7.79092 5.259L6.64092 4.109L7.54692 3.203C7.60666 3.14304 7.67765 3.09547 7.75581 3.06301C7.83398 3.03055 7.91778 3.01384 8.00242 3.01384C8.08706 3.01384 8.17086 3.03055 8.24903 3.06301C8.32719 3.09547 8.39818 3.14304 8.45792 3.203L12.8249 7.568C12.9456 7.68908 13.0133 7.85306 13.0133 8.024C13.0133 8.19494 12.9456 8.35892 12.8249 8.48V8.48Z" fill="#9F4700"/>
</svg>
