<svg id="图层_1" data-name="图层 1" xmlns="http://www.w3.org/2000/svg" viewBox="0 0 16 16"><defs><style>.icon-canvas-transparent{fill:#f6f6f6;opacity:0;}.cls-1{fill:#ae4c00;}</style></defs><title>git-light</title><path id="_复合路径_" data-name="&lt;复合路径&gt;" class="icon-canvas-transparent" d="M15,15H1V1H15Z"/><path class="cls-1" d="M13.58,7,9,2.42a1.43,1.43,0,0,0-2,0L2.42,7a1.43,1.43,0,0,0,0,2L7,13.58a1.43,1.43,0,0,0,2,0L13.58,9A1.43,1.43,0,0,0,13.58,7Zm-.76,1.48L8.48,12.83a.65.65,0,0,1-.91,0L3.2,8.46a.64.64,0,0,1,0-.91l3-3L7.33,5.69a.77.77,0,0,0,.16.84c.07.07.05,0,.14.08V9.37a.54.54,0,0,0-.19.15A.8.8,0,0,0,8,10.92l.17,0a.76.76,0,0,0,.52-1.19.8.8,0,0,0-.29-.28V6.74l1,1a.77.77,0,1,0,.46-.43L8.76,6.23a.76.76,0,0,0-1-1L6.64,4.11l.91-.91a.64.64,0,0,1,.91,0l4.37,4.37A.64.64,0,0,1,12.82,8.48Z"/></svg>