<svg xmlns="http://www.w3.org/2000/svg" viewBox="0 0 16 16"><defs><style>.a{fill:#da7300;}</style></defs><title>git-dark</title><path class="a" d="M13.58,7,9,2.42a1.42,1.42,0,0,0-2,0L2.42,7a1.42,1.42,0,0,0,0,2L7,13.58a1.42,1.42,0,0,0,2,0L13.58,9A1.42,1.42,0,0,0,13.58,7Zm-.76,1.48L8.48,12.83a.65.65,0,0,1-.91,0L3.2,8.46a.65.65,0,0,1,0-.91l3-3L7.33,5.69a.77.77,0,0,0,.16.84c.08.07.06,0,.15.07V9.37a.58.58,0,0,0-.19.16.78.78,0,0,0-.27.59.8.8,0,0,0,.8.8l.17,0a.76.76,0,0,0,.43-.21.77.77,0,0,0,.08-1,.83.83,0,0,0-.28-.28V6.74l1,1a.77.77,0,0,0,1.25.84.77.77,0,0,0-.79-1.27L8.76,6.23a.76.76,0,0,0-1-1L6.64,4.11l.91-.91a.65.65,0,0,1,.91,0l4.36,4.37A.63.63,0,0,1,12.82,8.48Z"/></svg>