<svg width="16" height="16" viewBox="0 0 16 16" fill="none" xmlns="http://www.w3.org/2000/svg">
<path d="M6.35464 6.7761C6.21046 6.32369 5.96934 5.96697 5.63127 5.70597C5.29569 5.44247 4.87435 5.31072 4.36725 5.31072C3.9372 5.31072 3.54942 5.42134 3.20389 5.64258C2.85837 5.86381 2.58493 6.18821 2.38358 6.61577C2.18472 7.04084 2.08529 7.56161 2.08529 8.17809C2.08529 8.79705 2.18596 9.32031 2.38731 9.74787C2.58866 10.1754 2.86458 10.4998 3.21508 10.7211C3.56558 10.9423 3.96455 11.0529 4.41199 11.0529C5.0235 11.0529 5.51693 10.8727 5.89228 10.5123C6.26764 10.1493 6.46153 9.65962 6.47396 9.04315H4.58724V8.09233H7.58884V8.96111C7.58884 9.60245 7.45212 10.1593 7.17868 10.6316C6.90773 11.1014 6.53362 11.4643 6.05634 11.7203C5.57907 11.9764 5.03095 12.1044 4.41199 12.1044C3.72343 12.1044 3.11813 11.9466 2.59612 11.6309C2.0741 11.3127 1.66767 10.8603 1.37683 10.2736C1.086 9.68697 0.940577 8.99094 0.940577 8.18555C0.940577 7.37269 1.08848 6.67294 1.38429 6.08629C1.6801 5.49964 2.08529 5.04847 2.59985 4.73278C3.11441 4.41708 3.70105 4.25923 4.35979 4.25923C4.90915 4.25923 5.40755 4.36612 5.855 4.5799C6.30244 4.79119 6.67282 5.08576 6.96615 5.4636C7.26196 5.84144 7.45212 6.27894 7.53664 6.7761H6.35464ZM15.3698 8.18182C15.3698 8.99467 15.2206 9.69442 14.9223 10.2811C14.624 10.8677 14.2151 11.3189 13.6956 11.6346C13.1785 11.9478 12.5906 12.1044 11.9319 12.1044C11.2707 12.1044 10.6803 11.9478 10.1608 11.6346C9.64373 11.3189 9.23606 10.8677 8.93777 10.2811C8.63947 9.69442 8.49032 8.99467 8.49032 8.18182C8.49032 7.36648 8.63947 6.66673 8.93777 6.08256C9.23606 5.49592 9.64373 5.04599 10.1608 4.73278C10.6803 4.41708 11.2707 4.25923 11.9319 4.25923C12.5906 4.25923 13.1785 4.41708 13.6956 4.73278C14.2151 5.04599 14.624 5.49592 14.9223 6.08256C15.2206 6.66673 15.3698 7.36648 15.3698 8.18182ZM14.2288 8.18182C14.2288 7.56037 14.1281 7.03711 13.9268 6.61204C13.7279 6.18448 13.4545 5.86133 13.1064 5.64258C12.7609 5.42134 12.3694 5.31072 11.9319 5.31072C11.4944 5.31072 11.1017 5.42134 10.7536 5.64258C10.4081 5.86133 10.1347 6.18448 9.93333 6.61204C9.73446 7.03711 9.63503 7.56037 9.63503 8.18182C9.63503 8.80078 9.73446 9.32404 9.93333 9.7516C10.1347 10.1792 10.4081 10.5036 10.7536 10.7248C11.1017 10.9435 11.4944 11.0529 11.9319 11.0529C12.3694 11.0529 12.7609 10.9435 13.1064 10.7248C13.4545 10.5036 13.7279 10.1792 13.9268 9.7516C14.1281 9.32404 14.2288 8.80078 14.2288 8.18182Z" fill="#5C7CFA"/>
</svg>
