<svg width="16" height="16" viewBox="0 0 16 16" fill="none" xmlns="http://www.w3.org/2000/svg">
<path d="M6.04949 10.896H5.96899C5.89999 11.057 5.81566 11.2142 5.71599 11.3675C5.62399 11.5132 5.50516 11.6435 5.35949 11.7585C5.22149 11.8735 5.05283 11.9655 4.85349 12.0345C4.65416 12.1035 4.42416 12.138 4.16349 12.138C3.32783 12.138 2.69916 11.7815 2.27749 11.0685C1.85583 10.3555 1.64499 9.34733 1.64499 8.044C1.64499 6.67933 1.88649 5.63667 2.36949 4.916C2.85249 4.19533 3.59233 3.835 4.58899 3.835C4.97999 3.835 5.32116 3.88867 5.61249 3.996C5.91149 4.10333 6.16449 4.249 6.37149 4.433C6.57849 4.60933 6.75099 4.82017 6.88899 5.0655C7.02699 5.30317 7.13816 5.55617 7.22249 5.8245L6.06099 6.2155C5.99966 6.03917 5.93066 5.87433 5.85399 5.721C5.77733 5.56 5.68149 5.41817 5.56649 5.2955C5.45916 5.17283 5.32499 5.077 5.16399 5.008C5.01066 4.939 4.82283 4.9045 4.60049 4.9045C4.04083 4.9045 3.63449 5.123 3.38149 5.56C3.13616 5.98933 3.01349 6.572 3.01349 7.308V8.5845C3.01349 8.9525 3.04033 9.28983 3.09399 9.5965C3.14766 9.90317 3.23583 10.1677 3.35849 10.39C3.48883 10.6047 3.65366 10.7733 3.85299 10.896C4.05999 11.0187 4.30916 11.08 4.60049 11.08C5.06816 11.08 5.42466 10.942 5.66999 10.666C5.92299 10.3823 6.04949 10.022 6.04949 9.585V8.8605H4.49699V7.8945H7.22249V12H6.04949V10.896ZM11.45 12.138C10.944 12.138 10.5032 12.046 10.1275 11.862C9.7595 11.6703 9.45283 11.3982 9.2075 11.0455C8.96983 10.6928 8.7935 10.2597 8.6785 9.746C8.5635 9.23233 8.506 8.64583 8.506 7.9865C8.506 7.33483 8.5635 6.75217 8.6785 6.2385C8.7935 5.71717 8.96983 5.28017 9.2075 4.9275C9.45283 4.57483 9.7595 4.3065 10.1275 4.1225C10.5032 3.93083 10.944 3.835 11.45 3.835C11.956 3.835 12.393 3.93083 12.761 4.1225C13.1367 4.3065 13.4433 4.57483 13.681 4.9275C13.9263 5.28017 14.1065 5.71717 14.2215 6.2385C14.3365 6.75217 14.394 7.33483 14.394 7.9865C14.394 8.64583 14.3365 9.23233 14.2215 9.746C14.1065 10.2597 13.9263 10.6928 13.681 11.0455C13.4433 11.3982 13.1367 11.6703 12.761 11.862C12.393 12.046 11.956 12.138 11.45 12.138ZM11.45 11.0685C12.025 11.0685 12.4313 10.8538 12.669 10.4245C12.9067 9.9875 13.0255 9.39717 13.0255 8.6535V7.308C13.0255 6.572 12.9067 5.98933 12.669 5.56C12.4313 5.123 12.025 4.9045 11.45 4.9045C10.875 4.9045 10.4687 5.123 10.231 5.56C9.99333 5.98933 9.8745 6.572 9.8745 7.308V8.665C9.8745 9.401 9.99333 9.9875 10.231 10.4245C10.4687 10.8538 10.875 11.0685 11.45 11.0685Z" fill="#1862AB"/>
</svg>
