<svg width="16" height="16" viewBox="0 0 16 16" fill="none" xmlns="http://www.w3.org/2000/svg">
<path d="M1.56381 12V4.36364H2.71598V7.68217H6.52297V4.36364H7.67887V12H6.52297V8.67028H2.71598V12H1.56381ZM13.5217 6.36967C13.482 6.01669 13.3179 5.74325 13.0295 5.54936C12.7412 5.35298 12.3783 5.25479 11.9408 5.25479C11.4709 5.25479 11.0981 5.36168 10.8222 5.57546C10.5462 5.78924 10.4083 6.05895 10.4083 6.38459C10.4083 6.6282 10.4816 6.82706 10.6283 6.98118C10.7774 7.13281 10.9589 7.25213 11.1727 7.33913C11.3889 7.42614 11.5965 7.49574 11.7953 7.54794L12.5411 7.74183C12.7847 7.80149 13.0345 7.88352 13.2905 7.98793C13.5466 8.08984 13.784 8.22408 14.0027 8.39062C14.2215 8.55469 14.398 8.75977 14.5322 9.00586C14.6689 9.25195 14.7373 9.54652 14.7373 9.88956C14.7373 10.3196 14.6254 10.7037 14.4017 11.0417C14.1805 11.3798 13.8598 11.6458 13.4397 11.8397C13.0196 12.0311 12.51 12.1268 11.9109 12.1268C11.0558 12.1268 10.3747 11.9267 9.86761 11.5265C9.36299 11.1262 9.09204 10.5806 9.05475 9.88956H10.2106C10.2455 10.3047 10.4257 10.6129 10.7513 10.8143C11.0769 11.0156 11.461 11.1163 11.9035 11.1163C12.3932 11.1163 12.7971 11.0032 13.1153 10.777C13.436 10.5508 13.5963 10.2512 13.5963 9.87837C13.5963 9.65217 13.5317 9.46697 13.4024 9.3228C13.2756 9.17614 13.1029 9.05682 12.8841 8.96484C12.6679 8.87038 12.423 8.78711 12.1496 8.71502L11.2472 8.46893C10.6332 8.30238 10.1485 8.05753 9.79304 7.73438C9.43757 7.41122 9.25983 6.98366 9.25983 6.4517C9.25983 6.01172 9.37915 5.62766 9.61779 5.29954C9.85642 4.97141 10.1796 4.71662 10.5872 4.53516C10.9974 4.35121 11.4573 4.25923 11.9669 4.25923C12.4839 4.25923 12.9401 4.34996 13.3353 4.53143C13.733 4.71289 14.0462 4.96271 14.2749 5.28089C14.5036 5.59908 14.6229 5.962 14.6329 6.36967H13.5217Z" fill="#A98D00"/>
</svg>
