<svg xmlns="http://www.w3.org/2000/svg" viewBox="0 0 16 16"><defs><style>.a{fill:#8a6e00;}</style></defs><title>hs-light</title><path class="a" d="M2.27,4.57H3.42V7.32H6.47V4.57H7.62v6.78H6.47v-3h-3v3H2.27Z"/><path class="a" d="M9.81,9.28a1.32,1.32,0,0,0,.48,1,2,2,0,0,0,1.2.31,2.1,2.1,0,0,0,.66-.09,1.12,1.12,0,0,0,.42-.23.71.71,0,0,0,.23-.34,1.1,1.1,0,0,0,.07-.41,1.19,1.19,0,0,0,0-.32.79.79,0,0,0-.17-.29,1.07,1.07,0,0,0-.33-.23,2.08,2.08,0,0,0-.53-.16l-.87-.16A5.22,5.22,0,0,1,10,8.09a1.88,1.88,0,0,1-.67-.37,1.54,1.54,0,0,1-.41-.57,2.23,2.23,0,0,1-.14-.82A1.75,1.75,0,0,1,9,5.48a1.8,1.8,0,0,1,.53-.6,2.46,2.46,0,0,1,.82-.36,4.08,4.08,0,0,1,1-.12,3.66,3.66,0,0,1,1.18.16,2.45,2.45,0,0,1,.77.42,1.86,1.86,0,0,1,.44.61A2.78,2.78,0,0,1,14,6.3l-1.08.17a1.48,1.48,0,0,0-.46-.84,1.58,1.58,0,0,0-1-.28,2.58,2.58,0,0,0-.68.07,1.2,1.2,0,0,0-.44.2.81.81,0,0,0-.24.29,1.09,1.09,0,0,0-.07.35.87.87,0,0,0,.24.67,2,2,0,0,0,.85.34l1,.18a3,3,0,0,1,1.57.68,1.8,1.8,0,0,1,.51,1.38,2.06,2.06,0,0,1-.16.79,1.77,1.77,0,0,1-.48.64,2.54,2.54,0,0,1-.8.43,3.8,3.8,0,0,1-1.12.15,3.39,3.39,0,0,1-2-.54,2.15,2.15,0,0,1-.82-1.7Z"/></svg>