<svg width="16" height="16" viewBox="0 0 16 16" fill="none" xmlns="http://www.w3.org/2000/svg">
<path d="M3.54749 3.973H5.93949C6.96683 3.973 7.72583 4.31417 8.21649 4.9965C8.71483 5.67883 8.96399 6.6755 8.96399 7.9865C8.96399 9.2975 8.71483 10.2942 8.21649 10.9765C7.72583 11.6588 6.96683 12 5.93949 12H3.54749V3.973ZM5.85899 10.942C6.44933 10.942 6.88633 10.7465 7.16999 10.3555C7.46133 9.95683 7.60699 9.3895 7.60699 8.6535V7.3195C7.60699 6.5835 7.46133 6.02 7.16999 5.629C6.88633 5.23033 6.44933 5.031 5.85899 5.031H4.82399V10.942H5.85899Z" fill="#977F00"/>
<path d="M1 12.027V4H2.288V12.027H1Z" fill="#977F00"/>
<path d="M11.2425 12H9.966V3.973H12.9675C13.7342 3.973 14.3168 4.18767 14.7155 4.617C15.1218 5.04633 15.325 5.63667 15.325 6.388C15.325 7.00133 15.1755 7.50733 14.8765 7.906C14.5775 8.30467 14.1482 8.55 13.5885 8.642L15.44 12H14.014L12.312 8.757H11.2425V12ZM12.7835 7.722C13.5808 7.722 13.9795 7.35783 13.9795 6.6295V6.135C13.9795 5.40667 13.5808 5.0425 12.7835 5.0425H11.2425V7.722H12.7835Z" fill="#977F00"/>
</svg>
