<svg xmlns="http://www.w3.org/2000/svg" viewBox="0 0 16 16"><defs><style>.a{fill:#8a6e00;}</style></defs><title>idr-light</title><path class="a" d="M1.56,4.57h1v6.78h-1Z"/><path class="a" d="M6.15,4.57a3.59,3.59,0,0,1,1.22.2,2.4,2.4,0,0,1,.93.63,2.8,2.8,0,0,1,.58,1,4.65,4.65,0,0,1,.21,1.47,4.77,4.77,0,0,1-.22,1.49,2.75,2.75,0,0,1-.62,1.07,2.48,2.48,0,0,1-1,.65,3.66,3.66,0,0,1-1.32.22h-2V4.57ZM6,10.38a2.14,2.14,0,0,0,.93-.18,1.54,1.54,0,0,0,.63-.49,2,2,0,0,0,.36-.77,3.91,3.91,0,0,0,.11-1,3.06,3.06,0,0,0-.43-1.75,1.59,1.59,0,0,0-1.41-.63H5v4.83Z"/><path class="a" d="M12.3,4.57a3.21,3.21,0,0,1,1.16.18,1.87,1.87,0,0,1,.71.47,1.6,1.6,0,0,1,.37.64,2.47,2.47,0,0,1,.1.7,2.34,2.34,0,0,1-.23,1.11,1.8,1.8,0,0,1-.77.72l1.28,3H13.78L12.67,8.66H11.22v2.68h-1V4.57Zm.08,3.14A2,2,0,0,0,13,7.63a.86.86,0,0,0,.36-.23A.78.78,0,0,0,13.52,7a1.65,1.65,0,0,0,.06-.46,1.51,1.51,0,0,0-.06-.44.83.83,0,0,0-.22-.33,1,1,0,0,0-.4-.21,2.22,2.22,0,0,0-.62-.08H11.22V7.71Z"/></svg>