<svg xmlns="http://www.w3.org/2000/svg" viewBox="0 0 16 16"><defs><style>.a{fill:#aa8d00;}</style></defs><title>idr-dark</title><path class="a" d="M1.63,4.57h1v6.78h-1Z"/><path class="a" d="M6.17,4.57a3.41,3.41,0,0,1,1.21.2,2.33,2.33,0,0,1,.92.62,2.83,2.83,0,0,1,.58,1,4.9,4.9,0,0,1,.2,1.48,4.7,4.7,0,0,1-.21,1.49,2.9,2.9,0,0,1-.62,1.07,2.55,2.55,0,0,1-1,.65,3.66,3.66,0,0,1-1.3.22H4V4.57ZM6,10.38a2.24,2.24,0,0,0,.92-.17,1.58,1.58,0,0,0,.62-.49,2.1,2.1,0,0,0,.36-.77,4.17,4.17,0,0,0,.11-1,3.1,3.1,0,0,0-.43-1.75,1.57,1.57,0,0,0-1.4-.63H5v4.83Z"/><path class="a" d="M12.25,4.57a3.09,3.09,0,0,1,1.14.18,1.88,1.88,0,0,1,.71.47,1.64,1.64,0,0,1,.36.64,2.47,2.47,0,0,1,.1.69,2.37,2.37,0,0,1-.23,1.11,1.74,1.74,0,0,1-.76.72l1.26,3H13.72l-1.09-2.7H11.18v2.68h-1V4.57Zm.08,3.13a1.79,1.79,0,0,0,.58-.08A.81.81,0,0,0,13.46,7a1.85,1.85,0,0,0,.05-.46,1.37,1.37,0,0,0-.06-.43.78.78,0,0,0-.21-.33,1,1,0,0,0-.4-.21,2.13,2.13,0,0,0-.62-.08h-1V7.71Z"/></svg>