<svg xmlns="http://www.w3.org/2000/svg" viewBox="0 0 16 16"><defs><style>.a{fill:#8b6e00;}</style></defs><title>idr-light</title><path class="a" d="M1.56,4.57h1v6.78h-1Z"/><path class="a" d="M6.15,4.57a3.49,3.49,0,0,1,1.23.2,2.35,2.35,0,0,1,.92.62,2.82,2.82,0,0,1,.58,1,4.86,4.86,0,0,1,.2,1.48,4.64,4.64,0,0,1-.22,1.49,2.89,2.89,0,0,1-.62,1.07,2.58,2.58,0,0,1-1,.65,3.74,3.74,0,0,1-1.32.22h-2V4.57ZM6,10.38a2.29,2.29,0,0,0,.93-.17,1.6,1.6,0,0,0,.63-.49,2.1,2.1,0,0,0,.36-.77,4.12,4.12,0,0,0,.11-1,3.07,3.07,0,0,0-.43-1.75,1.59,1.59,0,0,0-1.42-.63H5v4.83Z"/><path class="a" d="M12.3,4.57a3.16,3.16,0,0,1,1.15.18,1.91,1.91,0,0,1,.72.47,1.64,1.64,0,0,1,.37.64,2.47,2.47,0,0,1,.1.69,2.33,2.33,0,0,1-.24,1.11,1.75,1.75,0,0,1-.76.72l1.28,3H13.78l-1.11-2.7H11.22v2.68h-1V4.57Zm.08,3.13A1.83,1.83,0,0,0,13,7.63a.88.88,0,0,0,.37-.23A.84.84,0,0,0,13.52,7a1.76,1.76,0,0,0,.06-.46,1.37,1.37,0,0,0-.06-.43.79.79,0,0,0-.22-.33,1,1,0,0,0-.4-.21,2.18,2.18,0,0,0-.62-.08H11.22V7.71Z"/></svg>