<svg xmlns="http://www.w3.org/2000/svg" viewBox="0 0 16 16"><defs><style>.a{fill:#a98d00;}</style></defs><title>idr-dark</title><path class="a" d="M1.63,4.57h1v6.78h-1Z"/><path class="a" d="M6.17,4.57a3.53,3.53,0,0,1,1.21.2,2.33,2.33,0,0,1,.91.63,2.8,2.8,0,0,1,.58,1,5,5,0,0,1,.2,1.47,4.78,4.78,0,0,1-.21,1.49,2.75,2.75,0,0,1-.62,1.07,2.44,2.44,0,0,1-1,.65,3.55,3.55,0,0,1-1.3.22H4V4.57ZM6,10.38a2.13,2.13,0,0,0,.92-.18,1.54,1.54,0,0,0,.63-.49,2.09,2.09,0,0,0,.35-.77,3.91,3.91,0,0,0,.11-1,3.15,3.15,0,0,0-.42-1.75,1.59,1.59,0,0,0-1.41-.63H5v4.83Z"/><path class="a" d="M12.25,4.57a3.06,3.06,0,0,1,1.14.18,1.87,1.87,0,0,1,.71.47,1.6,1.6,0,0,1,.37.64,2.47,2.47,0,0,1,.1.7,2.46,2.46,0,0,1-.23,1.11,1.77,1.77,0,0,1-.76.72l1.26,3H13.72l-1.1-2.69H11.18v2.68h-1V4.57Zm.08,3.14a1.89,1.89,0,0,0,.58-.08.9.9,0,0,0,.37-.23A.87.87,0,0,0,13.46,7a1.65,1.65,0,0,0,.06-.46,1.51,1.51,0,0,0-.06-.44.83.83,0,0,0-.22-.33,1,1,0,0,0-.4-.21,2.1,2.1,0,0,0-.61-.08H11.18V7.71Z"/></svg>