<svg width="16" height="16" viewBox="0 0 16 16" fill="none" xmlns="http://www.w3.org/2000/svg">
<g clip-path="url(#clip0)">
<path d="M2.19098 4.36364V12H1.03881V4.36364H2.19098ZM5.81601 12H3.34389V4.36364H5.89431C6.64502 4.36364 7.2876 4.51651 7.82205 4.82227C8.35898 5.12553 8.77038 5.56179 9.05625 6.13104C9.3446 6.6978 9.48877 7.37766 9.48877 8.17063C9.48877 8.96609 9.3446 9.64968 9.05625 10.2214C8.76789 10.7931 8.34904 11.2331 7.79968 11.5414C7.2528 11.8471 6.59158 12 5.81601 12ZM4.49605 10.9933H5.75262C6.62265 10.9933 7.27393 10.7496 7.70646 10.2624C8.13899 9.77273 8.35525 9.07546 8.35525 8.17063C8.35525 7.27077 8.14147 6.57972 7.71392 6.09748C7.28884 5.61275 6.6587 5.37038 5.82347 5.37038H4.49605V10.9933ZM10.3965 12V4.36364H13.1185C13.7101 4.36364 14.201 4.46555 14.5913 4.66939C14.9816 4.87322 15.2737 5.15536 15.4675 5.5158C15.6639 5.87376 15.7621 6.28764 15.7621 6.75746C15.7621 7.26953 15.6453 7.71325 15.4116 8.0886C15.1804 8.46147 14.8299 8.73491 14.3601 8.90891L16.053 12H14.7405L13.1893 9.11026C13.1645 9.11026 13.1396 9.11026 13.1147 9.11026H11.5487V12H10.3965ZM11.5487 8.11843H13.0103C13.5721 8.11843 13.9773 7.99911 14.2259 7.76048C14.477 7.52184 14.6025 7.1875 14.6025 6.75746C14.6025 6.32493 14.477 5.98313 14.2259 5.73207C13.9748 5.47852 13.5647 5.35174 12.9954 5.35174H11.5487V8.11843Z" fill="#A98D00"/>
</g>
<defs>
<clipPath id="clip0">
<rect width="16" height="16" fill="white"/>
</clipPath>
</defs>
</svg>
