<svg xmlns="http://www.w3.org/2000/svg" viewBox="0 0 16 16"><defs><style>.a{fill:#4f575e;}.b{opacity:0.6;}.c{fill:#007c2b;}.d{fill:#3b5bdb;}.e{fill:#aa302f;}</style></defs><title>image-vector-light</title><path class="a" d="M14,3H2V13H14Zm-1,9H3V4H13Z"/><g class="b"><line class="a" x1="10.83" y1="9.46" x2="9.22" y2="6.67"/><rect class="a" x="9.65" y="6.45" width="0.75" height="3.22" transform="translate(-2.69 6.09) rotate(-29.99)"/></g><g class="b"><line class="a" x1="5.39" y1="7.98" x2="8.18" y2="6.37"/><rect class="a" x="5.18" y="6.8" width="3.22" height="0.75" transform="translate(-2.68 4.35) rotate(-29.97)"/></g><path class="c" d="M9.4,7A1.13,1.13,0,0,0,8.26,5,1.13,1.13,0,0,0,9.4,7ZM8.59,5.59a.48.48,0,0,1,.48.82.48.48,0,0,1-.48-.82Z"/><path class="d" d="M5.42,9.27a1.12,1.12,0,0,0,.42-1.54,1.13,1.13,0,1,0-.42,1.54Zm-.8-1.39a.48.48,0,0,1,.65.18.47.47,0,0,1-.18.64.47.47,0,0,1-.64-.17A.48.48,0,0,1,4.62,7.88Z"/><path class="e" d="M11.71,11a1.13,1.13,0,1,0-1.55-.41A1.14,1.14,0,0,0,11.71,11Zm-.8-1.39a.47.47,0,0,1,.64.18.47.47,0,0,1-.17.64.48.48,0,0,1-.65-.17A.48.48,0,0,1,10.91,9.59Z"/></svg>