<svg width="16" height="16" viewBox="0 0 16 16" fill="none" xmlns="http://www.w3.org/2000/svg">
<path d="M14 3H2V13H14V3ZM13 12H3V4H13V12Z" fill="#949CA3"/>
<path opacity="0.6" d="M9.54252 6.48157L8.89209 6.85699L10.5022 9.64666L11.1527 9.27124L9.54252 6.48157Z" fill="#949CA3"/>
<path opacity="0.6" d="M7.99732 6.04661L5.20605 7.65601L5.58118 8.30661L8.37244 6.69721L7.99732 6.04661Z" fill="#949CA3"/>
<path d="M9.40011 6.97799C9.59383 6.86614 9.75005 6.69936 9.84898 6.49874C9.94792 6.29812 9.98513 6.07268 9.95593 5.8509C9.92673 5.62912 9.83244 5.42098 9.68495 5.2528C9.53746 5.08462 9.34341 4.96396 9.12735 4.90606C8.91128 4.84816 8.6829 4.85565 8.47108 4.92754C8.25926 4.99944 8.07352 5.13253 7.93735 5.30999C7.80117 5.48745 7.72067 5.70131 7.70604 5.92452C7.6914 6.14773 7.74328 6.37027 7.85512 6.56399C7.92928 6.69272 8.02811 6.80557 8.14593 6.89607C8.26376 6.98656 8.39826 7.05293 8.54176 7.09138C8.68526 7.12983 8.83495 7.13961 8.98224 7.12016C9.12952 7.1007 9.27152 7.05239 9.40011 6.97799V6.97799ZM8.60013 5.591C8.68077 5.54431 8.77345 5.5226 8.86644 5.5286C8.95943 5.53461 9.04855 5.56805 9.12253 5.62472C9.1965 5.68139 9.25199 5.75873 9.282 5.84695C9.312 5.93517 9.31517 6.03031 9.29109 6.12032C9.26701 6.21034 9.21677 6.2912 9.14673 6.35265C9.07668 6.41411 8.98998 6.45342 8.8976 6.46559C8.80521 6.47775 8.71128 6.46224 8.62771 6.42101C8.54414 6.37979 8.47468 6.3147 8.42811 6.23399C8.36524 6.12662 8.34742 5.99873 8.37852 5.87826C8.40963 5.75778 8.48712 5.65452 8.59411 5.591H8.60013Z" fill="#61B86B"/>
<path d="M5.42503 9.27099C5.61875 9.15914 5.77495 8.99236 5.87388 8.79174C5.97282 8.59112 6.01004 8.36567 5.98085 8.1439C5.95165 7.92212 5.85734 7.71399 5.70985 7.54582C5.56236 7.37764 5.36832 7.25696 5.15225 7.19906C4.93618 7.14116 4.7078 7.14865 4.49598 7.22054C4.28417 7.29244 4.09842 7.42553 3.96225 7.60299C3.82607 7.78045 3.74557 7.99431 3.73094 8.21752C3.7163 8.44073 3.76819 8.66326 3.88003 8.85699C3.95429 8.98562 4.05315 9.09837 4.17099 9.18879C4.28882 9.27921 4.42332 9.34554 4.56679 9.38398C4.71025 9.42242 4.85988 9.43224 5.00714 9.41285C5.1544 9.39346 5.2964 9.34526 5.42503 9.27099V9.27099ZM4.62503 7.88299C4.70575 7.83657 4.79841 7.81513 4.89131 7.82136C4.98421 7.82759 5.07318 7.86121 5.14699 7.91798C5.22079 7.97475 5.2761 8.05212 5.30595 8.14031C5.3358 8.22851 5.33885 8.32357 5.31469 8.41349C5.29054 8.50341 5.24027 8.58417 5.17024 8.64553C5.10021 8.7069 5.01356 8.74613 4.92125 8.75828C4.82893 8.77042 4.73509 8.75493 4.65158 8.71377C4.56806 8.6726 4.49862 8.6076 4.45202 8.52699C4.42085 8.47345 4.40059 8.4143 4.39236 8.3529C4.38414 8.2915 4.38813 8.22908 4.40411 8.16923C4.4201 8.10938 4.44776 8.05328 4.4855 8.00416C4.52324 7.95504 4.57031 7.91385 4.62402 7.88299H4.62503Z" fill="#62ABF3"/>
<path d="M11.706 10.981C11.8997 10.8692 12.056 10.7024 12.1549 10.5018C12.2538 10.3011 12.291 10.0757 12.2618 9.85391C12.2326 9.63214 12.1383 9.42399 11.9909 9.25581C11.8434 9.08763 11.6493 8.96697 11.4333 8.90907C11.2172 8.85118 10.9888 8.85864 10.777 8.93054C10.5652 9.00244 10.3794 9.13554 10.2433 9.313C10.1071 9.49046 10.0266 9.70433 10.0119 9.92754C9.99731 10.1507 10.0492 10.3733 10.161 10.567C10.2353 10.6956 10.3342 10.8084 10.452 10.8988C10.5698 10.9892 10.7043 11.0556 10.8478 11.094C10.9913 11.1324 11.1409 11.1422 11.2881 11.1228C11.4354 11.1035 11.5774 11.0553 11.706 10.981V10.981ZM10.906 9.593C10.9867 9.54643 11.0793 9.52482 11.1722 9.53088C11.2652 9.53695 11.3542 9.57042 11.4281 9.62708C11.502 9.68373 11.5575 9.76103 11.5875 9.8492C11.6175 9.93736 11.6206 10.0324 11.5966 10.1224C11.5726 10.2124 11.5224 10.2932 11.4525 10.3547C11.3825 10.4162 11.2959 10.4555 11.2036 10.4678C11.1113 10.48 11.0174 10.4647 10.9338 10.4236C10.8502 10.3825 10.7807 10.3176 10.734 10.237C10.6708 10.1295 10.6528 10.0014 10.6839 9.88069C10.7151 9.75998 10.7928 9.65653 10.9 9.593H10.906Z" fill="#DD5E5E"/>
</svg>
