<svg xmlns="http://www.w3.org/2000/svg" viewBox="0 0 16 16"><defs><style>.a{fill:#ea5e5e;}.b{fill:#56b3b4;}.c{fill:#bf85bf;}.d{fill:#f7ba3e;}.e{fill:#7c868d;}</style></defs><title>image-dark</title><path class="a" d="M4.36,10.55A.37.37,0,0,1,4,10.18a.36.36,0,0,1,.36-.36H6.18a.37.37,0,0,1,.37.36.38.38,0,0,1-.37.37Z"/><path class="a" d="M4.36,9.09A.36.36,0,0,1,4,8.73a.37.37,0,0,1,.36-.37H5.82a.37.37,0,0,1,.36.37.36.36,0,0,1-.36.36Z"/><path class="b" d="M9.09,9.82a.37.37,0,0,1,0-.73h1.46a.37.37,0,0,1,0,.73Z"/><path class="c" d="M5.45,9.82a.37.37,0,0,1,0-.73H7.27a.37.37,0,1,1,0,.73Z"/><path class="d" d="M4.36,9.82a.37.37,0,0,1,0-.73h.37a.37.37,0,0,1,0,.73Z"/><path class="b" d="M10.91,10.55a.37.37,0,0,1-.36-.37.36.36,0,0,1,.36-.36h.73a.36.36,0,0,1,.36.36.37.37,0,0,1-.36.37Z"/><path class="b" d="M6.55,9.09a.36.36,0,0,1-.37-.36.37.37,0,0,1,.37-.37h2.9a.37.37,0,0,1,.37.37.36.36,0,0,1-.37.36Z"/><path class="a" d="M11.27,9.82a.37.37,0,0,1,0-.73h.37a.37.37,0,0,1,0,.73Z"/><path class="c" d="M10.18,9.09a.36.36,0,0,1-.36-.36.37.37,0,0,1,.36-.37h1.46a.37.37,0,0,1,.36.37.36.36,0,0,1-.36.36Z"/><path class="d" d="M6.91,10.55a.37.37,0,0,1-.36-.37.36.36,0,0,1,.36-.36h3.27a.37.37,0,0,1,.37.36.38.38,0,0,1-.37.37Z"/><path class="c" d="M8,9.82a.37.37,0,0,1,0-.73h.36a.37.37,0,1,1,0,.73Z"/><path class="b" d="M8.73,11.27a.36.36,0,1,1,0-.72h1.82a.36.36,0,0,1,0,.72Z"/><path class="b" d="M7.64,11.27a.36.36,0,1,1,0-.72H8a.36.36,0,0,1,0,.72Z"/><path class="b" d="M4.36,11.27a.36.36,0,0,1,0-.72H5.82a.36.36,0,0,1,0,.72Z"/><path class="c" d="M6.55,11.27a.36.36,0,1,1,0-.72h.36a.36.36,0,0,1,0,.72Z"/><path class="b" d="M11.27,11.27a.36.36,0,0,1,0-.72h.37a.36.36,0,0,1,0,.72Z"/><path class="c" d="M6.55,8.36a.36.36,0,1,1,0-.72h.36a.36.36,0,0,1,0,.72Z"/><path class="a" d="M4.73,5.45a.36.36,0,1,1,0-.72H5.82a.36.36,0,0,1,0,.72Z"/><path class="a" d="M4.73,6.18a.37.37,0,0,1-.37-.36.38.38,0,0,1,.37-.37H5.82a.37.37,0,0,1,.36.37.36.36,0,0,1-.36.36Z"/><path class="e" d="M14,3H2V13H14Zm-1,9H3V4H13Z"/></svg>