<svg width="16" height="16" viewBox="0 0 16 16" fill="none" xmlns="http://www.w3.org/2000/svg">
<path d="M4.36403 10.545C4.31469 10.5476 4.26534 10.5401 4.21899 10.523C4.17263 10.5059 4.13025 10.4795 4.09441 10.4455C4.05857 10.4115 4.03002 10.3706 4.01052 10.3252C3.99102 10.2798 3.98096 10.2309 3.98096 10.1815C3.98096 10.1321 3.99102 10.0832 4.01052 10.0378C4.03002 9.99241 4.05857 9.95145 4.09441 9.91745C4.13025 9.88344 4.17263 9.85709 4.21899 9.83999C4.26534 9.82289 4.31469 9.8154 4.36403 9.81799H6.18203C6.23137 9.8154 6.28072 9.82289 6.32707 9.83999C6.37343 9.85709 6.41581 9.88344 6.45165 9.91745C6.48749 9.95145 6.51603 9.99241 6.53554 10.0378C6.55504 10.0832 6.5651 10.1321 6.5651 10.1815C6.5651 10.2309 6.55504 10.2798 6.53554 10.3252C6.51603 10.3706 6.48749 10.4115 6.45165 10.4455C6.41581 10.4795 6.37343 10.5059 6.32707 10.523C6.28072 10.5401 6.23137 10.5476 6.18203 10.545H4.36403Z" fill="#EA5E5E"/>
<path d="M4.36398 9.09C4.26758 9.09 4.17512 9.05171 4.10695 8.98354C4.03878 8.91537 4.00049 8.82291 4.00049 8.7265C4.00049 8.6301 4.03878 8.53764 4.10695 8.46947C4.17512 8.4013 4.26758 8.36301 4.36398 8.36301H5.81799C5.91439 8.36301 6.00685 8.4013 6.07502 8.46947C6.14319 8.53764 6.18149 8.6301 6.18149 8.7265C6.18149 8.82291 6.14319 8.91537 6.07502 8.98354C6.00685 9.05171 5.91439 9.09 5.81799 9.09H4.36398Z" fill="#EA5E5E"/>
<path d="M9.09105 9.81799C8.99464 9.81799 8.90218 9.7797 8.83401 9.71153C8.76585 9.64336 8.72754 9.5509 8.72754 9.4545C8.72754 9.35809 8.76585 9.26563 8.83401 9.19746C8.90218 9.12929 8.99464 9.091 9.09105 9.091H10.545C10.6415 9.091 10.7339 9.12929 10.8021 9.19746C10.8702 9.26563 10.9085 9.35809 10.9085 9.4545C10.9085 9.5509 10.8702 9.64336 10.8021 9.71153C10.7339 9.7797 10.6415 9.81799 10.545 9.81799H9.09105Z" fill="#56B3B4"/>
<path d="M5.45408 9.81799C5.35767 9.81799 5.26521 9.7797 5.19704 9.71153C5.12887 9.64336 5.09058 9.5509 5.09058 9.4545C5.09058 9.35809 5.12887 9.26563 5.19704 9.19746C5.26521 9.12929 5.35767 9.091 5.45408 9.091H7.27308C7.36949 9.091 7.46194 9.12929 7.53011 9.19746C7.59828 9.26563 7.63657 9.35809 7.63657 9.4545C7.63657 9.5509 7.59828 9.64336 7.53011 9.71153C7.46194 9.7797 7.36949 9.81799 7.27308 9.81799H5.45408Z" fill="#BF85BF"/>
<path d="M4.36301 9.81799C4.26661 9.81799 4.17415 9.7797 4.10598 9.71153C4.03781 9.64336 3.99951 9.5509 3.99951 9.4545C3.99951 9.35809 4.03781 9.26563 4.10598 9.19746C4.17415 9.12929 4.26661 9.091 4.36301 9.091H4.72801C4.82442 9.091 4.91688 9.12929 4.98505 9.19746C5.05322 9.26563 5.09151 9.35809 5.09151 9.4545C5.09151 9.5509 5.05322 9.64336 4.98505 9.71153C4.91688 9.7797 4.82442 9.81799 4.72801 9.81799H4.36301Z" fill="#F7BA3E"/>
<path d="M10.9091 10.545C10.816 10.5401 10.7283 10.4997 10.6642 10.432C10.6 10.3644 10.5642 10.2747 10.5642 10.1815C10.5642 10.0883 10.6 9.99858 10.6642 9.93095C10.7283 9.86332 10.816 9.82287 10.9091 9.81799H11.6361C11.6855 9.8154 11.7348 9.82289 11.7812 9.83999C11.8275 9.85709 11.8699 9.88344 11.9058 9.91745C11.9416 9.95145 11.9702 9.99241 11.9897 10.0378C12.0092 10.0832 12.0192 10.1321 12.0192 10.1815C12.0192 10.2309 12.0092 10.2798 11.9897 10.3252C11.9702 10.3706 11.9416 10.4115 11.9058 10.4455C11.8699 10.4795 11.8275 10.5059 11.7812 10.523C11.7348 10.5401 11.6855 10.5476 11.6361 10.545H10.9091Z" fill="#56B3B4"/>
<path d="M6.54514 9.09C6.44873 9.09 6.35627 9.05171 6.2881 8.98354C6.21993 8.91537 6.18164 8.82291 6.18164 8.7265C6.18164 8.6301 6.21993 8.53764 6.2881 8.46947C6.35627 8.4013 6.44873 8.36301 6.54514 8.36301H9.45514C9.55155 8.36301 9.644 8.4013 9.71217 8.46947C9.78034 8.53764 9.81863 8.6301 9.81863 8.7265C9.81863 8.82291 9.78034 8.91537 9.71217 8.98354C9.644 9.05171 9.55155 9.09 9.45514 9.09H6.54514Z" fill="#56B3B4"/>
<path d="M11.2729 9.81799C11.1765 9.81799 11.0841 9.7797 11.0159 9.71153C10.9477 9.64336 10.9094 9.5509 10.9094 9.4545C10.9094 9.35809 10.9477 9.26563 11.0159 9.19746C11.0841 9.12929 11.1765 9.091 11.2729 9.091H11.6359C11.7323 9.091 11.8248 9.12929 11.893 9.19746C11.9611 9.26563 11.9994 9.35809 11.9994 9.4545C11.9994 9.5509 11.9611 9.64336 11.893 9.71153C11.8248 9.7797 11.7323 9.81799 11.6359 9.81799H11.2729Z" fill="#EA5E5E"/>
<path d="M10.1821 9.09C10.0857 9.09 9.99325 9.05171 9.92508 8.98354C9.85691 8.91537 9.8186 8.82291 9.8186 8.7265C9.8186 8.6301 9.85691 8.53764 9.92508 8.46947C9.99325 8.4013 10.0857 8.36301 10.1821 8.36301H11.6361C11.7325 8.36301 11.825 8.4013 11.8931 8.46947C11.9613 8.53764 11.9996 8.6301 11.9996 8.7265C11.9996 8.82291 11.9613 8.91537 11.8931 8.98354C11.825 9.05171 11.7325 9.09 11.6361 9.09H10.1821Z" fill="#BF85BF"/>
<path d="M6.90913 10.545C6.81602 10.5401 6.72835 10.4997 6.66417 10.432C6.59999 10.3644 6.56421 10.2747 6.56421 10.1815C6.56421 10.0883 6.59999 9.99858 6.66417 9.93095C6.72835 9.86332 6.81602 9.82287 6.90913 9.81799H10.1821C10.2315 9.8154 10.2808 9.82289 10.3272 9.83999C10.3735 9.85709 10.4159 9.88344 10.4518 9.91745C10.4876 9.95145 10.5161 9.99241 10.5356 10.0378C10.5551 10.0832 10.5652 10.1321 10.5652 10.1815C10.5652 10.2309 10.5551 10.2798 10.5356 10.3252C10.5161 10.3706 10.4876 10.4115 10.4518 10.4455C10.4159 10.4795 10.3735 10.5059 10.3272 10.523C10.2808 10.5401 10.2315 10.5476 10.1821 10.545H6.90913Z" fill="#F7BA3E"/>
<path d="M7.99998 9.81799C7.90357 9.81799 7.81111 9.7797 7.74294 9.71153C7.67477 9.64336 7.63647 9.5509 7.63647 9.4545C7.63647 9.35809 7.67477 9.26563 7.74294 9.19746C7.81111 9.12929 7.90357 9.091 7.99998 9.091H8.36398C8.46038 9.091 8.55284 9.12929 8.62101 9.19746C8.68918 9.26563 8.72747 9.35809 8.72747 9.4545C8.72747 9.5509 8.68918 9.64336 8.62101 9.71153C8.55284 9.7797 8.46038 9.81799 8.36398 9.81799H7.99998Z" fill="#BF85BF"/>
<path d="M8.72707 11.272C8.67773 11.2746 8.62837 11.2671 8.58202 11.25C8.53566 11.2329 8.49328 11.2066 8.45744 11.1725C8.4216 11.1385 8.39305 11.0976 8.37355 11.0522C8.35405 11.0068 8.34399 10.9579 8.34399 10.9085C8.34399 10.8591 8.35405 10.8102 8.37355 10.7648C8.39305 10.7194 8.4216 10.6785 8.45744 10.6445C8.49328 10.6104 8.53566 10.5841 8.58202 10.567C8.62837 10.5499 8.67773 10.5424 8.72707 10.545H10.5461C10.6392 10.5499 10.7269 10.5903 10.791 10.6579C10.8552 10.7256 10.891 10.8153 10.891 10.9085C10.891 11.0017 10.8552 11.0914 10.791 11.1591C10.7269 11.2267 10.6392 11.2671 10.5461 11.272H8.72707Z" fill="#56B3B4"/>
<path d="M7.636 11.272C7.58666 11.2746 7.53731 11.2671 7.49096 11.25C7.4446 11.2329 7.40221 11.2066 7.36637 11.1725C7.33053 11.1385 7.302 11.0976 7.28249 11.0522C7.26299 11.0068 7.25293 10.9579 7.25293 10.9085C7.25293 10.8591 7.26299 10.8102 7.28249 10.7648C7.302 10.7194 7.33053 10.6785 7.36637 10.6445C7.40221 10.6104 7.4446 10.5841 7.49096 10.567C7.53731 10.5499 7.58666 10.5424 7.636 10.545H8C8.04934 10.5424 8.0987 10.5499 8.14505 10.567C8.1914 10.5841 8.23378 10.6104 8.26962 10.6445C8.30546 10.6785 8.33401 10.7194 8.35352 10.7648C8.37302 10.8102 8.38307 10.8591 8.38307 10.9085C8.38307 10.9579 8.37302 11.0068 8.35352 11.0522C8.33401 11.0976 8.30546 11.1385 8.26962 11.1725C8.23378 11.2066 8.1914 11.2329 8.14505 11.25C8.0987 11.2671 8.04934 11.2746 8 11.272H7.636Z" fill="#56B3B4"/>
<path d="M4.36403 11.272C4.31469 11.2746 4.26534 11.2671 4.21899 11.25C4.17263 11.2329 4.13025 11.2066 4.09441 11.1725C4.05857 11.1385 4.03002 11.0976 4.01052 11.0522C3.99102 11.0068 3.98096 10.9579 3.98096 10.9085C3.98096 10.8591 3.99102 10.8102 4.01052 10.7648C4.03002 10.7194 4.05857 10.6785 4.09441 10.6445C4.13025 10.6104 4.17263 10.5841 4.21899 10.567C4.26534 10.5499 4.31469 10.5424 4.36403 10.545H5.81803C5.86737 10.5424 5.91672 10.5499 5.96307 10.567C6.00943 10.5841 6.05181 10.6104 6.08765 10.6445C6.12349 10.6785 6.15204 10.7194 6.17154 10.7648C6.19104 10.8102 6.2011 10.8591 6.2011 10.9085C6.2011 10.9579 6.19104 11.0068 6.17154 11.0522C6.15204 11.0976 6.12349 11.1385 6.08765 11.1725C6.05181 11.2066 6.00943 11.2329 5.96307 11.25C5.91672 11.2671 5.86737 11.2746 5.81803 11.272H4.36403Z" fill="#56B3B4"/>
<path d="M6.54591 11.272C6.49657 11.2746 6.44723 11.2671 6.40087 11.25C6.35452 11.2329 6.31213 11.2066 6.27629 11.1725C6.24045 11.1385 6.21191 11.0976 6.19241 11.0522C6.1729 11.0068 6.16284 10.9579 6.16284 10.9085C6.16284 10.8591 6.1729 10.8102 6.19241 10.7648C6.21191 10.7194 6.24045 10.6785 6.27629 10.6445C6.31213 10.6104 6.35452 10.5841 6.40087 10.567C6.44723 10.5499 6.49657 10.5424 6.54591 10.545H6.90891C6.95825 10.5424 7.00761 10.5499 7.05396 10.567C7.10032 10.5841 7.1427 10.6104 7.17854 10.6445C7.21438 10.6785 7.24292 10.7194 7.26243 10.7648C7.28193 10.8102 7.29198 10.8591 7.29198 10.9085C7.29198 10.9579 7.28193 11.0068 7.26243 11.0522C7.24292 11.0976 7.21438 11.1385 7.17854 11.1725C7.1427 11.2066 7.10032 11.2329 7.05396 11.25C7.00761 11.2671 6.95825 11.2746 6.90891 11.272H6.54591Z" fill="#BF85BF"/>
<path d="M11.273 11.272C11.2236 11.2746 11.1743 11.2671 11.1279 11.25C11.0816 11.2329 11.0392 11.2066 11.0033 11.1725C10.9675 11.1385 10.939 11.0976 10.9195 11.0522C10.9 11.0068 10.8899 10.9579 10.8899 10.9085C10.8899 10.8591 10.9 10.8102 10.9195 10.7648C10.939 10.7194 10.9675 10.6785 11.0033 10.6445C11.0392 10.6104 11.0816 10.5841 11.1279 10.567C11.1743 10.5499 11.2236 10.5424 11.273 10.545H11.636C11.6853 10.5424 11.7347 10.5499 11.781 10.567C11.8274 10.5841 11.8698 10.6104 11.9056 10.6445C11.9414 10.6785 11.97 10.7194 11.9895 10.7648C12.009 10.8102 12.019 10.8591 12.019 10.9085C12.019 10.9579 12.009 11.0068 11.9895 11.0522C11.97 11.0976 11.9414 11.1385 11.9056 11.1725C11.8698 11.2066 11.8274 11.2329 11.781 11.25C11.7347 11.2671 11.6853 11.2746 11.636 11.272H11.273Z" fill="#56B3B4"/>
<path d="M6.54512 8.36301C6.45201 8.35812 6.36433 8.31768 6.30015 8.25005C6.23597 8.18241 6.2002 8.09273 6.2002 7.9995C6.2002 7.90626 6.23597 7.81658 6.30015 7.74895C6.36433 7.68131 6.45201 7.64089 6.54512 7.636H6.90912C7.00223 7.64089 7.08991 7.68131 7.15409 7.74895C7.21827 7.81658 7.25405 7.90626 7.25405 7.9995C7.25405 8.09273 7.21827 8.18241 7.15409 8.25005C7.08991 8.31768 7.00223 8.35812 6.90912 8.36301H6.54512Z" fill="#BF85BF"/>
<path d="M4.72804 5.455C4.6787 5.45759 4.62935 5.4501 4.583 5.433C4.53665 5.4159 4.49426 5.38955 4.45842 5.35554C4.42258 5.32153 4.39404 5.28058 4.37453 5.23519C4.35503 5.18979 4.34497 5.1409 4.34497 5.0915C4.34497 5.04209 4.35503 4.9932 4.37453 4.9478C4.39404 4.90241 4.42258 4.86146 4.45842 4.82745C4.49426 4.79344 4.53665 4.76709 4.583 4.74999C4.62935 4.73289 4.6787 4.7254 4.72804 4.72799H5.81805C5.86739 4.7254 5.91673 4.73289 5.96309 4.74999C6.00944 4.76709 6.05183 4.79344 6.08767 4.82745C6.12351 4.86146 6.15205 4.90241 6.17155 4.9478C6.19106 4.9932 6.20112 5.04209 6.20112 5.0915C6.20112 5.1409 6.19106 5.18979 6.17155 5.23519C6.15205 5.28058 6.12351 5.32153 6.08767 5.35554C6.05183 5.38955 6.00944 5.4159 5.96309 5.433C5.91673 5.4501 5.86739 5.45759 5.81805 5.455H4.72804Z" fill="#EA5E5E"/>
<path d="M4.728 6.182C4.63159 6.182 4.53914 6.1437 4.47097 6.07553C4.4028 6.00736 4.3645 5.9149 4.3645 5.8185C4.3645 5.72209 4.4028 5.62964 4.47097 5.56147C4.53914 5.4933 4.63159 5.455 4.728 5.455H5.818C5.91441 5.455 6.00687 5.4933 6.07504 5.56147C6.1432 5.62964 6.1815 5.72209 6.1815 5.8185C6.1815 5.9149 6.1432 6.00736 6.07504 6.07553C6.00687 6.1437 5.91441 6.182 5.818 6.182H4.728Z" fill="#EA5E5E"/>
<path d="M14 3H2V13H14V3ZM13 12H3V4H13V12Z" fill="#4F575E"/>
</svg>
