<svg width="16" height="16" viewBox="0 0 16 16" fill="none" xmlns="http://www.w3.org/2000/svg">
<path d="M7.5 7V6.5C7.5 5.94772 7.05228 5.5 6.5 5.5H4.5C3.94772 5.5 3.5 5.05228 3.5 4.5V4.5C3.5 3.94772 3.94772 3.5 4.5 3.5H8.5C9.05228 3.5 9.5 3.05228 9.5 2.5V2M11.2 9.5L11.5 8.5H3.5L4.7862 12.7873C4.9131 13.2103 5.30242 13.5 5.74403 13.5H9.25597C9.69758 13.5 10.0869 13.2103 10.2138 12.7873L10.3 12.5M11.2 9.5H12.5C13.0523 9.5 13.5 9.94772 13.5 10.5V11.5C13.5 12.0523 13.0523 12.5 12.5 12.5H10.3M11.2 9.5L10.3 12.5" stroke="#B92626" stroke-linecap="round" stroke-linejoin="round"/>
</svg>
