<svg xmlns="http://www.w3.org/2000/svg" viewBox="0 0 16 16"><defs><style>.a{fill:#da7300;}</style></defs><title>js-dark</title><path class="a" d="M3.43,9.17a2.78,2.78,0,0,0,.11.56,1.37,1.37,0,0,0,.24.43,1.15,1.15,0,0,0,.4.28,1.72,1.72,0,0,0,.61.1,1.14,1.14,0,0,0,1-.4A1.89,1.89,0,0,0,6.07,9V4.57H7.22v4.5a2.44,2.44,0,0,1-.65,1.84,2.49,2.49,0,0,1-1.77.61A2.59,2.59,0,0,1,3,11a2.47,2.47,0,0,1-.72-1.78Z"/><path class="a" d="M9.34,9.28a1.35,1.35,0,0,0,.48,1,2,2,0,0,0,1.21.31,2,2,0,0,0,.65-.09,1.17,1.17,0,0,0,.43-.23.79.79,0,0,0,.23-.34,1.35,1.35,0,0,0,.06-.41,1.17,1.17,0,0,0,0-.32,1,1,0,0,0-.17-.29,1.26,1.26,0,0,0-.34-.23,2,2,0,0,0-.53-.16l-.86-.16a5.11,5.11,0,0,1-.92-.24,2,2,0,0,1-.67-.37,1.51,1.51,0,0,1-.4-.57,2,2,0,0,1-.14-.82,1.75,1.75,0,0,1,.19-.85,1.72,1.72,0,0,1,.54-.6,2.5,2.5,0,0,1,.81-.36,4.19,4.19,0,0,1,1-.12,3.66,3.66,0,0,1,1.18.16,2.34,2.34,0,0,1,.77.42,1.76,1.76,0,0,1,.45.61,2.78,2.78,0,0,1,.21.71l-1.09.17A1.48,1.48,0,0,0,12,5.63a1.56,1.56,0,0,0-1-.28,2.63,2.63,0,0,0-.68.07,1.15,1.15,0,0,0-.43.2.72.72,0,0,0-.24.29.87.87,0,0,0-.07.35.87.87,0,0,0,.24.67,1.85,1.85,0,0,0,.85.34l.94.18a3.06,3.06,0,0,1,1.58.68,1.84,1.84,0,0,1,.5,1.38,1.89,1.89,0,0,1-.16.79,1.57,1.57,0,0,1-.48.64,2.43,2.43,0,0,1-.8.43,3.75,3.75,0,0,1-1.12.15A3.43,3.43,0,0,1,9,11a2.17,2.17,0,0,1-.81-1.7Z"/></svg>