<svg width="16" height="16" viewBox="0 0 16 16" fill="none" xmlns="http://www.w3.org/2000/svg">
<path fill-rule="evenodd" clip-rule="evenodd" d="M5.47681 9L7.99976 6.47704L10.5227 9L7.99976 11.523L5.47681 9ZM6.52332 9L7.99976 10.4764L9.4762 9L7.99976 7.52356L6.52332 9Z" fill="#F88A10"/>
<path d="M9.5 3V5.5H12M4.5 13.5H11.5C12.0523 13.5 12.5 13.0523 12.5 12.5V5.70711C12.5 5.5745 12.4473 5.44732 12.3536 5.35355L9.64645 2.64645C9.55268 2.55268 9.4255 2.5 9.29289 2.5H4.5C3.94772 2.5 3.5 2.94771 3.5 3.5V12.5C3.5 13.0523 3.94772 13.5 4.5 13.5Z" stroke="#949CA3"/>
</svg>
