<svg width="16" height="16" viewBox="0 0 16 16" fill="none" xmlns="http://www.w3.org/2000/svg">
<path d="M8 11C4.68629 11 2 9.65685 2 8C2 7.41196 2.33837 6.86344 2.92308 6.40045M8 5C11.3137 5 14 6.34315 14 8C14 8.58804 13.6616 9.13656 13.0769 9.59955" stroke="#F88A10" stroke-width="0.9" stroke-linecap="round"/>
<path d="M5.40199 9.5C3.74514 6.63024 3.56519 3.63228 5.00007 2.80385C5.50932 2.50983 6.15355 2.52861 6.84686 2.80348M10.5981 6.5C12.255 9.36976 12.4349 12.3677 11.0001 13.1962C10.4908 13.4902 9.84659 13.4714 9.15328 13.1965" stroke="#F88A10" stroke-width="0.9" stroke-linecap="round"/>
<path d="M5.40199 6.5C7.05885 3.63024 9.56519 1.97542 11.0001 2.80385C11.5093 3.09787 11.8152 3.66517 11.9238 4.40303M10.5981 9.5C8.94129 12.3698 6.43495 14.0246 5.00007 13.1962C4.49081 12.9021 4.18496 12.3348 4.07636 11.597" stroke="#F88A10" stroke-width="0.9" stroke-linecap="round"/>
<circle cx="8" cy="8" r="0.5" fill="#F88A10" stroke="#F88A10"/>
</svg>
