<svg width="16" height="16" viewBox="0 0 16 16" fill="none" xmlns="http://www.w3.org/2000/svg">
<path d="M4 4C2.5 5 2 6.5 2 8C2 9.5 2.5 11 4 12" stroke="#4F575E"/>
<path d="M12 12C13.5 11 14 9.5 14 8C14 6.5 13.5 5 12 4" stroke="#4F575E"/>
<path d="M6.84887 4.982H5.84787V3.86H6.83787C7.2192 3.86 7.5052 3.92967 7.69587 4.069C7.88653 4.20833 8.03687 4.454 8.14687 4.806L10.1269 10.878H10.8089V12H10.1379C9.75653 12 9.47053 11.9303 9.27987 11.791C9.0892 11.6517 8.93887 11.406 8.82887 11.054L8.28987 9.393L7.91587 7.853H7.81687L7.40987 9.393L6.48587 12H5.14387L7.26687 6.258L6.84887 4.982Z" fill="#1862AB"/>
</svg>
