<svg width="16" height="16" viewBox="0 0 16 16" fill="none" xmlns="http://www.w3.org/2000/svg">
<path d="M2.0251 5.21601C2.01727 4.99421 2.05434 4.77311 2.1341 4.566C2.20005 4.40658 2.31043 4.26948 2.4521 4.17101C2.6018 4.0726 2.77039 4.00652 2.9471 3.97701C3.16004 3.93981 3.37594 3.92206 3.5921 3.924H4.0101V4.82401H3.5741C3.49292 4.81197 3.40998 4.82335 3.33504 4.85683C3.26011 4.89031 3.1963 4.9445 3.1511 5.01301C3.08024 5.15785 3.0459 5.31784 3.0511 5.47901V6.97901C3.05542 7.19307 3.01841 7.40596 2.9421 7.60601C2.8968 7.70133 2.83114 7.78557 2.74977 7.85277C2.66839 7.91998 2.57327 7.96853 2.4711 7.995C2.56563 8.0198 2.65424 8.06329 2.7317 8.12289C2.80916 8.18248 2.8739 8.25698 2.9221 8.342C3.00979 8.51046 3.05413 8.69812 3.0511 8.88801V10.513C3.04578 10.6739 3.08013 10.8336 3.1511 10.978C3.19617 11.0467 3.25993 11.1011 3.33487 11.1347C3.40981 11.1684 3.49282 11.1799 3.5741 11.168H4.0101V12.068H3.5921C3.37599 12.0697 3.16014 12.0523 2.9471 12.016C2.76994 11.9846 2.60132 11.9165 2.4521 11.816C2.31016 11.7178 2.1997 11.5806 2.1341 11.421C2.05434 11.2139 2.01727 10.9928 2.0251 10.771V9.2C2.03755 9.00645 1.98931 8.81384 1.8871 8.64901C1.82847 8.58115 1.75427 8.52851 1.67085 8.4956C1.58742 8.46268 1.49727 8.45047 1.4081 8.46001H1.3501V7.547H1.4081C1.4961 7.55579 1.58494 7.54361 1.66732 7.51145C1.74971 7.47929 1.82331 7.42808 1.8821 7.36201C1.98412 7.21592 2.03445 7.03995 2.0251 6.86201V5.21601Z" fill="#949CA3"/>
<path d="M13.986 6.86C13.9764 7.03782 14.0263 7.21378 14.128 7.36C14.1869 7.42615 14.2607 7.47741 14.3433 7.50956C14.4258 7.54172 14.5148 7.55386 14.603 7.54499H14.66V8.45799H14.603C14.5137 8.44837 14.4234 8.46055 14.3398 8.49346C14.2562 8.52638 14.1818 8.57906 14.123 8.647C14.0216 8.81215 13.9738 9.0046 13.986 9.19799V10.785C13.9936 11.0069 13.9562 11.228 13.876 11.435C13.8104 11.5946 13.6999 11.7318 13.558 11.83C13.4071 11.9308 13.2368 11.999 13.058 12.03C12.8462 12.0659 12.6318 12.0833 12.417 12.082H12V11.182H12.437C12.5183 11.1938 12.6012 11.1822 12.6762 11.1486C12.7511 11.1149 12.8148 11.0606 12.86 10.992C12.9305 10.8474 12.9648 10.6878 12.96 10.527V8.90199C12.9572 8.71224 13.0011 8.52472 13.088 8.356C13.1367 8.27116 13.2017 8.19681 13.2793 8.13725C13.3568 8.07769 13.4455 8.0341 13.54 8.009C13.4378 7.98284 13.3427 7.93439 13.2614 7.86714C13.1802 7.79988 13.1148 7.71548 13.07 7.61999C12.9929 7.42015 12.9555 7.20716 12.96 6.99299V5.49299C12.9647 5.33187 12.9304 5.17199 12.86 5.02699C12.8147 4.95857 12.7509 4.90447 12.676 4.871C12.6011 4.83753 12.5182 4.82608 12.437 4.83799H12V3.938H12.418C12.6328 3.9365 12.8473 3.95424 13.059 3.99099C13.2373 4.0202 13.4076 4.08628 13.559 4.18499C13.7007 4.28346 13.8111 4.42057 13.877 4.58C13.9572 4.78702 13.9946 5.00812 13.987 5.22999L13.986 6.86Z" fill="#949CA3"/>
<path d="M5.89015 12V4.322H7.12215V10.966H10.6201V12H5.89015Z" fill="#BC6FCC"/>
</svg>
