<svg xmlns="http://www.w3.org/2000/svg" viewBox="0 0 16 16"><defs><style>.a{fill:#7c868d;}.b{fill:#a76ab4;}</style></defs><title>less-dark</title><path class="a" d="M2.34,5.22a1.65,1.65,0,0,1,.11-.65,1,1,0,0,1,.32-.4A1.3,1.3,0,0,1,3.27,4a3.1,3.1,0,0,1,.64-.06h.42v.91H3.89A.43.43,0,0,0,3.47,5a.92.92,0,0,0-.1.46V7a1.73,1.73,0,0,1-.11.63A.7.7,0,0,1,2.79,8a.72.72,0,0,1,.45.35,1.08,1.08,0,0,1,.13.54v1.63a.92.92,0,0,0,.1.46.43.43,0,0,0,.42.19h.44v.91H3.91A3.1,3.1,0,0,1,3.27,12a1.3,1.3,0,0,1-.5-.19,1,1,0,0,1-.32-.4,1.65,1.65,0,0,1-.11-.65V9.2a.93.93,0,0,0-.13-.55.54.54,0,0,0-.48-.19H1.67V7.54h.06a.56.56,0,0,0,.47-.18.76.76,0,0,0,.14-.5Z"/><path class="a" d="M13.66,6.86a.76.76,0,0,0,.14.5.56.56,0,0,0,.47.18h.06v.92h-.06a.57.57,0,0,0-.48.19.93.93,0,0,0-.13.55v1.58a1.65,1.65,0,0,1-.11.65,1,1,0,0,1-.32.4,1.3,1.3,0,0,1-.5.19,3.16,3.16,0,0,1-.64.06h-.42v-.91h.44a.43.43,0,0,0,.42-.19.92.92,0,0,0,.1-.46V8.89a1.08,1.08,0,0,1,.13-.54A.72.72,0,0,1,13.21,8a.7.7,0,0,1-.47-.39A1.73,1.73,0,0,1,12.63,7V5.48a.92.92,0,0,0-.1-.46.43.43,0,0,0-.42-.19h-.44V3.92h.42a3.16,3.16,0,0,1,.64.06,1.3,1.3,0,0,1,.5.19,1,1,0,0,1,.32.4,1.65,1.65,0,0,1,.11.65Z"/><path class="b" d="M7.15,4.57v5.79h3.36l-.14,1H6V4.57Z"/></svg>