<svg xmlns="http://www.w3.org/2000/svg" viewBox="0 0 16 16"><defs><style>.a{fill:#7c868d;}.b{fill:#5c7cfa;}.c{fill:#da7300;}</style></defs><title>license-dark</title><path class="a" d="M4,15H9.19c.13-.41.21-.66.31-1H4V5h9c0-1-1.2-1-1-1H11V3H10A2,2,0,1,0,6,3H5V4H4A1,1,0,0,0,3,5v9A1,1,0,0,0,4,15ZM8,2A1,1,0,1,1,7,3,1,1,0,0,1,8,2Z"/><path class="b" d="M10.34,11.27,9.63,15.5H10l1.5-2,1.63,2h.37l-.84-4.23Z"/><path class="c" d="M11.5,5.5a3,3,0,1,0,3,3A3,3,0,0,0,11.5,5.5Zm0,4.5A1.5,1.5,0,1,1,13,8.5,1.5,1.5,0,0,1,11.5,10Z"/></svg>