<svg width="16" height="16" viewBox="0 0 16 16" fill="none" xmlns="http://www.w3.org/2000/svg">
<path d="M4.00003 15H9.18503C9.31803 14.588 9.40403 14.337 9.50003 14H4.00003V5H13C13 4 11.8 4 12 4H11V3H10.01C10.01 2.46824 9.7988 1.95826 9.42279 1.58225C9.04678 1.20624 8.53679 0.995003 8.00503 0.995003C7.47327 0.995003 6.96329 1.20624 6.58728 1.58225C6.21127 1.95826 6.00003 2.46824 6.00003 3H5.00003V4H4.00003C3.86785 3.99685 3.73641 4.02056 3.61366 4.0697C3.49091 4.11884 3.37941 4.19239 3.28591 4.28588C3.19242 4.37937 3.11887 4.49088 3.06974 4.61362C3.0206 4.73637 2.99688 4.86782 3.00003 5V14C2.99703 14.1321 3.02084 14.2635 3.07003 14.3862C3.11922 14.5089 3.19276 14.6203 3.28623 14.7138C3.37969 14.8073 3.49113 14.8808 3.61382 14.93C3.7365 14.9792 3.86789 15.003 4.00003 15ZM8.00003 2C8.19781 2 8.39116 2.05865 8.55561 2.16853C8.72006 2.27841 8.84823 2.43459 8.92391 2.61732C8.9996 2.80004 9.0194 3.00111 8.98081 3.19509C8.94223 3.38907 8.84699 3.56726 8.70714 3.70711C8.56729 3.84696 8.38911 3.9422 8.19512 3.98078C8.00114 4.01937 7.80008 3.99957 7.61735 3.92388C7.43462 3.84819 7.27845 3.72002 7.16857 3.55557C7.05869 3.39112 7.00003 3.19778 7.00003 3C7.00003 2.73478 7.10539 2.48043 7.29293 2.29289C7.48046 2.10536 7.73482 2 8.00003 2Z" fill="#4F575E"/>
<path d="M10.342 11.267L9.625 15.5H10L11.5 13.5L13.125 15.5H13.5L12.658 11.267H10.342Z" fill="#1862AB"/>
<path d="M11.5 5.5C10.9067 5.5 10.3266 5.67595 9.83329 6.00559C9.33994 6.33524 8.95542 6.80377 8.72836 7.35195C8.5013 7.90013 8.44189 8.50332 8.55765 9.08527C8.6734 9.66721 8.95912 10.2018 9.37868 10.6213C9.79823 11.0409 10.3328 11.3266 10.9147 11.4424C11.4967 11.5581 12.0999 11.4987 12.648 11.2716C13.1962 11.0446 13.6648 10.6601 13.9944 10.1667C14.324 9.67337 14.5 9.09334 14.5 8.5C14.5 7.70435 14.1839 6.94129 13.6213 6.37868C13.0587 5.81607 12.2956 5.5 11.5 5.5ZM11.5 10C11.2033 10 10.9133 9.91203 10.6666 9.74721C10.42 9.58239 10.2277 9.34811 10.1142 9.07402C10.0006 8.79993 9.97094 8.49834 10.0288 8.20737C10.0867 7.9164 10.2296 7.64912 10.4393 7.43934C10.6491 7.22956 10.9164 7.0867 11.2074 7.02882C11.4983 6.97095 11.7999 7.00065 12.074 7.11418C12.3481 7.22771 12.5824 7.41997 12.7472 7.66664C12.912 7.91331 13 8.20333 13 8.5C13 8.89782 12.842 9.27935 12.5607 9.56065C12.2794 9.84196 11.8978 10 11.5 10Z" fill="#9F4700"/>
</svg>
