<svg width="16" height="16" viewBox="0 0 16 16" fill="none" xmlns="http://www.w3.org/2000/svg">
<path d="M1.88681 12V4.36364H4.60875C5.20037 4.36364 5.69132 4.47177 6.08159 4.68803C6.47434 4.9043 6.76767 5.19886 6.96156 5.57173C7.15545 5.9446 7.2524 6.36594 7.2524 6.83576C7.2524 7.30558 7.15421 7.72816 6.95783 8.10352C6.76394 8.47638 6.47061 8.77219 6.07786 8.99094C5.68759 9.20721 5.19664 9.31534 4.60502 9.31534H3.03897V12H1.88681ZM3.03897 8.33842H4.50062C5.0649 8.33842 5.47132 8.19673 5.7199 7.91335C5.96848 7.62749 6.09277 7.26829 6.09277 6.83576C6.09277 6.40323 5.96724 6.04776 5.71618 5.76935C5.4676 5.49094 5.05744 5.35174 4.48571 5.35174H3.03897V8.33842ZM8.01398 4.36364H9.32275L11.3176 7.83505H11.3996L13.3945 4.36364H14.7033L11.9328 9.00213V12H10.7844V9.00213L8.01398 4.36364Z" fill="#37954A"/>
</svg>
