<svg id="图层_1" data-name="图层 1" xmlns="http://www.w3.org/2000/svg" viewBox="0 0 16 16"><defs><style>.cls-1{fill:#399549;}</style></defs><title>py-dark</title><path class="cls-1" d="M2.82,4.57H5.16a4,4,0,0,1,1.27.17,2,2,0,0,1,.78.46,1.57,1.57,0,0,1,.4.66,2.68,2.68,0,0,1,.11.78,3,3,0,0,1-.11.84,1.65,1.65,0,0,1-.4.7,2,2,0,0,1-.78.47,3.76,3.76,0,0,1-1.24.18H3.95v2.53H2.82Zm2.34,3.3a2.52,2.52,0,0,0,.72-.09,1.07,1.07,0,0,0,.44-.24.83.83,0,0,0,.22-.37,1.82,1.82,0,0,0,.06-.49,1.7,1.7,0,0,0-.07-.5.76.76,0,0,0-.23-.36,1.14,1.14,0,0,0-.45-.22,2.75,2.75,0,0,0-.71-.08H3.95V7.87Z"/><path class="cls-1" d="M10.34,8.53,8,4.57H9.27L10.9,7.52l1.67-2.95h1.22l-2.31,4v2.82H10.34Z"/></svg>