<svg width="16" height="16" viewBox="0 0 16 16" fill="none" xmlns="http://www.w3.org/2000/svg">
<path d="M2.07049 12V3.973H5.07199C5.83866 3.973 6.42133 4.18767 6.81999 4.617C7.22633 5.04633 7.42949 5.63667 7.42949 6.388C7.42949 7.13933 7.22633 7.72967 6.81999 8.159C6.42133 8.58833 5.83866 8.803 5.07199 8.803H3.35849V12H2.07049ZM3.35849 7.7335H4.87649C5.67383 7.7335 6.07249 7.3655 6.07249 6.6295V6.135C6.07249 5.40667 5.67383 5.0425 4.87649 5.0425H3.35849V7.7335ZM10.806 12V8.9755L8.138 3.973H9.5755L10.599 5.974L11.427 7.6875H11.496L12.3355 5.974L13.359 3.973H14.762L12.094 8.9755V12H10.806Z" fill="#61B86B"/>
</svg>
