<svg xmlns="http://www.w3.org/2000/svg" viewBox="0 0 16 16"><defs><style>.a{fill:#007c2b;}</style></defs><title>py-light</title><path class="a" d="M2.82,4.57H5.16a4.06,4.06,0,0,1,1.27.17,2.14,2.14,0,0,1,.79.46,1.61,1.61,0,0,1,.4.66,2.88,2.88,0,0,1,.11.78,3.34,3.34,0,0,1-.11.84,1.78,1.78,0,0,1-.41.7,2,2,0,0,1-.78.47,3.71,3.71,0,0,1-1.25.18H4v2.52H2.82Zm2.33,3.3a2.34,2.34,0,0,0,.72-.09,1.08,1.08,0,0,0,.44-.24.83.83,0,0,0,.23-.38,1.83,1.83,0,0,0,.06-.49,1.51,1.51,0,0,0-.07-.5.77.77,0,0,0-.23-.36,1.18,1.18,0,0,0-.45-.21,2.7,2.7,0,0,0-.7-.08H4V7.87Z"/><path class="a" d="M10.34,8.53,8,4.57H9.27L10.9,7.52l1.67-2.95h1.22l-2.31,4v2.82H10.34Z"/></svg>