<svg xmlns="http://www.w3.org/2000/svg" viewBox="0 0 16 16"><defs><style>.a{fill:#da5a5c;}</style></defs><title>rb-dark</title><path class="a" d="M5,4.57a3.74,3.74,0,0,1,1.26.18A2.07,2.07,0,0,1,7,5.22a1.59,1.59,0,0,1,.41.64,2.49,2.49,0,0,1,.11.7,2.22,2.22,0,0,1-.26,1.11,1.94,1.94,0,0,1-.84.72l1.41,3H6.57L5.35,8.66H3.76v2.68H2.63V4.57ZM5,7.71a2.35,2.35,0,0,0,.65-.08,1,1,0,0,0,.4-.23A.82.82,0,0,0,6.29,7a1.65,1.65,0,0,0,.06-.46,1.23,1.23,0,0,0-.07-.44A.78.78,0,0,0,6,5.81,1.13,1.13,0,0,0,5.6,5.6a2.59,2.59,0,0,0-.68-.08H3.76V7.71Z"/><path class="a" d="M8.74,4.57h2.34a4.55,4.55,0,0,1,1.22.14,1.89,1.89,0,0,1,.75.38,1.22,1.22,0,0,1,.39.57,2.28,2.28,0,0,1,.1.7,1.65,1.65,0,0,1-.19.79,1.39,1.39,0,0,1-.69.6,2.19,2.19,0,0,1,.53.33,1.53,1.53,0,0,1,.51.81,2.28,2.28,0,0,1,0,.45,2.56,2.56,0,0,1-.12.79,1.54,1.54,0,0,1-.43.64,2.1,2.1,0,0,1-.77.43,3.87,3.87,0,0,1-1.17.15H8.74Zm2.48,2.78a1.42,1.42,0,0,0,.94-.24,1,1,0,0,0,.26-.72.76.76,0,0,0-.31-.69A1.88,1.88,0,0,0,11,5.48H9.85V7.35Zm0,3.08a2.68,2.68,0,0,0,.68-.07,1.18,1.18,0,0,0,.42-.22.82.82,0,0,0,.23-.35,1.51,1.51,0,0,0,.06-.44,1,1,0,0,0-.29-.78,1.39,1.39,0,0,0-1-.28H9.85v2.14Z"/></svg>