<svg width="16" height="16" viewBox="0 0 16 16" fill="none" xmlns="http://www.w3.org/2000/svg">
<path d="M3.34699 12H2.07049V3.973H5.07199C5.83866 3.973 6.42133 4.18767 6.81999 4.617C7.22633 5.04633 7.42949 5.63667 7.42949 6.388C7.42949 7.00133 7.27999 7.50733 6.98099 7.906C6.68199 8.30467 6.25266 8.55 5.69299 8.642L7.54449 12H6.11849L4.41649 8.757H3.34699V12ZM4.88799 7.722C5.68533 7.722 6.08399 7.35783 6.08399 6.6295V6.135C6.08399 5.40667 5.68533 5.0425 4.88799 5.0425H3.34699V7.722H4.88799ZM8.9545 3.973H11.726C12.4543 3.973 13.0178 4.16083 13.4165 4.5365C13.8228 4.91217 14.026 5.42583 14.026 6.0775C14.026 6.54517 13.911 6.917 13.681 7.193C13.451 7.469 13.1405 7.6645 12.7495 7.7795V7.837C13.2172 7.94433 13.5928 8.15133 13.8765 8.458C14.1602 8.757 14.302 9.1825 14.302 9.7345C14.302 10.0642 14.2483 10.367 14.141 10.643C14.0337 10.919 13.8803 11.1605 13.681 11.3675C13.4817 11.5668 13.2402 11.724 12.9565 11.839C12.6805 11.9463 12.3738 12 12.0365 12H8.9545V3.973ZM11.6455 11.011C12.0748 11.011 12.4045 10.9228 12.6345 10.7465C12.8645 10.5702 12.9795 10.2865 12.9795 9.8955V9.4815C12.9795 9.0905 12.8645 8.80683 12.6345 8.6305C12.4045 8.45417 12.0748 8.366 11.6455 8.366H10.2195V11.011H11.6455ZM11.4615 7.423C11.8678 7.423 12.1745 7.34633 12.3815 7.193C12.5962 7.032 12.7035 6.7675 12.7035 6.3995V5.9855C12.7035 5.6175 12.5962 5.35683 12.3815 5.2035C12.1745 5.0425 11.8678 4.962 11.4615 4.962H10.2195V7.423H11.4615Z" fill="#DD5E5E"/>
</svg>
