<svg xmlns="http://www.w3.org/2000/svg" viewBox="0 0 16 16"><defs><style>.a{fill:#dc5a5b;}</style></defs><title>rb-dark</title><path class="a" d="M4.95,4.57a3.79,3.79,0,0,1,1.27.18A2.12,2.12,0,0,1,7,5.22a1.61,1.61,0,0,1,.4.64,2.26,2.26,0,0,1,.11.69,2.17,2.17,0,0,1-.26,1.11,1.86,1.86,0,0,1-.84.72l1.41,3H6.57L5.35,8.66H3.76v2.68H2.63V4.57ZM5,7.71a2.19,2.19,0,0,0,.65-.08,1,1,0,0,0,.4-.23A.82.82,0,0,0,6.29,7a1.6,1.6,0,0,0,.06-.46,1.27,1.27,0,0,0-.07-.43A.78.78,0,0,0,6,5.81,1.2,1.2,0,0,0,5.6,5.6a2.61,2.61,0,0,0-.68-.08H3.76V7.71Z"/><path class="a" d="M8.74,4.57h2.35a4.46,4.46,0,0,1,1.22.14,2,2,0,0,1,.76.38,1.26,1.26,0,0,1,.38.57,2.3,2.3,0,0,1,.1.7,1.69,1.69,0,0,1-.19.79,1.42,1.42,0,0,1-.69.6,2.1,2.1,0,0,1,.53.32,1.61,1.61,0,0,1,.33.38,1.37,1.37,0,0,1,.17.43,2.13,2.13,0,0,1,0,.45,2.41,2.41,0,0,1-.13.79,1.54,1.54,0,0,1-.42.64,2.08,2.08,0,0,1-.77.43,3.77,3.77,0,0,1-1.17.16H8.74Zm2.48,2.78a1.38,1.38,0,0,0,.94-.25.92.92,0,0,0,.27-.71.79.79,0,0,0-.31-.7A2,2,0,0,0,11,5.48H9.85V7.35Zm0,3.08a2.56,2.56,0,0,0,.68-.08,1,1,0,0,0,.43-.22.79.79,0,0,0,.22-.34,1.39,1.39,0,0,0,.07-.45,1,1,0,0,0-.29-.78,1.46,1.46,0,0,0-1-.27H9.85v2.14Z"/></svg>