<svg width="16" height="16" viewBox="0 0 16 16" fill="none" xmlns="http://www.w3.org/2000/svg">
<path d="M2.02011 12V4.36364H4.74205C5.33367 4.36364 5.82462 4.46555 6.21489 4.66939C6.60516 4.87322 6.89724 5.15536 7.09113 5.5158C7.28751 5.87376 7.3857 6.28764 7.3857 6.75746C7.3857 7.26953 7.26887 7.71325 7.0352 8.0886C6.80402 8.46147 6.45352 8.73491 5.98371 8.90891L7.67654 12H6.36404L4.8129 9.11026C4.78804 9.11026 4.76318 9.11026 4.73833 9.11026H3.17227V12H2.02011ZM3.17227 8.11843H4.63392C5.19571 8.11843 5.6009 7.99911 5.84948 7.76048C6.10054 7.52184 6.22607 7.1875 6.22607 6.75746C6.22607 6.32493 6.10054 5.98313 5.84948 5.73207C5.59841 5.47852 5.18825 5.35174 4.61901 5.35174H3.17227V8.11843ZM8.78769 12V4.36364H11.5842C12.1261 4.36364 12.5748 4.45312 12.9303 4.6321C13.2882 4.80859 13.5542 5.04847 13.7282 5.35174C13.9047 5.65252 13.9929 5.99183 13.9929 6.36967C13.9929 6.84695 13.8662 7.21236 13.6126 7.46591C13.3591 7.71946 13.057 7.89098 12.7065 7.98047V8.05504C12.9601 8.06747 13.2074 8.1495 13.4486 8.30114C13.6922 8.45028 13.8935 8.66282 14.0526 8.93874C14.2117 9.21467 14.2912 9.55025 14.2912 9.94549C14.2912 10.3358 14.1993 10.6863 14.0153 10.997C13.8339 11.3052 13.553 11.5501 13.1726 11.7315C12.7923 11.9105 12.3063 12 11.7147 12H8.78769ZM9.93985 11.0119H11.6028C12.1572 11.0119 12.5524 10.905 12.7886 10.6912C13.0272 10.4775 13.1465 10.2102 13.1465 9.88956C13.1465 9.52663 13.0111 9.21591 12.7401 8.95739C12.4716 8.69638 12.1062 8.56587 11.6439 8.56587H9.93985V11.0119ZM9.93985 7.66726H11.4835C11.8713 7.66726 12.1982 7.55788 12.4642 7.33913C12.7302 7.12038 12.8631 6.82706 12.8631 6.45916C12.8631 6.14098 12.7525 5.87624 12.5313 5.66495C12.3101 5.45117 11.9707 5.34428 11.5134 5.34428H9.93985V7.66726Z" fill="#AA302F"/>
</svg>
