<svg width="16" height="16" viewBox="0 0 16 16" fill="none" xmlns="http://www.w3.org/2000/svg">
<path d="M3.34699 12H2.07049V3.973H5.07199C5.83866 3.973 6.42133 4.18767 6.81999 4.617C7.22633 5.04633 7.42949 5.63667 7.42949 6.388C7.42949 7.00133 7.27999 7.50733 6.98099 7.906C6.68199 8.30467 6.25266 8.55 5.69299 8.642L7.54449 12H6.11849L4.41649 8.757H3.34699V12ZM4.88799 7.722C5.68533 7.722 6.08399 7.35783 6.08399 6.6295V6.135C6.08399 5.40667 5.68533 5.0425 4.88799 5.0425H3.34699V7.722H4.88799ZM11.381 12.138C10.6833 12.138 10.0968 12.0153 9.6215 11.77C9.14617 11.5247 8.75517 11.1988 8.4485 10.7925L9.2765 9.999C9.58317 10.367 9.909 10.6392 10.254 10.8155C10.599 10.9842 10.99 11.0685 11.427 11.0685C11.933 11.0685 12.3202 10.9535 12.5885 10.7235C12.8645 10.4935 13.0025 10.1638 13.0025 9.7345C13.0025 9.3895 12.9028 9.125 12.7035 8.941C12.5042 8.74933 12.163 8.61133 11.68 8.527L10.806 8.389C10.4227 8.32767 10.1007 8.228 9.84 8.09C9.57933 7.94433 9.3685 7.77567 9.2075 7.584C9.0465 7.38467 8.92767 7.16617 8.851 6.9285C8.782 6.68317 8.7475 6.42633 8.7475 6.158C8.7475 5.399 8.99283 4.824 9.4835 4.433C9.97417 4.03433 10.6488 3.835 11.5075 3.835C12.1438 3.835 12.6843 3.9385 13.129 4.1455C13.5813 4.34483 13.9455 4.6285 14.2215 4.9965L13.4165 5.8015C13.1942 5.53317 12.9297 5.3185 12.623 5.1575C12.324 4.98883 11.9522 4.9045 11.5075 4.9045C11.0322 4.9045 10.668 5.008 10.415 5.215C10.1697 5.41433 10.047 5.7095 10.047 6.1005C10.047 6.43017 10.1428 6.69083 10.3345 6.8825C10.5338 7.0665 10.8827 7.20067 11.381 7.285L12.232 7.4345C12.9527 7.56483 13.4778 7.82933 13.8075 8.228C14.1372 8.619 14.302 9.09817 14.302 9.6655C14.302 10.0335 14.2368 10.3708 14.1065 10.6775C13.9838 10.9842 13.796 11.2448 13.543 11.4595C13.2977 11.6742 12.991 11.8428 12.623 11.9655C12.2627 12.0805 11.8487 12.138 11.381 12.138Z" fill="#F88A10"/>
</svg>
