<svg width="16" height="16" viewBox="0 0 16 16" fill="none" xmlns="http://www.w3.org/2000/svg">
<path d="M2.0765 12V4.36364H4.79845C5.39007 4.36364 5.88102 4.46555 6.27128 4.66939C6.66155 4.87322 6.95364 5.15536 7.14753 5.5158C7.34391 5.87376 7.44209 6.28764 7.44209 6.75746C7.44209 7.26953 7.32526 7.71325 7.0916 8.0886C6.86042 8.46147 6.50992 8.73491 6.04011 8.90891L7.73293 12H6.42043L4.8693 9.11026C4.84444 9.11026 4.81958 9.11026 4.79472 9.11026H3.22867V12H2.0765ZM3.22867 8.11843H4.69032C5.25211 8.11843 5.65729 7.99911 5.90587 7.76048C6.15694 7.52184 6.28247 7.1875 6.28247 6.75746C6.28247 6.32493 6.15694 5.98313 5.90587 5.73207C5.65481 5.47852 5.24465 5.35174 4.6754 5.35174H3.22867V8.11843ZM13.009 6.36967C12.9693 6.01669 12.8052 5.74325 12.5168 5.54936C12.2285 5.35298 11.8656 5.25479 11.4281 5.25479C10.9583 5.25479 10.5854 5.36168 10.3095 5.57546C10.0335 5.78924 9.89557 6.05895 9.89557 6.38459C9.89557 6.6282 9.96891 6.82706 10.1156 6.98118C10.2647 7.13281 10.4462 7.25213 10.66 7.33913C10.8762 7.42614 11.0838 7.49574 11.2826 7.54794L12.0284 7.74183C12.272 7.80149 12.5218 7.88352 12.7779 7.98793C13.0339 8.08984 13.2713 8.22408 13.49 8.39062C13.7088 8.55469 13.8853 8.75977 14.0195 9.00586C14.1562 9.25195 14.2246 9.54652 14.2246 9.88956C14.2246 10.3196 14.1127 10.7037 13.889 11.0417C13.6678 11.3798 13.3471 11.6458 12.927 11.8397C12.5069 12.0311 11.9973 12.1268 11.3982 12.1268C10.5431 12.1268 9.86202 11.9267 9.35491 11.5265C8.8503 11.1262 8.57935 10.5806 8.54206 9.88956H9.69795C9.73275 10.3047 9.91298 10.6129 10.2386 10.8143C10.5643 11.0156 10.9483 11.1163 11.3908 11.1163C11.8805 11.1163 12.2844 11.0032 12.6026 10.777C12.9233 10.5508 13.0836 10.2512 13.0836 9.87837C13.0836 9.65217 13.019 9.46697 12.8897 9.3228C12.7629 9.17614 12.5902 9.05682 12.3714 8.96484C12.1552 8.87038 11.9103 8.78711 11.6369 8.71502L10.7345 8.46893C10.1205 8.30238 9.63581 8.05753 9.28034 7.73438C8.92487 7.41122 8.74714 6.98366 8.74714 6.4517C8.74714 6.01172 8.86646 5.62766 9.10509 5.29954C9.34373 4.97141 9.66688 4.71662 10.0746 4.53516C10.4847 4.35121 10.9446 4.25923 11.4542 4.25923C11.9712 4.25923 12.4274 4.34996 12.8226 4.53143C13.2203 4.71289 13.5335 4.96271 13.7622 5.28089C13.9909 5.59908 14.1102 5.962 14.1202 6.36967H13.009Z" fill="#DA7300"/>
</svg>
