<svg width="16" height="16" viewBox="0 0 16 16" fill="none" xmlns="http://www.w3.org/2000/svg">
<path d="M2.0251 5.216C2.01727 4.9942 2.05434 4.77311 2.1341 4.566C2.19922 4.40474 2.30968 4.26581 2.4521 4.166C2.6018 4.06758 2.77039 4.00151 2.9471 3.972C3.16004 3.9348 3.37594 3.91706 3.5921 3.919H4.0101V4.819H3.5741C3.49292 4.80696 3.40998 4.81835 3.33504 4.85183C3.26011 4.88531 3.1963 4.93949 3.1511 5.008C3.08024 5.15285 3.0459 5.31283 3.0511 5.474V6.974C3.05542 7.18806 3.01841 7.40095 2.9421 7.601C2.8968 7.69632 2.83114 7.78055 2.74977 7.84776C2.66839 7.91497 2.57327 7.96352 2.4711 7.99C2.56563 8.0148 2.65424 8.05828 2.7317 8.11787C2.80916 8.17747 2.8739 8.25199 2.9221 8.337C3.00979 8.50546 3.05413 8.6931 3.0511 8.88299V10.508C3.04578 10.6688 3.08013 10.8286 3.1511 10.973C3.19617 11.0417 3.25993 11.0961 3.33487 11.1297C3.40981 11.1634 3.49282 11.1749 3.5741 11.163H4.0101V12.063H3.5921C3.37599 12.0647 3.16014 12.0473 2.9471 12.011C2.76994 11.9796 2.60132 11.9115 2.4521 11.811C2.31016 11.7128 2.1997 11.5756 2.1341 11.416C2.05434 11.2089 2.01727 10.9878 2.0251 10.766V9.2C2.03755 9.00644 1.98931 8.81383 1.8871 8.649C1.82847 8.58114 1.75427 8.5285 1.67085 8.49559C1.58742 8.46267 1.49727 8.45046 1.4081 8.46H1.3501V7.547H1.4081C1.4961 7.55578 1.58494 7.5436 1.66732 7.51144C1.74971 7.47929 1.82331 7.42807 1.8821 7.362C1.98412 7.21591 2.03445 7.03994 2.0251 6.862V5.216Z" fill="#4F575E"/>
<path d="M13.986 6.86C13.9764 7.03783 14.0263 7.21379 14.128 7.36C14.1869 7.42616 14.2607 7.47741 14.3433 7.50957C14.4258 7.54173 14.5148 7.55387 14.603 7.545H14.66V8.458H14.603C14.5137 8.44837 14.4233 8.46056 14.3398 8.49347C14.2562 8.52639 14.1818 8.57907 14.123 8.64701C14.0216 8.81216 13.9738 9.0046 13.986 9.198V10.785C13.9936 11.0069 13.9562 11.228 13.876 11.435C13.8104 11.5946 13.6999 11.7318 13.558 11.83C13.4071 11.9308 13.2368 11.999 13.058 12.03C12.8462 12.0659 12.6318 12.0833 12.417 12.082H12V11.182H12.437C12.5183 11.1938 12.6012 11.1822 12.6762 11.1486C12.7511 11.1149 12.8148 11.0606 12.86 10.992C12.9305 10.8474 12.9648 10.6878 12.96 10.527V8.902C12.9571 8.71224 13.0011 8.52471 13.088 8.35601C13.1367 8.27117 13.2017 8.19682 13.2793 8.13726C13.3568 8.0777 13.4455 8.0341 13.54 8.00901C13.4378 7.98285 13.3427 7.93441 13.2614 7.86715C13.1802 7.7999 13.1148 7.7155 13.07 7.62001C12.9929 7.42016 12.9555 7.20717 12.96 6.993V5.493C12.9647 5.33188 12.9304 5.17201 12.86 5.027C12.8147 4.95858 12.7509 4.90448 12.676 4.87101C12.6011 4.83754 12.5182 4.82608 12.437 4.838H12V3.93801H12.418C12.6328 3.93651 12.8473 3.95424 13.059 3.991C13.2373 4.02021 13.4076 4.08628 13.559 4.185C13.7014 4.28481 13.8119 4.42374 13.877 4.585C13.9571 4.79203 13.9946 5.01313 13.987 5.235L13.986 6.86Z" fill="#4F575E"/>
<path d="M9.62524 6.36967C9.58547 6.01669 9.42141 5.74325 9.13306 5.54936C8.8447 5.35298 8.48178 5.25479 8.04428 5.25479C7.57446 5.25479 7.20159 5.36168 6.92567 5.57546C6.64975 5.78924 6.51179 6.05895 6.51179 6.38459C6.51179 6.6282 6.58512 6.82706 6.73178 6.98118C6.88093 7.13281 7.06239 7.25213 7.27617 7.33913C7.49243 7.42614 7.7 7.49574 7.89886 7.54794L8.6446 7.74183C8.88821 7.80149 9.13803 7.88352 9.39407 7.98793C9.6501 8.08984 9.8875 8.22408 10.1062 8.39062C10.325 8.55469 10.5015 8.75977 10.6357 9.00586C10.7724 9.25195 10.8408 9.54652 10.8408 9.88956C10.8408 10.3196 10.7289 10.7037 10.5052 11.0417C10.284 11.3798 9.96331 11.6458 9.54321 11.8397C9.12311 12.0311 8.61353 12.1268 8.01445 12.1268C7.15934 12.1268 6.47823 11.9267 5.97112 11.5265C5.46651 11.1262 5.19556 10.5806 5.15827 9.88956H6.31416C6.34897 10.3047 6.52919 10.6129 6.85483 10.8143C7.18046 11.0156 7.56452 11.1163 8.00699 11.1163C8.49669 11.1163 8.90063 11.0032 9.21882 10.777C9.53948 10.5508 9.69982 10.2512 9.69982 9.87837C9.69982 9.65217 9.63519 9.46697 9.50593 9.3228C9.37915 9.17614 9.20639 9.05682 8.98764 8.96484C8.77137 8.87038 8.52652 8.78711 8.25309 8.71502L7.35074 8.46893C6.73675 8.30238 6.25202 8.05753 5.89655 7.73438C5.54108 7.41122 5.36335 6.98366 5.36335 6.4517C5.36335 6.01172 5.48267 5.62766 5.7213 5.29954C5.95994 4.97141 6.28309 4.71662 6.69076 4.53516C7.10092 4.35121 7.56079 4.25923 8.07038 4.25923C8.58742 4.25923 9.04357 4.34996 9.43881 4.53143C9.83654 4.71289 10.1497 4.96271 10.3784 5.28089C10.6071 5.59908 10.7265 5.962 10.7364 6.36967H9.62524Z" fill="#AC4D00"/>
</svg>
