<svg width="16" height="16" viewBox="0 0 16 16" fill="none" xmlns="http://www.w3.org/2000/svg">
<path d="M4.18649 12.1265C3.57316 12.0805 3.05566 11.9387 2.63399 11.701C2.21233 11.4633 1.86733 11.1605 1.59899 10.7925L2.42699 9.999C2.68766 10.3133 2.96366 10.5587 3.25499 10.735C3.54633 10.9037 3.87599 11.0072 4.24399 11.0455V8.412L3.97949 8.366C3.59616 8.297 3.27033 8.1935 3.00199 8.0555C2.73366 7.9175 2.51516 7.74883 2.34649 7.5495C2.17783 7.35017 2.05516 7.13167 1.97849 6.894C1.90183 6.64867 1.86349 6.388 1.86349 6.112C1.86349 5.46033 2.06666 4.94283 2.47299 4.5595C2.87933 4.1685 3.45049 3.93467 4.18649 3.858V2.6735H5.15249V3.858C5.65849 3.91167 6.09549 4.03817 6.46349 4.2375C6.83149 4.43683 7.14966 4.709 7.41799 5.054L6.57849 5.813C6.39449 5.57533 6.17983 5.38367 5.93449 5.238C5.69683 5.09233 5.41699 5.00033 5.09499 4.962V7.4L5.40549 7.446C5.78883 7.515 6.11466 7.6185 6.38299 7.7565C6.65133 7.8945 6.86983 8.06317 7.03849 8.2625C7.21483 8.45417 7.34133 8.67267 7.41799 8.918C7.49466 9.16333 7.53299 9.424 7.53299 9.7C7.53299 10.3593 7.32599 10.8998 6.91199 11.3215C6.50566 11.7432 5.91916 12 5.15249 12.092V13.2995H4.18649V12.1265ZM3.08249 6.0775C3.08249 6.3995 3.17066 6.6525 3.34699 6.8365C3.53099 7.01283 3.82999 7.147 4.24399 7.239V4.939C3.46966 5.031 3.08249 5.4105 3.08249 6.0775ZM6.31399 9.7575C6.31399 9.4125 6.21816 9.15183 6.02649 8.9755C5.84249 8.7915 5.53199 8.65733 5.09499 8.573V11.034C5.49366 10.9727 5.79649 10.8347 6.00349 10.62C6.21049 10.4053 6.31399 10.1178 6.31399 9.7575ZM8.69 14.0585V12.9775H14.21V14.0585H8.69Z" fill="#813D93"/>
</svg>
