<svg width="16" height="16" viewBox="0 0 16 16" fill="none" xmlns="http://www.w3.org/2000/svg">
<path d="M2.0251 5.216C2.01724 4.9942 2.05432 4.7731 2.1341 4.566C2.19923 4.40474 2.30968 4.26581 2.4521 4.166C2.6018 4.06758 2.77039 4.00151 2.9471 3.972C3.16004 3.9348 3.37594 3.91706 3.5921 3.919H4.0101V4.819H3.5741C3.49291 4.80696 3.40998 4.81835 3.33504 4.85183C3.26011 4.88531 3.1963 4.93949 3.1511 5.008C3.08024 5.15285 3.04591 5.31283 3.0511 5.474V6.974C3.05542 7.18806 3.01841 7.40095 2.9421 7.601C2.8968 7.69632 2.83114 7.78055 2.74976 7.84776C2.66839 7.91497 2.57327 7.96352 2.4711 7.99C2.56563 8.0148 2.65424 8.05828 2.7317 8.11788C2.80916 8.17748 2.87389 8.25198 2.9221 8.337C3.00979 8.50545 3.05413 8.69311 3.0511 8.883V10.508C3.04579 10.6689 3.08013 10.8285 3.1511 10.973C3.19617 11.0417 3.25993 11.0961 3.33487 11.1297C3.40981 11.1634 3.49281 11.1749 3.5741 11.163H4.0101V12.063H3.5921C3.37599 12.0647 3.16014 12.0473 2.9471 12.011C2.77033 11.9812 2.60173 11.9147 2.4521 11.816C2.3094 11.7165 2.19888 11.5775 2.1341 11.416C2.05432 11.2089 2.01724 10.9878 2.0251 10.766V9.2C2.03755 9.00644 1.98931 8.81383 1.8871 8.649C1.82847 8.58114 1.75427 8.5285 1.67085 8.49558C1.58742 8.46267 1.49727 8.45046 1.4081 8.46H1.3501V7.547H1.4081C1.4961 7.55578 1.58494 7.5436 1.66733 7.51144C1.74972 7.47929 1.82332 7.42807 1.8821 7.362C1.98412 7.21591 2.03445 7.03994 2.0251 6.862V5.216Z" fill="#4F575E"/>
<path d="M13.987 6.86C13.9774 7.03783 14.0273 7.21379 14.129 7.36C14.1879 7.42616 14.2617 7.47741 14.3443 7.50957C14.4268 7.54173 14.5158 7.55387 14.604 7.545H14.661V8.458H14.604C14.5147 8.44838 14.4243 8.46055 14.3407 8.49346C14.2571 8.52638 14.1828 8.57907 14.124 8.64701C14.0226 8.81214 13.9747 9.0046 13.987 9.198V10.785C13.9946 11.0069 13.9571 11.228 13.877 11.435C13.8122 11.5965 13.7017 11.7355 13.559 11.835C13.4077 11.9341 13.2374 12.0005 13.059 12.03C12.8472 12.0659 12.6328 12.0833 12.418 12.082H12V11.182H12.437C12.5183 11.1938 12.6012 11.1822 12.6761 11.1486C12.7511 11.1149 12.8148 11.0606 12.86 10.992C12.9305 10.8474 12.9648 10.6878 12.96 10.527V8.893C12.9571 8.70324 13.0011 8.51571 13.088 8.347C13.1367 8.26216 13.2017 8.18781 13.2793 8.12825C13.3568 8.06869 13.4455 8.0251 13.54 8C13.4378 7.97385 13.3427 7.9254 13.2614 7.85815C13.1802 7.7909 13.1148 7.7065 13.07 7.611C12.9929 7.41116 12.9555 7.19817 12.96 6.984V5.484C12.9647 5.32288 12.9304 5.163 12.86 5.018C12.8147 4.94958 12.7509 4.89547 12.676 4.862C12.6011 4.82853 12.5182 4.81709 12.437 4.82901H12V3.929H12.418C12.6328 3.92751 12.8473 3.94525 13.059 3.98201C13.2373 4.01122 13.4076 4.07729 13.559 4.17601C13.7014 4.27581 13.8119 4.41474 13.877 4.576C13.9571 4.78302 13.9946 5.00413 13.987 5.226V6.86Z" fill="#4F575E"/>
<path d="M9.62524 6.36967C9.58547 6.01669 9.42141 5.74325 9.13306 5.54936C8.8447 5.35298 8.48178 5.25479 8.04428 5.25479C7.57446 5.25479 7.20159 5.36168 6.92567 5.57546C6.64975 5.78924 6.51179 6.05895 6.51179 6.38459C6.51179 6.6282 6.58512 6.82706 6.73178 6.98118C6.88093 7.13281 7.06239 7.25213 7.27617 7.33913C7.49243 7.42614 7.7 7.49574 7.89886 7.54794L8.6446 7.74183C8.88821 7.80149 9.13803 7.88352 9.39407 7.98793C9.6501 8.08984 9.8875 8.22408 10.1062 8.39062C10.325 8.55469 10.5015 8.75977 10.6357 9.00586C10.7724 9.25195 10.8408 9.54652 10.8408 9.88956C10.8408 10.3196 10.7289 10.7037 10.5052 11.0417C10.284 11.3798 9.96331 11.6458 9.54321 11.8397C9.12311 12.0311 8.61353 12.1268 8.01445 12.1268C7.15934 12.1268 6.47823 11.9267 5.97112 11.5265C5.46651 11.1262 5.19556 10.5806 5.15827 9.88956H6.31416C6.34897 10.3047 6.52919 10.6129 6.85483 10.8143C7.18046 11.0156 7.56452 11.1163 8.00699 11.1163C8.49669 11.1163 8.90063 11.0032 9.21882 10.777C9.53948 10.5508 9.69982 10.2512 9.69982 9.87837C9.69982 9.65217 9.63519 9.46697 9.50593 9.3228C9.37915 9.17614 9.20639 9.05682 8.98764 8.96484C8.77137 8.87038 8.52652 8.78711 8.25309 8.71502L7.35074 8.46893C6.73675 8.30238 6.25202 8.05753 5.89655 7.73438C5.54108 7.41122 5.36335 6.98366 5.36335 6.4517C5.36335 6.01172 5.48267 5.62766 5.7213 5.29954C5.95994 4.97141 6.28309 4.71662 6.69076 4.53516C7.10092 4.35121 7.56079 4.25923 8.07038 4.25923C8.58742 4.25923 9.04357 4.34996 9.43881 4.53143C9.83654 4.71289 10.1497 4.96271 10.3784 5.28089C10.6071 5.59908 10.7265 5.962 10.7364 6.36967H9.62524Z" fill="#007C2B"/>
</svg>
