<svg id="图层_1" data-name="图层 1" xmlns="http://www.w3.org/2000/svg" viewBox="0 0 16 16"><defs><style>.cls-1{fill:#7e868d;}.cls-2{fill:#399549;}</style></defs><title>stylus-dark</title><path class="cls-1" d="M2.34,5.22a1.64,1.64,0,0,1,.11-.65.89.89,0,0,1,.32-.39A1.28,1.28,0,0,1,3.27,4a3.56,3.56,0,0,1,.65-.05h.42v.9H3.89A.43.43,0,0,0,3.47,5a1,1,0,0,0-.1.47V7a1.66,1.66,0,0,1-.11.63A.72.72,0,0,1,2.79,8a.73.73,0,0,1,.45.35,1.14,1.14,0,0,1,.13.55v1.63a1,1,0,0,0,.1.46.43.43,0,0,0,.42.19h.44v.9H3.91A3.65,3.65,0,0,1,3.27,12a1.28,1.28,0,0,1-.49-.2.89.89,0,0,1-.32-.39,1.64,1.64,0,0,1-.11-.65V9.2a.93.93,0,0,0-.14-.55.56.56,0,0,0-.48-.19H1.67V7.54h.06a.56.56,0,0,0,.47-.19.8.8,0,0,0,.14-.5Z"/><path class="cls-1" d="M13.66,6.86a.79.79,0,0,0,.14.5.56.56,0,0,0,.47.19h.06v.91h-.06a.56.56,0,0,0-.48.19.93.93,0,0,0-.14.55v1.59a1.66,1.66,0,0,1-.11.65.89.89,0,0,1-.32.39,1.29,1.29,0,0,1-.5.2,3.68,3.68,0,0,1-.64.05h-.42v-.9h.44a.43.43,0,0,0,.42-.19,1,1,0,0,0,.1-.46V8.89a1.15,1.15,0,0,1,.13-.55A.74.74,0,0,1,13.21,8a.72.72,0,0,1-.47-.39A1.64,1.64,0,0,1,12.63,7V5.48a1,1,0,0,0-.1-.47.43.43,0,0,0-.42-.19h-.44v-.9h.42a3.59,3.59,0,0,1,.64.05,1.29,1.29,0,0,1,.5.19.9.9,0,0,1,.32.39,1.66,1.66,0,0,1,.11.65Z"/><path class="cls-2" d="M6.41,9.28a1.33,1.33,0,0,0,.48,1,2,2,0,0,0,1.2.3,2.18,2.18,0,0,0,.66-.09,1.2,1.2,0,0,0,.43-.23.78.78,0,0,0,.23-.34,1.28,1.28,0,0,0,.07-.41,1.11,1.11,0,0,0,0-.32.75.75,0,0,0-.17-.29,1.1,1.1,0,0,0-.33-.23,2.1,2.1,0,0,0-.53-.16l-.86-.16a6,6,0,0,1-.91-.24,2.1,2.1,0,0,1-.67-.37,1.48,1.48,0,0,1-.41-.57,2.18,2.18,0,0,1-.14-.82,1.69,1.69,0,0,1,.73-1.45,2.44,2.44,0,0,1,.81-.36A4.16,4.16,0,0,1,8,4.4a3.71,3.71,0,0,1,1.18.16A2.24,2.24,0,0,1,9.91,5a1.76,1.76,0,0,1,.45.6,2.79,2.79,0,0,1,.21.71l-1.08.17A1.51,1.51,0,0,0,9,5.63a1.6,1.6,0,0,0-1-.28,2.71,2.71,0,0,0-.68.07,1.2,1.2,0,0,0-.44.2.73.73,0,0,0-.24.29.87.87,0,0,0-.07.35.85.85,0,0,0,.24.67,1.84,1.84,0,0,0,.85.34l.94.18a3.07,3.07,0,0,1,1.58.68,1.82,1.82,0,0,1,.5,1.38,2,2,0,0,1-.16.79,1.69,1.69,0,0,1-.48.64,2.39,2.39,0,0,1-.8.43,3.59,3.59,0,0,1-1.12.16,3.37,3.37,0,0,1-2-.55,2.15,2.15,0,0,1-.82-1.7Z"/></svg>