<svg xmlns="http://www.w3.org/2000/svg" viewBox="0 0 16 16"><defs><style>.a{fill:#4f575e;}.b{fill:#007c2b;}</style></defs><title>stylus-light</title><path class="a" d="M2.34,5.22a1.65,1.65,0,0,1,.11-.65,1,1,0,0,1,.32-.4A1.3,1.3,0,0,1,3.27,4a3.1,3.1,0,0,1,.64-.06h.42v.91H3.89A.43.43,0,0,0,3.47,5a.92.92,0,0,0-.1.46V7a1.73,1.73,0,0,1-.11.63A.7.7,0,0,1,2.79,8a.72.72,0,0,1,.45.35,1.08,1.08,0,0,1,.13.54v1.63a.92.92,0,0,0,.1.46.43.43,0,0,0,.42.19h.44v.91H3.91A3.1,3.1,0,0,1,3.27,12a1.3,1.3,0,0,1-.5-.19,1,1,0,0,1-.32-.4,1.65,1.65,0,0,1-.11-.65V9.2a.93.93,0,0,0-.13-.55.54.54,0,0,0-.48-.19H1.67V7.54h.06a.56.56,0,0,0,.47-.18.76.76,0,0,0,.14-.5Z"/><path class="a" d="M13.66,6.86a.76.76,0,0,0,.14.5.56.56,0,0,0,.47.18h.06v.92h-.06a.57.57,0,0,0-.48.19.93.93,0,0,0-.13.55v1.58a1.65,1.65,0,0,1-.11.65,1,1,0,0,1-.32.4,1.3,1.3,0,0,1-.5.19,3.16,3.16,0,0,1-.64.06h-.42v-.91h.44a.43.43,0,0,0,.42-.19.92.92,0,0,0,.1-.46V8.89a1.08,1.08,0,0,1,.13-.54A.72.72,0,0,1,13.21,8a.7.7,0,0,1-.47-.39A1.73,1.73,0,0,1,12.63,7V5.48a.92.92,0,0,0-.1-.46.43.43,0,0,0-.42-.19h-.44V3.92h.42a3.16,3.16,0,0,1,.64.06,1.3,1.3,0,0,1,.5.19,1,1,0,0,1,.32.4,1.65,1.65,0,0,1,.11.65Z"/><path class="b" d="M6.41,9.28a1.32,1.32,0,0,0,.48,1,2,2,0,0,0,1.21.31,2,2,0,0,0,.65-.09,1.17,1.17,0,0,0,.43-.23.79.79,0,0,0,.23-.34,1.35,1.35,0,0,0,.06-.41,1.17,1.17,0,0,0,0-.32.82.82,0,0,0-.18-.29,1.07,1.07,0,0,0-.33-.23,2,2,0,0,0-.53-.16l-.86-.16a5.11,5.11,0,0,1-.92-.24,2,2,0,0,1-.67-.37,1.51,1.51,0,0,1-.4-.57,2,2,0,0,1-.14-.82,1.75,1.75,0,0,1,.19-.85,1.72,1.72,0,0,1,.54-.6,2.5,2.5,0,0,1,.81-.36A4.08,4.08,0,0,1,8,4.4a3.66,3.66,0,0,1,1.18.16A2.34,2.34,0,0,1,9.91,5a1.89,1.89,0,0,1,.45.61,2.78,2.78,0,0,1,.21.71l-1.09.17A1.48,1.48,0,0,0,9,5.63a1.56,1.56,0,0,0-1-.28,2.63,2.63,0,0,0-.68.07,1.15,1.15,0,0,0-.43.2.65.65,0,0,0-.24.29.87.87,0,0,0-.07.35.87.87,0,0,0,.24.67,1.85,1.85,0,0,0,.85.34l.94.18a3.1,3.1,0,0,1,1.58.68,1.84,1.84,0,0,1,.5,1.38,1.89,1.89,0,0,1-.16.79,1.57,1.57,0,0,1-.48.64,2.43,2.43,0,0,1-.8.43,3.75,3.75,0,0,1-1.12.15,3.43,3.43,0,0,1-2-.54,2.21,2.21,0,0,1-.82-1.7Z"/></svg>