<svg width="16" height="16" viewBox="0 0 16 16" fill="none" xmlns="http://www.w3.org/2000/svg">
<path d="M9.64104 2H3.96404C3.83403 1.99877 3.70515 2.02408 3.58525 2.07437C3.46536 2.12465 3.35699 2.19886 3.26675 2.29246C3.17652 2.38606 3.10633 2.49709 3.06047 2.61874C3.01461 2.74039 2.99405 2.87012 3.00004 3V13C2.99405 13.1299 3.01461 13.2596 3.06047 13.3813C3.10633 13.5029 3.17652 13.6139 3.26675 13.7075C3.35699 13.8011 3.46536 13.8753 3.58525 13.9256C3.70515 13.9759 3.83403 14.0012 3.96404 14H11.964C12.2338 14.004 12.4942 13.9011 12.6883 13.7137C12.8825 13.5263 12.9945 13.2697 13 13V5L9.64104 2ZM12 13H4.00004V3H9.00004V6H12V13Z" fill="#7C868D"/>
<path d="M7.9997 7.0003L6 9L7.9997 10.9997L9.9994 9L7.9997 7.0003Z" stroke="#5C7CFA" stroke-width="0.74" stroke-miterlimit="10"/>
</svg>
