<svg xmlns="http://www.w3.org/2000/svg" viewBox="0 0 16 16"><defs><style>.a{fill:#4f575e;}.b{fill:#007c2b;}</style></defs><title>travis-light</title><path class="a" d="M9.65,9.34c0,.44.26.44.55.43s.6-.13.8,0c0,0-.06-.19-.33-.16a.59.59,0,0,0,0-.28c0-.44-.3-.79-.59-.78s-.47.38-.46.82Zm.43-.54a.15.15,0,0,1,.15.14.14.14,0,0,1-.14.15.15.15,0,0,1,0-.29Z"/><path class="a" d="M5.68,9.85h.18c.29,0,.53,0,.53-.41s-.21-.8-.5-.8-.57.36-.55.81a.55.55,0,0,0,0,.25c-.26.07-.33.22-.33.23a1.26,1.26,0,0,1,.62-.07Zm.25-.94a.15.15,0,0,1,.15.14.15.15,0,0,1-.29,0,.14.14,0,0,1,.14-.15Z"/><path class="b" d="M6.61,4.2h.81V3.87h.19V5.38H7.33v.84H8.76V5.38H8.48V3.87h.18V4.2h.82V3.08H6.61Z"/><path class="a" d="M14.25,6.35l0-.28,0-.15,0-.14v0l0,0a2.43,2.43,0,0,0-.49-.29l-.43-.17a5.88,5.88,0,0,0-2-2.7,5.33,5.33,0,0,0-6.38,0,5.78,5.78,0,0,0-1.7,2h0c-.11.22-.21.44-.3.67l-.43.17a2.74,2.74,0,0,0-.49.29l0,0v0a1,1,0,0,0,0,.14.77.77,0,0,0,0,.15l0,.2h0a.22.22,0,0,0,0,.08,3.62,3.62,0,0,0,0,.57,2.87,2.87,0,0,0,.11.57c0,.09.06.18.09.27l.06.14,0,.07,0,0,0,0,0,0h0l.09.05.09,0,.05,0a7.18,7.18,0,0,0-1.21,1.4l-.47.72.66-.56a11.53,11.53,0,0,1,1.5-1v.1l0,.26.17,1.34a.09.09,0,0,0,0,.07l.35.23,0,.06,0,.08.07.23a5.29,5.29,0,0,0,.73,1.42H4.31l-1-.45-.45-.2.27.4s.47.72.84,1.18a2,2,0,0,0,1.71.87,1.94,1.94,0,0,0,.34,0l.62-.07a4.3,4.3,0,0,0,3,0,3.91,3.91,0,0,0,.74-.36h0l1-.24.12,0a1.34,1.34,0,0,0,1-.66c.26-.5.68-1.27.68-1.27l.2-.36-.38.16s-.51.21-.76.34l0,0a5.59,5.59,0,0,0,.35-.85l.13-.55.4-.86.11-.94,0-.36s.25,0,.29,0l.18-.07.08,0,.1,0h0l0,0,0,0,0,0,0-.07A.42.42,0,0,0,14,7.76c0-.09.07-.18.1-.27a3.82,3.82,0,0,0,.11-.57,5.43,5.43,0,0,0,0-.57Zm-9,2.32s.36-.23.94-.51c.58,0,1.22-.07,1.91-.07h.49a2.82,2.82,0,0,1-.36.24l-.41.24a3.48,3.48,0,0,0-.49.1h0a.1.1,0,0,0,0,.05L6.8,10.08l-2.24.49-.7-.48L3.65,8.47c.4-.07.94-.15,1.58-.22L5,8.5,4.65,9l.56-.36Zm3,5.62a3.47,3.47,0,0,1-1.11-.12H7.2a1.51,1.51,0,0,0,1-.52h.25l.33-.05,0,0a1.23,1.23,0,0,0,.8.36,4.48,4.48,0,0,1-1.36.31Zm0-.79.13-.28.24.25-.21,0H8.26Zm-1.1-2.77.2,0a.09.09,0,0,0,.07-.06l.42-1.34h.38l.43,1.38a.09.09,0,0,0,.08.06l.16,0h0l2.75.31.07,0,.27-.19.26-.17.09-.07a1.46,1.46,0,0,1-.05.2,2.25,2.25,0,0,1-.08.24,6.05,6.05,0,0,1-.38.85,5.36,5.36,0,0,1-.51.2l-.8-.08-.82-.63,0,0a.32.32,0,0,0-.25-.1,3.09,3.09,0,0,0-.71.16A.47.47,0,0,0,9,11.06a1.58,1.58,0,0,1-.81.34,1.28,1.28,0,0,1-.88-.23.49.49,0,0,0,.15.27,2.9,2.9,0,0,0-.43,0H6.83c-.31,0-.74.46-1,.91-.15.05-.54.13-1.08.28A8,8,0,0,1,4,11.31L3.83,11h0l0-.08.13.09h0l.32.22.11.07,0,0h0Zm1.7-2a.09.09,0,0,0-.06-.06,4.83,4.83,0,0,0-.59-.11h.06A8.77,8.77,0,0,0,10,8.17a20.49,20.49,0,0,1,2.42.3l-.2,1.37-.71.48-2.24-.25Zm4.91-1.85a5,5,0,0,1-.11.52H13.6s-.35-.09-.89-.18h0a2.13,2.13,0,0,0,.33-.11l.16-.07a.45.45,0,0,0,.13-.1,8.7,8.7,0,0,1-2.66,0C9.81,6.85,8.9,6.79,8,6.79s-1.83.06-2.74.15A8.7,8.7,0,0,1,2.58,7a.71.71,0,0,0,.14.1l.15.07.33.11.12,0c-.49.09-.78.16-.81.17s-.11,0-.14-.06a3.57,3.57,0,0,1-.11-.47,4.71,4.71,0,0,1,0-.53V6.27a1.09,1.09,0,0,1,0-.18s.17-.18.31-.26A4.44,4.44,0,0,1,3,5.59a5.38,5.38,0,0,1,1-.24c.32-.06,1.47-.21,1.56-.24s.58-.4.67-.43c-.19,0-2.7.4-2.82.43A4.57,4.57,0,0,1,8,2a4.51,4.51,0,0,1,4.55,3,23.18,23.18,0,0,0-2.75-.44,7.26,7.26,0,0,0,.67.38,20.25,20.25,0,0,1,2,.38l.51.21a4.3,4.3,0,0,1,.48.24c.14.08.31.22.31.26a2.45,2.45,0,0,1,0,.27,3.15,3.15,0,0,1,0,.53Z"/></svg>