<svg width="16" height="16" viewBox="0 0 16 16" fill="none" xmlns="http://www.w3.org/2000/svg">
<path d="M9.65088 9.339C9.66788 9.781 9.91088 9.778 10.1999 9.767C10.5899 9.76 10.7999 9.644 10.9999 9.736C10.9999 9.725 10.9359 9.54801 10.6659 9.57901C10.702 9.49178 10.714 9.39648 10.7009 9.303C10.6659 8.861 10.4009 8.51101 10.1109 8.52101C9.82088 8.53101 9.63588 8.897 9.65188 9.339H9.65088ZM10.0829 8.80101C10.1112 8.80121 10.1389 8.80977 10.1624 8.82563C10.1859 8.84148 10.2042 8.86392 10.215 8.89013C10.2258 8.91635 10.2286 8.94517 10.2231 8.97298C10.2176 9.00079 10.204 9.02636 10.184 9.04647C10.1641 9.06659 10.1386 9.08036 10.1108 9.08606C10.083 9.09176 10.0542 9.08913 10.0279 9.07851C10.0016 9.06789 9.97906 9.04974 9.96305 9.02635C9.94703 9.00295 9.93827 8.97535 9.93788 8.947C9.93788 8.90845 9.95312 8.87147 9.98029 8.84412C10.0075 8.81677 10.0443 8.80127 10.0829 8.80101Z" fill="#7C868D"/>
<path d="M5.67991 9.847H5.85891C6.14891 9.847 6.38891 9.87 6.38591 9.429C6.38291 8.988 6.17891 8.629 5.88591 8.629C5.59291 8.629 5.31591 8.994 5.33191 9.435C5.33191 9.5235 5.34923 9.61115 5.38291 9.693C5.31524 9.70349 5.25077 9.72895 5.1942 9.76753C5.13762 9.80611 5.09038 9.85684 5.05591 9.916C5.25444 9.84379 5.46729 9.8198 5.67691 9.846L5.67991 9.847ZM5.92891 8.908C5.95726 8.908 5.98498 8.91638 6.00859 8.93208C6.0322 8.94777 6.05065 8.97009 6.06164 8.99622C6.07262 9.02236 6.07564 9.05116 6.07032 9.07901C6.065 9.10686 6.05158 9.13252 6.03174 9.15277C6.0119 9.17302 5.98653 9.18697 5.9588 9.19286C5.93106 9.19875 5.90221 9.19632 5.87585 9.18588C5.84949 9.17544 5.8268 9.15745 5.81062 9.13417C5.79444 9.11089 5.7855 9.08335 5.78491 9.055C5.7849 9.01653 5.79998 8.97959 5.8269 8.9521C5.85382 8.92462 5.89044 8.90878 5.92891 8.908Z" fill="#7C868D"/>
<path d="M6.60986 4.2H7.42386V3.874H7.60786V5.374H7.33086V6.217H8.75586V5.374H8.47886V3.874H8.66186V4.2H9.47686V3.084H6.60986V4.2Z" fill="#37954A"/>
<path d="M14.245 6.351C14.245 6.251 14.23 6.16 14.217 6.066C14.21 6.018 14.203 5.966 14.193 5.924C14.183 5.882 14.174 5.831 14.158 5.778L14.148 5.741L14.121 5.72C13.9677 5.60732 13.8027 5.51144 13.629 5.434C13.489 5.37 13.347 5.314 13.203 5.263C12.8133 4.18562 12.1183 3.24501 11.203 2.556C10.2819 1.8703 9.16426 1.49995 8.01598 1.49995C6.8677 1.49995 5.75004 1.8703 4.82898 2.556C4.11171 3.09284 3.52961 3.78965 3.12898 4.591C3.01557 4.80877 2.91539 5.03318 2.82898 5.263C2.68498 5.314 2.54298 5.37 2.40298 5.434C2.22909 5.51121 2.06412 5.60711 1.91098 5.72L1.88398 5.741L1.87298 5.778C1.85798 5.831 1.84698 5.878 1.83798 5.924C1.82898 5.97 1.82098 6.018 1.81398 6.066C1.80398 6.134 1.79798 6.203 1.79198 6.272L1.78598 6.352C1.77646 6.54284 1.78249 6.73414 1.80398 6.924C1.82406 7.11478 1.86052 7.30348 1.91298 7.488C1.93986 7.58125 1.97157 7.67304 2.00798 7.763C2.02598 7.808 2.04598 7.853 2.06798 7.899L2.10298 7.966L2.12198 8L2.14598 8.037L2.16498 8.067L2.19698 8.083L2.28798 8.126L2.37498 8.164L2.42298 8.183C1.96443 8.59611 1.5611 9.06666 1.22298 9.583L0.750977 10.306L1.41498 9.741C1.88607 9.36416 2.38782 9.02732 2.91498 8.734L2.92798 8.834L2.96198 9.096L3.13198 10.436C3.13351 10.4487 3.13779 10.4609 3.14452 10.4718C3.15126 10.4827 3.16029 10.492 3.17098 10.499L3.51898 10.736L3.53698 10.794L3.56098 10.874L3.64098 11.107C3.80774 11.6138 4.05123 12.092 4.36298 12.525L4.31898 12.537C4.13798 12.455 3.50498 12.171 3.29298 12.078L2.84798 11.884L3.11098 12.284C3.12998 12.313 3.58398 13 3.95398 13.463C4.1467 13.7381 4.40409 13.9616 4.7035 14.1138C5.00291 14.2661 5.33515 14.3424 5.67098 14.336C5.78321 14.3357 5.89536 14.3297 6.00698 14.318C6.27498 14.288 6.47498 14.265 6.62798 14.245C7.58353 14.5935 8.63143 14.5935 9.58698 14.245C9.84415 14.1499 10.0919 14.0311 10.327 13.89H10.34C10.706 13.805 11.121 13.708 11.326 13.653L11.442 13.624C11.6516 13.6001 11.8527 13.5276 12.0293 13.4121C12.2059 13.2966 12.353 13.1415 12.459 12.959C12.716 12.459 13.134 11.696 13.138 11.689L13.338 11.333L12.957 11.494C12.937 11.503 12.457 11.707 12.203 11.835L12.174 11.848C12.3132 11.5762 12.4277 11.2924 12.516 11L12.654 10.449L13.054 9.589L13.167 8.649L13.206 8.289C13.241 8.275 13.453 8.261 13.494 8.245C13.553 8.222 13.612 8.2 13.671 8.175L13.758 8.137C13.789 8.123 13.816 8.111 13.849 8.094L13.88 8.079L13.9 8.049C13.911 8.033 13.917 8.023 13.924 8.011L13.943 7.978C13.956 7.955 13.967 7.933 13.978 7.91C14 7.865 14.02 7.82 14.039 7.774C14.075 7.683 14.106 7.592 14.133 7.499C14.1855 7.3145 14.222 7.12579 14.242 6.935C14.2637 6.74514 14.2693 6.55381 14.259 6.363L14.245 6.351ZM5.20698 8.672C5.51186 8.48448 5.82739 8.31486 6.15198 8.164C6.73198 8.121 7.36998 8.094 8.05198 8.094C8.21898 8.094 8.38198 8.094 8.54298 8.094C8.4306 8.18291 8.31233 8.26409 8.18898 8.337L7.77798 8.578C7.6091 8.59914 7.44199 8.63256 7.27798 8.678C7.27026 8.67996 7.26285 8.68298 7.25598 8.687C7.23595 8.69798 7.22092 8.71624 7.21398 8.738L6.79398 10.08L4.55498 10.563L3.84898 10.083L3.64298 8.469C4.04298 8.397 4.57998 8.315 5.22398 8.245C5.15498 8.325 5.08698 8.409 5.02398 8.497L4.64098 9.031L5.19898 8.67L5.20698 8.672ZM8.22898 14.287C7.85447 14.309 7.47889 14.2698 7.11698 14.171C7.14798 14.165 7.16998 14.162 7.19798 14.159C7.5788 14.1147 7.92971 13.9308 8.18298 13.643H8.28298C8.33198 13.643 8.37598 13.643 8.42398 13.637C8.53442 13.6278 8.64426 13.6125 8.75298 13.591L8.78798 13.625C9.00381 13.8355 9.28725 13.9627 9.58798 13.984C9.15157 14.154 8.69143 14.2552 8.22398 14.284L8.22898 14.287ZM8.26298 13.502C8.31798 13.382 8.36298 13.288 8.39198 13.218C8.45798 13.289 8.54098 13.377 8.63398 13.47C8.56098 13.481 8.48898 13.49 8.41898 13.495C8.37198 13.495 8.31898 13.502 8.27998 13.502H8.26298ZM7.16298 10.733L7.36298 10.689C7.3789 10.6856 7.39365 10.6781 7.40576 10.6672C7.41787 10.6563 7.42691 10.6425 7.43198 10.627L7.84998 9.291C7.97629 9.27229 8.10467 9.27229 8.23098 9.291L8.66098 10.667C8.66651 10.6842 8.67693 10.6994 8.69096 10.7108C8.70499 10.7221 8.72202 10.7292 8.73998 10.731L8.89998 10.749H8.94098L11.691 11.049C11.7135 11.0511 11.7361 11.0454 11.755 11.033L12.031 10.845L12.287 10.672L12.381 10.607C12.366 10.671 12.349 10.734 12.331 10.797C12.305 10.879 12.277 10.959 12.249 11.037C12.1445 11.3296 12.0185 11.614 11.872 11.888C11.834 11.888 11.591 12.029 11.361 12.088C11.099 12.065 10.686 12.019 10.555 12.004C10.442 11.917 10.055 11.619 9.73598 11.374C9.72298 11.365 9.71198 11.355 9.70098 11.346C9.66794 11.3137 9.62885 11.2882 9.58595 11.2711C9.54305 11.2539 9.49718 11.2454 9.45098 11.246C9.20896 11.2723 8.97095 11.3273 8.74198 11.41C8.80306 11.3702 8.85444 11.3172 8.89234 11.2549C8.93023 11.1926 8.95369 11.1226 8.96098 11.05C8.72899 11.2373 8.44898 11.3554 8.15298 11.391C7.83849 11.4203 7.52382 11.337 7.26498 11.156C7.28655 11.259 7.33968 11.3526 7.41698 11.424C7.27558 11.4073 7.13335 11.3987 6.99098 11.398C6.93698 11.398 6.88198 11.398 6.82898 11.398C6.52198 11.414 6.09098 11.863 5.78898 12.317C5.63998 12.362 5.24498 12.443 4.70698 12.597C4.41486 12.1886 4.16238 11.7533 3.95298 11.297C3.88198 11.135 3.84198 11.025 3.83398 10.997C3.82398 10.97 3.81298 10.942 3.80398 10.914L3.93298 11.001L4.25198 11.218L4.35798 11.29C4.37396 11.3008 4.39272 11.3067 4.41198 11.307H4.43298L7.16298 10.733ZM8.86298 8.74C8.8577 8.7256 8.84918 8.71262 8.83809 8.70204C8.82699 8.69146 8.81361 8.68358 8.79898 8.679C8.60722 8.62788 8.41155 8.59276 8.21398 8.574H8.26798C8.85948 8.49868 9.44201 8.36469 10.007 8.174C11.028 8.25 11.861 8.374 12.431 8.474L12.231 9.847L11.519 10.33L9.28198 10.084L8.86298 8.74ZM13.774 6.89C13.749 7.067 13.666 7.412 13.666 7.412L13.602 7.422C13.568 7.413 13.253 7.334 12.712 7.237L12.762 7.226C12.874 7.19977 12.9842 7.16637 13.092 7.126C13.1458 7.10458 13.1982 7.07987 13.249 7.052C13.2997 7.02625 13.346 6.99249 13.386 6.952C12.5043 7.08774 11.607 7.08571 10.726 6.946C9.81498 6.855 8.90098 6.796 7.98298 6.794C7.06498 6.792 6.15198 6.855 5.24098 6.946C4.35997 7.08573 3.4626 7.08776 2.58098 6.952C2.62133 6.99251 2.66792 7.02627 2.71898 7.052C2.76951 7.07966 2.82159 7.10436 2.87498 7.126C2.98272 7.16637 3.09295 7.19977 3.20498 7.226C3.24498 7.23533 3.28498 7.24333 3.32498 7.25C2.83098 7.341 2.54498 7.413 2.51298 7.422C2.51298 7.422 2.39898 7.44 2.37398 7.355C2.3253 7.20322 2.28918 7.0477 2.26598 6.89C2.24261 6.71398 2.23125 6.53657 2.23198 6.359C2.23198 6.33 2.23198 6.272 2.23198 6.272C2.23198 6.212 2.23198 6.153 2.24198 6.093C2.32367 5.98057 2.43141 5.88964 2.55598 5.828C2.71269 5.73965 2.87391 5.65954 3.03898 5.588C3.37107 5.48088 3.71113 5.40029 4.05598 5.347C4.37598 5.29 5.52298 5.142 5.60898 5.111C5.69498 5.08 6.18998 4.711 6.27698 4.677C6.09498 4.706 3.57698 5.077 3.46498 5.115C3.78566 4.17553 4.40378 3.36616 5.2257 2.80949C6.04763 2.25281 7.02858 1.97917 8.01998 2.03C9.00601 1.96785 9.98526 2.23034 10.808 2.77734C11.6308 3.32433 12.2517 4.12573 12.576 5.059C11.6667 4.85733 10.746 4.71107 9.81898 4.621C9.90598 4.651 10.396 4.986 10.487 4.998C11.233 5.092 12.41 5.345 12.496 5.378C12.665 5.444 12.834 5.513 12.996 5.588C13.1609 5.65974 13.3222 5.73985 13.479 5.828C13.6035 5.88964 13.7113 5.98057 13.793 6.093C13.801 6.182 13.804 6.27 13.805 6.359C13.8062 6.53658 13.7948 6.71402 13.771 6.89H13.774Z" fill="#7C868D"/>
</svg>
