<svg width="16" height="16" viewBox="0 0 16 16" fill="none" xmlns="http://www.w3.org/2000/svg">
<path d="M6.61011 4.2H7.42411V3.874H7.60811V5.374H7.33111V6.217H8.75611V5.374H8.47911V3.874H8.66211V4.2H9.47711V3.084H6.61011V4.2Z" fill="#61B86B"/>
<path fill-rule="evenodd" clip-rule="evenodd" d="M14.2221 6.10246C14.2336 6.18376 14.245 6.26397 14.245 6.351L14.259 6.363C14.2693 6.55381 14.2637 6.74514 14.242 6.935C14.222 7.12579 14.1855 7.3145 14.133 7.499C14.106 7.592 14.075 7.683 14.039 7.774C14.02 7.82 14 7.865 13.978 7.91C13.967 7.933 13.956 7.955 13.943 7.978L13.924 8.011C13.917 8.023 13.911 8.033 13.9 8.049L13.88 8.079L13.849 8.094C13.8186 8.10966 13.7933 8.12108 13.7652 8.13373L13.758 8.137L13.671 8.175C13.6267 8.19375 13.5825 8.21081 13.5382 8.22787C13.5235 8.23356 13.5087 8.23925 13.494 8.245C13.4728 8.25325 13.4063 8.26096 13.342 8.26842C13.2815 8.27543 13.2229 8.28222 13.206 8.289L13.167 8.649L13.054 9.589L12.654 10.449L12.516 11C12.4277 11.2924 12.3132 11.5762 12.174 11.848L12.203 11.835C12.4249 11.7231 12.8195 11.5532 12.9288 11.5062C12.9446 11.4994 12.9545 11.4951 12.957 11.494L13.338 11.333L13.138 11.689C13.134 11.696 12.716 12.459 12.459 12.959C12.353 13.1415 12.2059 13.2966 12.0293 13.4121C11.8527 13.5276 11.6516 13.6001 11.442 13.624L11.326 13.653C11.121 13.708 10.706 13.805 10.34 13.89H10.327C10.0919 14.0311 9.84415 14.1499 9.58698 14.245C8.63143 14.5935 7.58353 14.5935 6.62798 14.245C6.47498 14.265 6.27498 14.288 6.00698 14.318C5.89536 14.3297 5.78321 14.3357 5.67098 14.336C5.33515 14.3424 5.00291 14.2661 4.7035 14.1138C4.40409 13.9616 4.1467 13.7381 3.95398 13.463C3.58398 13 3.12998 12.313 3.11098 12.284L2.84798 11.884L3.29298 12.078C3.50498 12.171 4.13798 12.455 4.31898 12.537L4.36298 12.525C4.05123 12.092 3.80774 11.6138 3.64098 11.107L3.56098 10.874L3.53698 10.794L3.51898 10.736L3.17098 10.499C3.16029 10.492 3.15126 10.4827 3.14452 10.4718C3.13779 10.4609 3.13351 10.4487 3.13198 10.436L2.96198 9.096L2.92798 8.834L2.91498 8.734C2.38782 9.02732 1.88607 9.36416 1.41498 9.741L0.750977 10.306L1.22298 9.583C1.5611 9.06666 1.96443 8.59611 2.42298 8.183L2.37498 8.164L2.28798 8.126L2.19698 8.083L2.16498 8.067L2.14598 8.037L2.12198 8L2.10298 7.966L2.06798 7.899C2.04598 7.853 2.02598 7.808 2.00798 7.763C1.97157 7.67304 1.93986 7.58125 1.91298 7.488C1.86052 7.30348 1.82406 7.11478 1.80398 6.924C1.78249 6.73414 1.77646 6.54284 1.78598 6.352L1.79198 6.272L1.79198 6.27196C1.79798 6.20297 1.80398 6.13399 1.81398 6.066C1.82098 6.018 1.82898 5.97 1.83798 5.924C1.84698 5.878 1.85798 5.831 1.87298 5.778L1.88398 5.741L1.91098 5.72C2.06412 5.60711 2.22909 5.51121 2.40298 5.434C2.54298 5.37 2.68498 5.314 2.82898 5.263C2.91539 5.03318 3.01557 4.80877 3.12898 4.591C3.52961 3.78965 4.11171 3.09284 4.82898 2.556C5.75004 1.8703 6.8677 1.49995 8.01598 1.49995C9.16426 1.49995 10.2819 1.8703 11.203 2.556C12.1183 3.24501 12.8133 4.18562 13.203 5.263C13.347 5.314 13.489 5.37 13.629 5.434C13.8027 5.51144 13.9677 5.60732 14.121 5.72L14.148 5.741L14.158 5.778C14.169 5.81458 14.1767 5.85021 14.1837 5.88258C14.1869 5.89711 14.1899 5.91099 14.193 5.924C14.2018 5.96116 14.2083 6.00614 14.2146 6.04926C14.2154 6.05488 14.2162 6.06047 14.217 6.066C14.2187 6.0782 14.2204 6.09034 14.2221 6.10246ZM6.15198 8.164C5.82739 8.31486 5.51186 8.48448 5.20698 8.672L5.19898 8.67L4.64098 9.031L5.02398 8.497C5.08698 8.409 5.15498 8.325 5.22398 8.245C4.57998 8.315 4.04298 8.397 3.64298 8.469L3.84898 10.083L4.55498 10.563L6.79398 10.08L7.21398 8.738C7.22092 8.71624 7.23595 8.69798 7.25598 8.687C7.26285 8.68298 7.27026 8.67996 7.27798 8.678C7.44199 8.63256 7.6091 8.59914 7.77798 8.578L8.18898 8.337C8.31233 8.26409 8.4306 8.18291 8.54298 8.094H8.05198C7.36998 8.094 6.73198 8.121 6.15198 8.164ZM7.11698 14.171C7.47889 14.2698 7.85447 14.309 8.22898 14.287L8.22398 14.284C8.69143 14.2552 9.15157 14.154 9.58798 13.984C9.28725 13.9627 9.00381 13.8355 8.78798 13.625L8.75298 13.591C8.64426 13.6125 8.53442 13.6278 8.42398 13.637C8.376 13.643 8.33202 13.643 8.28305 13.643H8.28298H8.18298C7.92971 13.9308 7.5788 14.1147 7.19798 14.159C7.16998 14.162 7.14798 14.165 7.11698 14.171ZM8.309 13.4023C8.29464 13.4333 8.27924 13.4665 8.26298 13.502H8.27998C8.29857 13.502 8.32034 13.5004 8.34313 13.4987C8.36814 13.4969 8.39438 13.495 8.41898 13.495C8.48898 13.49 8.56098 13.481 8.63398 13.47C8.54098 13.377 8.45798 13.289 8.39198 13.218C8.37155 13.2673 8.3432 13.3285 8.309 13.4023ZM7.36298 10.689L7.16298 10.733L4.43298 11.307H4.41198C4.39272 11.3067 4.37396 11.3008 4.35798 11.29L4.25198 11.218L3.93298 11.001L3.80398 10.914C3.81084 10.9353 3.81886 10.9567 3.82672 10.9776C3.82917 10.9841 3.8316 10.9906 3.83398 10.997C3.84198 11.025 3.88198 11.135 3.95298 11.297C4.16238 11.7533 4.41486 12.1886 4.70698 12.597C5.04054 12.5015 5.31913 12.4341 5.5182 12.3859C5.64022 12.3564 5.73236 12.3341 5.78898 12.317C6.09098 11.863 6.52198 11.414 6.82898 11.398H6.99098C7.13335 11.3987 7.27558 11.4073 7.41698 11.424C7.33968 11.3526 7.28655 11.259 7.26498 11.156C7.52382 11.337 7.83849 11.4203 8.15298 11.391C8.44898 11.3554 8.72899 11.2373 8.96098 11.05C8.95369 11.1226 8.93023 11.1926 8.89234 11.2549C8.85444 11.3172 8.80306 11.3702 8.74198 11.41C8.97095 11.3273 9.20896 11.2723 9.45098 11.246C9.49718 11.2454 9.54305 11.2539 9.58595 11.2711C9.62885 11.2882 9.66794 11.3137 9.70098 11.346C9.70396 11.3484 9.70695 11.351 9.70997 11.3535C9.71809 11.3604 9.7265 11.3674 9.73598 11.374C10.0376 11.6057 10.4001 11.8848 10.5342 11.988L10.555 12.004C10.686 12.019 11.099 12.065 11.361 12.088C11.5039 12.0513 11.6518 11.983 11.7524 11.9366C11.8138 11.9082 11.8576 11.888 11.872 11.888C12.0185 11.614 12.1445 11.3296 12.249 11.037C12.277 10.959 12.305 10.879 12.331 10.797C12.349 10.734 12.366 10.671 12.381 10.607L12.287 10.672L12.031 10.845L11.755 11.033C11.7361 11.0454 11.7135 11.0511 11.691 11.049L8.94098 10.749H8.89998L8.73998 10.731C8.72202 10.7292 8.70499 10.7221 8.69096 10.7108C8.67693 10.6994 8.66651 10.6842 8.66098 10.667L8.23098 9.291C8.10467 9.27229 7.97629 9.27229 7.84998 9.291L7.43198 10.627C7.42691 10.6425 7.41787 10.6563 7.40576 10.6672C7.39365 10.6781 7.3789 10.6856 7.36298 10.689ZM8.83809 8.70204C8.84918 8.71262 8.8577 8.7256 8.86298 8.74L9.28198 10.084L11.519 10.33L12.231 9.847L12.431 8.474C11.861 8.374 11.028 8.25 10.007 8.174C9.44201 8.36469 8.85948 8.49868 8.26798 8.574H8.21398C8.41155 8.59276 8.60722 8.62788 8.79898 8.679C8.81361 8.68358 8.82699 8.69146 8.83809 8.70204ZM13.666 7.412C13.666 7.412 13.749 7.067 13.774 6.89H13.771C13.7948 6.71402 13.8062 6.53658 13.805 6.359C13.804 6.27 13.801 6.182 13.793 6.093C13.7113 5.98057 13.6035 5.88964 13.479 5.828C13.3222 5.73985 13.1609 5.65974 12.996 5.588C12.834 5.513 12.665 5.444 12.496 5.378C12.41 5.345 11.233 5.092 10.487 4.998C10.4345 4.99108 10.249 4.87657 10.0849 4.77519C9.96462 4.70091 9.85577 4.63369 9.81898 4.621C10.746 4.71107 11.6667 4.85733 12.576 5.059C12.2517 4.12573 11.6308 3.32433 10.808 2.77734C9.98526 2.23034 9.00601 1.96785 8.01998 2.03C7.02858 1.97917 6.04763 2.25281 5.2257 2.80949C4.40378 3.36616 3.78566 4.17553 3.46498 5.115C3.55202 5.08546 5.09234 4.85479 5.85986 4.73986C6.0799 4.7069 6.23643 4.68346 6.27698 4.677C6.2344 4.69364 6.0941 4.79051 5.95185 4.88874C5.80344 4.99122 5.65289 5.09517 5.60898 5.111C5.5608 5.12836 5.17975 5.18244 4.7976 5.23666C4.4975 5.27925 4.19673 5.32193 4.05598 5.347C3.71113 5.40029 3.37107 5.48088 3.03898 5.588C2.87391 5.65954 2.71269 5.73965 2.55598 5.828C2.43141 5.88964 2.32367 5.98057 2.24198 6.093C2.23198 6.153 2.23198 6.212 2.23198 6.272V6.359C2.23125 6.53657 2.24261 6.71398 2.26598 6.89C2.28918 7.0477 2.3253 7.20322 2.37398 7.355C2.39898 7.44 2.51298 7.422 2.51298 7.422C2.54498 7.413 2.83098 7.341 3.32498 7.25C3.28498 7.24333 3.24498 7.23533 3.20498 7.226C3.09295 7.19977 2.98272 7.16637 2.87498 7.126C2.82159 7.10436 2.76951 7.07966 2.71898 7.052C2.66792 7.02627 2.62133 6.99251 2.58098 6.952C3.4626 7.08776 4.35997 7.08573 5.24098 6.946C6.15198 6.855 7.06498 6.792 7.98298 6.794C8.90098 6.796 9.81498 6.855 10.726 6.946C11.607 7.08571 12.5043 7.08774 13.386 6.952C13.346 6.99249 13.2997 7.02625 13.249 7.052C13.1982 7.07987 13.1458 7.10458 13.092 7.126C12.9842 7.16637 12.874 7.19977 12.762 7.226L12.712 7.237C13.253 7.334 13.568 7.413 13.602 7.422L13.666 7.412ZM9.65088 9.339C9.66788 9.781 9.91088 9.778 10.1999 9.767C10.3559 9.7642 10.4831 9.74396 10.5924 9.72656L10.5924 9.72656C10.7563 9.70048 10.8799 9.68081 10.9999 9.736C10.9999 9.725 10.9359 9.54801 10.6659 9.57901C10.702 9.49178 10.714 9.39648 10.7009 9.303C10.6659 8.861 10.4009 8.51101 10.1109 8.52101C9.82088 8.53101 9.63588 8.897 9.65188 9.339H9.65088ZM10.0829 8.80101C10.1112 8.80121 10.1389 8.80977 10.1624 8.82563C10.1859 8.84148 10.2042 8.86392 10.215 8.89013C10.2258 8.91635 10.2286 8.94517 10.2231 8.97298C10.2176 9.00079 10.204 9.02636 10.184 9.04647C10.1641 9.06659 10.1386 9.08036 10.1108 9.08606C10.083 9.09176 10.0542 9.08913 10.0279 9.07851C10.0016 9.06789 9.97906 9.04974 9.96305 9.02635C9.94703 9.00295 9.93827 8.97535 9.93788 8.947C9.93788 8.90845 9.95312 8.87147 9.98029 8.84412C10.0075 8.81677 10.0443 8.80127 10.0829 8.80101ZM5.67991 9.847H5.85891L5.90004 9.8471C6.17125 9.84814 6.38877 9.84897 6.38591 9.429C6.38291 8.988 6.17891 8.629 5.88591 8.629C5.59291 8.629 5.31591 8.994 5.33191 9.435C5.33191 9.5235 5.34923 9.61115 5.38291 9.693C5.31524 9.70349 5.25077 9.72895 5.1942 9.76753C5.13762 9.80611 5.09038 9.85684 5.05591 9.916C5.25444 9.84379 5.46729 9.8198 5.67691 9.846L5.67991 9.847ZM5.92891 8.908C5.95726 8.908 5.98498 8.91638 6.00859 8.93208C6.0322 8.94777 6.05065 8.97009 6.06164 8.99622C6.07262 9.02236 6.07564 9.05116 6.07032 9.07901C6.065 9.10686 6.05158 9.13252 6.03174 9.15277C6.0119 9.17302 5.98653 9.18697 5.9588 9.19286C5.93106 9.19875 5.90221 9.19632 5.87585 9.18588C5.84949 9.17544 5.8268 9.15745 5.81062 9.13417C5.79444 9.11089 5.7855 9.08335 5.78491 9.055C5.7849 9.01653 5.79998 8.97959 5.8269 8.9521C5.85382 8.92462 5.89044 8.90878 5.92891 8.908Z" fill="#949CA3"/>
</svg>
