<svg id="图层_1" data-name="图层 1" xmlns="http://www.w3.org/2000/svg" viewBox="0 0 16 16"><defs><style>.cls-1{fill:#51575e;}.cls-2{fill:#007c2a;}</style></defs><title>travis-light</title><path id="_复合路径_" data-name="&lt;复合路径&gt;" class="cls-1" d="M9.65,9.34c0,.44.26.44.55.43s.6-.12.8,0c0,0-.06-.19-.33-.16a.54.54,0,0,0,0-.28c0-.44-.3-.79-.59-.78s-.48.38-.46.82Zm.43-.54a.14.14,0,1,1-.15.15.15.15,0,0,1,.15-.15Z"/><path id="_复合路径_2" data-name="&lt;复合路径&gt;" class="cls-1" d="M5.68,9.85h.18c.29,0,.53,0,.53-.42s-.21-.8-.5-.8-.57.36-.55.81a.69.69,0,0,0,.05.26.46.46,0,0,0-.33.22,1.33,1.33,0,0,1,.62-.07Zm.25-.94a.14.14,0,1,1-.14.15.15.15,0,0,1,.14-.15Z"/><path id="_路径_" data-name="&lt;路径&gt;" class="cls-2" d="M6.61,4.2h.81V3.87h.18V5.38H7.33v.84H8.76V5.38H8.48V3.87h.18V4.2h.81V3.08H6.61Z"/><path id="_复合路径_3" data-name="&lt;复合路径&gt;" class="cls-1" d="M14.25,6.35c0-.1,0-.19,0-.29s0-.1,0-.14a1.42,1.42,0,0,0,0-.15v0l0,0a2.64,2.64,0,0,0-.49-.29l-.43-.17a5.9,5.9,0,0,0-2-2.71,5.34,5.34,0,0,0-6.37,0,5.77,5.77,0,0,0-1.7,2h0a6.31,6.31,0,0,0-.3.67l-.43.17a2.63,2.63,0,0,0-.49.29l0,0v0c0,.05,0,.1,0,.15s0,.09,0,.14,0,.14,0,.21h0v.08a3.56,3.56,0,0,0,.13,1.14c0,.09.06.18.1.27l.06.14,0,.07,0,0,0,0,0,0,0,0,.09,0,.09,0,0,0a7.1,7.1,0,0,0-1.2,1.39l-.47.72.66-.57a11,11,0,0,1,1.5-1v.1l0,.26.17,1.34a.09.09,0,0,0,0,.06l.35.24,0,.06,0,.08.08.23a5.24,5.24,0,0,0,.72,1.42h0l-1-.46-.44-.19.26.4s.47.72.84,1.18a2,2,0,0,0,1.72.87l.34,0,.62-.07a4.31,4.31,0,0,0,3.7-.36h0l1-.24.12,0a1.35,1.35,0,0,0,1-.67c.26-.5.67-1.26.68-1.27l.2-.36-.38.16s-.5.21-.75.34h0a5.14,5.14,0,0,0,.34-.85l.14-.55.4-.86.11-.94,0-.36.29,0,.18-.07.09,0,.09,0,0,0,0,0,0,0,0,0,0-.07L14,7.76c0-.09.07-.18.09-.27a3.54,3.54,0,0,0,.13-1.14Zm-9,2.32a9.39,9.39,0,0,1,.95-.51c.58,0,1.22-.07,1.9-.07h.49a3.16,3.16,0,0,1-.35.24l-.41.24a3.61,3.61,0,0,0-.5.1h0a.09.09,0,0,0,0,.05L6.8,10.08l-2.24.48-.71-.48L3.65,8.47c.4-.07.94-.15,1.58-.22L5,8.5,4.65,9l.56-.36Zm3,5.62a3.46,3.46,0,0,1-1.11-.12H7.2a1.55,1.55,0,0,0,1-.52h.24l.33,0,0,0a1.27,1.27,0,0,0,.8.36,4.53,4.53,0,0,1-1.36.3Zm0-.78.13-.28.24.25-.21,0H8.26Zm-1.1-2.77.2,0a.09.09,0,0,0,.07-.06l.42-1.34h.38l.43,1.38a.09.09,0,0,0,.08.06l.16,0h0l2.75.3.06,0,.28-.19.26-.17.09-.06-.05.19-.08.24a6.34,6.34,0,0,1-.38.85s-.28.14-.51.2L10.56,12l-.82-.63,0,0a.35.35,0,0,0-.25-.1,3,3,0,0,0-.71.16A.49.49,0,0,0,9,11.06a1.58,1.58,0,0,1-.81.34,1.33,1.33,0,0,1-.89-.23.51.51,0,0,0,.15.27l-.43,0H6.83c-.31,0-.74.47-1,.92-.15,0-.54.13-1.08.28A7.84,7.84,0,0,1,4,11.31c-.07-.16-.11-.27-.12-.3h0l0-.08.13.09h0l.32.22.11.07.05,0h0Zm1.7-2a.09.09,0,0,0-.06-.06,3.45,3.45,0,0,0-.58-.1h.05A9.08,9.08,0,0,0,10,8.17c1,.08,1.85.2,2.42.3l-.2,1.37-.71.48-2.24-.25Zm4.91-1.85c0,.18-.11.52-.11.52H13.6s-.35-.09-.89-.19h.05l.33-.1L13.25,7a.54.54,0,0,0,.14-.1,8.6,8.6,0,0,1-2.66,0C9.81,6.85,8.9,6.79,8,6.79s-1.83.06-2.74.15a8.6,8.6,0,0,1-2.66,0,.54.54,0,0,0,.14.1l.16.07.33.1.12,0c-.49.09-.78.16-.81.17s-.11,0-.14-.07a3,3,0,0,1-.11-.46,3.79,3.79,0,0,1,0-.53s0-.09,0-.09,0-.12,0-.18a.86.86,0,0,1,.31-.27c.15-.09.32-.17.48-.24a6.57,6.57,0,0,1,1-.24c.32-.06,1.47-.2,1.55-.24s.58-.4.67-.43c-.18,0-2.7.4-2.81.44A4.57,4.57,0,0,1,8,2a4.52,4.52,0,0,1,4.56,3,23.17,23.17,0,0,0-2.76-.44c.09,0,.58.37.67.38.75.09,1.92.35,2,.38l.5.21c.17.07.33.15.48.24a.87.87,0,0,1,.31.27c0,.09,0,.18,0,.27a3.8,3.8,0,0,1,0,.53Z"/></svg>