<svg xmlns="http://www.w3.org/2000/svg" viewBox="0 0 16 16"><defs><style>.a{fill:#5c7cfa;}</style></defs><title>ts-dark</title><path class="a" d="M4.32,5.57H2.18v-1H7.61v1H5.47v5.78H4.32Z"/><path class="a" d="M9.36,9.28a1.32,1.32,0,0,0,.48,1,2,2,0,0,0,1.2.31,2.1,2.1,0,0,0,.66-.09,1.2,1.2,0,0,0,.42-.23.71.71,0,0,0,.23-.34,1.35,1.35,0,0,0,.07-.41,1.19,1.19,0,0,0-.05-.32.79.79,0,0,0-.17-.29,1.07,1.07,0,0,0-.33-.23,2,2,0,0,0-.54-.16l-.86-.16a5,5,0,0,1-.91-.24,1.88,1.88,0,0,1-.67-.37,1.54,1.54,0,0,1-.41-.57,2.23,2.23,0,0,1-.14-.82,1.75,1.75,0,0,1,.2-.85,1.8,1.8,0,0,1,.53-.6,2.46,2.46,0,0,1,.82-.36,4.08,4.08,0,0,1,1-.12,3.55,3.55,0,0,1,1.17.16,2.24,2.24,0,0,1,.77.42,1.76,1.76,0,0,1,.45.61,2.78,2.78,0,0,1,.21.71l-1.08.17A1.54,1.54,0,0,0,12,5.63a1.58,1.58,0,0,0-1-.28,2.58,2.58,0,0,0-.68.07,1.2,1.2,0,0,0-.44.2.81.81,0,0,0-.24.29.87.87,0,0,0-.07.35.87.87,0,0,0,.24.67,1.91,1.91,0,0,0,.85.34l.94.18a3,3,0,0,1,1.58.68,1.8,1.8,0,0,1,.5,1.38,2.06,2.06,0,0,1-.15.79,1.77,1.77,0,0,1-.48.64,2.49,2.49,0,0,1-.81.43,3.68,3.68,0,0,1-1.11.15A3.39,3.39,0,0,1,9,11a2.15,2.15,0,0,1-.82-1.7Z"/></svg>