<svg id="图层_1" data-name="图层 1" xmlns="http://www.w3.org/2000/svg" viewBox="0 0 16 16"><defs><style>.cls-1{fill:#5c7cfa;}</style></defs><title>ts-dark</title><path class="cls-1" d="M4.32,5.57H2.18v-1H7.61v1H5.47v5.79H4.32Z"/><path class="cls-1" d="M9.36,9.28a1.33,1.33,0,0,0,.48,1,2,2,0,0,0,1.2.3,2.18,2.18,0,0,0,.66-.09,1.2,1.2,0,0,0,.43-.23.78.78,0,0,0,.23-.34,1.28,1.28,0,0,0,.07-.41,1.11,1.11,0,0,0,0-.32.75.75,0,0,0-.17-.29,1.1,1.1,0,0,0-.33-.23,2.1,2.1,0,0,0-.53-.16l-.86-.16a6,6,0,0,1-.91-.24,2.1,2.1,0,0,1-.67-.37,1.48,1.48,0,0,1-.41-.57,2.18,2.18,0,0,1-.14-.82,1.69,1.69,0,0,1,.73-1.45,2.44,2.44,0,0,1,.81-.36,4.16,4.16,0,0,1,1-.12,3.71,3.71,0,0,1,1.18.16,2.24,2.24,0,0,1,.77.42,1.76,1.76,0,0,1,.45.6,2.79,2.79,0,0,1,.21.71l-1.08.17A1.51,1.51,0,0,0,12,5.63a1.6,1.6,0,0,0-1-.28,2.71,2.71,0,0,0-.68.07,1.2,1.2,0,0,0-.44.2.73.73,0,0,0-.24.29.87.87,0,0,0-.07.35.85.85,0,0,0,.24.67,1.84,1.84,0,0,0,.85.34l.94.18a3.07,3.07,0,0,1,1.58.68,1.82,1.82,0,0,1,.5,1.38,2,2,0,0,1-.16.79,1.69,1.69,0,0,1-.48.64,2.39,2.39,0,0,1-.8.43,3.59,3.59,0,0,1-1.12.16A3.37,3.37,0,0,1,9,11a2.15,2.15,0,0,1-.82-1.7Z"/></svg>