<svg id="图层_1" data-name="图层 1" xmlns="http://www.w3.org/2000/svg" viewBox="0 0 16 16"><defs><style>.cls-1{fill:#5c7cfa;}</style></defs><title>ts-dark</title><path class="cls-1" d="M4.52,5.87h-2V4.93H7.63v.95h-2v5.48H4.52Z"/><path class="cls-1" d="M9.29,9.39a1.26,1.26,0,0,0,.45.92,1.88,1.88,0,0,0,1.14.29,2,2,0,0,0,.62-.08,1.17,1.17,0,0,0,.4-.22.76.76,0,0,0,.21-.32,1.19,1.19,0,0,0,.06-.39,1,1,0,0,0,0-.3A.68.68,0,0,0,12,9a1.09,1.09,0,0,0-.32-.22,2,2,0,0,0-.5-.15l-.82-.15a5.82,5.82,0,0,1-.86-.22,2,2,0,0,1-.63-.36,1.42,1.42,0,0,1-.39-.54,2,2,0,0,1-.13-.78,1.66,1.66,0,0,1,.18-.8A1.68,1.68,0,0,1,9,5.22a2.27,2.27,0,0,1,.77-.34,4,4,0,0,1,1-.11,3.52,3.52,0,0,1,1.11.15,2.13,2.13,0,0,1,.73.4,1.69,1.69,0,0,1,.42.57,2.54,2.54,0,0,1,.2.67l-1,.16a1.44,1.44,0,0,0-.44-.8,1.52,1.52,0,0,0-1-.26,2.66,2.66,0,0,0-.64.07,1.15,1.15,0,0,0-.42.19.7.7,0,0,0-.22.28.84.84,0,0,0-.07.33.81.81,0,0,0,.23.63,1.77,1.77,0,0,0,.8.33l.89.17a2.9,2.9,0,0,1,1.49.64,1.72,1.72,0,0,1,.48,1.31,1.89,1.89,0,0,1-.15.75,1.62,1.62,0,0,1-.45.6,2.29,2.29,0,0,1-.76.4,3.41,3.41,0,0,1-1.06.15A3.2,3.2,0,0,1,9,11a2,2,0,0,1-.77-1.61Z"/></svg>