<svg width="16" height="16" viewBox="0 0 16 16" fill="none" xmlns="http://www.w3.org/2000/svg">
<path d="M2.39531 4.36364L4.52066 10.5831H4.60642L6.73178 4.36364H7.97716L5.22911 12H3.89797L1.14992 4.36364H2.39531ZM9.07992 12V4.36364H11.8764C12.4183 4.36364 12.867 4.45312 13.2225 4.6321C13.5805 4.80859 13.8464 5.04847 14.0204 5.35174C14.1969 5.65252 14.2852 5.99183 14.2852 6.36967C14.2852 6.84695 14.1584 7.21236 13.9049 7.46591C13.6513 7.71946 13.3493 7.89098 12.9988 7.98047V8.05504C13.2523 8.06747 13.4997 8.1495 13.7408 8.30114C13.9844 8.45028 14.1857 8.66282 14.3448 8.93874C14.5039 9.21467 14.5835 9.55025 14.5835 9.94549C14.5835 10.3358 14.4915 10.6863 14.3076 10.997C14.1261 11.3052 13.8452 11.5501 13.4649 11.7315C13.0845 11.9105 12.5986 12 12.0069 12H9.07992ZM10.2321 11.0119H11.8951C12.4494 11.0119 12.8447 10.905 13.0808 10.6912C13.3194 10.4775 13.4388 10.2102 13.4388 9.88956C13.4388 9.52663 13.3033 9.21591 13.0323 8.95739C12.7639 8.69638 12.3985 8.56587 11.9361 8.56587H10.2321V11.0119ZM10.2321 7.66726H11.7758C12.1636 7.66726 12.4904 7.55788 12.7564 7.33913C13.0224 7.12038 13.1554 6.82706 13.1554 6.45916C13.1554 6.14098 13.0448 5.87624 12.8235 5.66495C12.6023 5.45117 12.263 5.34428 11.8056 5.34428H10.2321V7.66726Z" fill="#5C7CFA"/>
</svg>
