<svg xmlns="http://www.w3.org/2000/svg" viewBox="0 0 16 16"><defs><style>.a{fill:#3b5bdb;}</style></defs><title>vb-light</title><path class="a" d="M3.11,4.57,5,9.79,6.86,4.57H8.09L5.51,11.35H4.41L1.83,4.57Z"/><path class="a" d="M8.92,4.57h2.35a4.47,4.47,0,0,1,1.21.14,2,2,0,0,1,.76.38,1.2,1.2,0,0,1,.38.57,2.28,2.28,0,0,1,.11.7,1.65,1.65,0,0,1-.19.79,1.46,1.46,0,0,1-.7.6,2.27,2.27,0,0,1,.54.33,1.45,1.45,0,0,1,.33.38,1.43,1.43,0,0,1,.17.43,2.3,2.3,0,0,1,0,.45,2.56,2.56,0,0,1-.13.79,1.62,1.62,0,0,1-.42.64,2.27,2.27,0,0,1-.77.43,4,4,0,0,1-1.17.15H8.92ZM11.4,7.35a1.42,1.42,0,0,0,.94-.24.93.93,0,0,0,.27-.72.79.79,0,0,0-.31-.69,1.9,1.9,0,0,0-1.07-.22H10V7.35Zm0,3.08a2.63,2.63,0,0,0,.68-.07,1.33,1.33,0,0,0,.43-.22.8.8,0,0,0,.22-.35,1.23,1.23,0,0,0,.07-.44,1,1,0,0,0-.29-.78,1.44,1.44,0,0,0-1-.28H10v2.14Z"/></svg>