<svg xmlns="http://www.w3.org/2000/svg" viewBox="0 0 16 16"><defs><style>.a{fill:#3b5bdb;}</style></defs><title>vb-light</title><path class="a" d="M3.11,4.57,5,9.79,6.86,4.57H8.09L5.51,11.35H4.41L1.83,4.57Z"/><path class="a" d="M8.92,4.57h2.35a4.46,4.46,0,0,1,1.22.14,2,2,0,0,1,.76.38,1.26,1.26,0,0,1,.38.57,2.3,2.3,0,0,1,.1.7,1.69,1.69,0,0,1-.19.79,1.42,1.42,0,0,1-.69.6,2.1,2.1,0,0,1,.53.32,1.61,1.61,0,0,1,.33.38,1.37,1.37,0,0,1,.17.43,2.13,2.13,0,0,1,0,.45,2.41,2.41,0,0,1-.13.79,1.54,1.54,0,0,1-.42.64,2.08,2.08,0,0,1-.77.43,3.77,3.77,0,0,1-1.17.16H8.92ZM11.4,7.35a1.38,1.38,0,0,0,.94-.25.92.92,0,0,0,.27-.71.79.79,0,0,0-.31-.7,2,2,0,0,0-1.07-.21H10V7.35Zm0,3.08a2.56,2.56,0,0,0,.68-.08,1,1,0,0,0,.43-.22.79.79,0,0,0,.22-.34,1.39,1.39,0,0,0,.07-.45,1,1,0,0,0-.29-.78,1.46,1.46,0,0,0-1-.27H10v2.14Z"/></svg>